<svg width="327" height="173" viewBox="0 0 327 173" fill="none" xmlns="http://www.w3.org/2000/svg">
<path d="M163.415 71.1058C156.563 71.0994 149.867 69.0626 144.172 65.2529C138.478 61.4431 134.042 56.0315 131.424 49.7019C128.806 43.3724 128.124 36.4092 129.465 29.6926C130.806 22.9759 134.109 16.8073 138.956 11.9665C143.804 7.12576 149.978 3.83016 156.699 2.49631C163.42 1.16247 170.386 1.85026 176.716 4.47274C183.046 7.09523 188.456 11.5347 192.262 17.2299C196.068 22.9251 198.1 29.6204 198.1 36.4695C198.1 41.0207 197.202 45.5273 195.459 49.7316C193.715 53.936 191.16 57.7557 187.939 60.9724C184.718 64.1891 180.894 66.7397 176.686 68.4785C172.478 70.2172 167.969 71.11 163.415 71.1058ZM163.415 0C156.199 0 149.145 2.1389 143.145 6.14621C137.145 10.1535 132.468 15.8493 129.707 22.5132C126.945 29.1771 126.222 36.5099 127.63 43.5843C129.038 50.6587 132.513 57.1569 137.616 62.2573C142.718 67.3576 149.22 70.831 156.297 72.2382C163.375 73.6453 170.711 72.9231 177.378 70.1628C184.045 67.4026 189.743 62.7282 193.752 56.7308C197.762 50.7334 199.901 43.6824 199.901 36.4695C199.901 26.7972 196.057 17.521 189.215 10.6817C182.372 3.84231 173.092 0 163.415 0" fill="#4F5053"/>
<path d="M151.768 30.9377C152.274 31.5617 152.91 32.0668 153.633 32.4169C154.356 32.7671 155.148 32.9538 155.951 32.9638C156.656 32.9983 157.354 32.7997 157.935 32.3987C158.517 31.9976 158.95 31.4164 159.168 30.7448C157.774 30.0208 156.258 29.5627 154.696 29.394C153.576 29.57 152.546 30.113 151.768 30.9377Z" fill="#4F5053"/>
<path d="M180.403 48.2398C180.995 48.1721 181.594 48.2295 182.162 48.4083C182.73 48.587 183.254 48.8831 183.7 49.2774C184.146 49.6716 184.504 50.1552 184.751 50.6966C184.998 51.2381 185.128 51.8255 185.133 52.4206C185.133 54.8326 183.685 56.2798 181.916 56.119C180.938 55.9859 180.042 55.5009 179.396 54.7549C178.751 54.0089 178.399 53.0532 178.409 52.0668C178.36 50.8681 178.569 49.673 179.02 48.5614C179.478 48.3632 179.969 48.254 180.468 48.2398H180.403ZM157.173 47.6287C154.76 49.7834 151.35 52.6457 148.454 52.6457C148.065 52.6484 147.684 52.5411 147.353 52.3363C147.023 52.1314 146.758 51.8373 146.588 51.4879C146.43 51.0606 146.391 50.5983 146.476 50.1506C146.561 49.703 146.767 49.287 147.07 48.9473C147.46 48.5019 147.674 47.9306 147.674 47.3393C147.674 46.7479 147.46 46.1766 147.07 45.7313C146.073 44.7665 145.816 44.059 146.041 43.673C146.11 43.5293 146.234 43.4185 146.384 43.3644C146.534 43.3103 146.7 43.3172 146.845 43.3836C147.199 43.3836 147.585 43.6409 147.617 43.3836C147.65 43.1263 147.424 42.8369 146.845 42.7726C146.498 42.7395 146.171 42.597 145.911 42.3657C145.651 42.1344 145.471 41.8264 145.397 41.4862C145.397 41.0038 145.751 40.5214 146.137 40.1033C146.523 39.6852 146.749 38.8812 145.59 38.3023C145.092 38.1073 144.574 37.9671 144.046 37.8842C143.531 37.8842 143.016 37.7234 143.016 37.1124C143.016 36.5014 143.531 36.3406 144.207 35.9225C148.432 33.3375 151.462 29.1871 152.637 24.377C153.859 19.9711 156.658 15.7903 160.326 15.5652C161.758 15.4611 163.181 15.8561 164.355 16.6828C165.528 17.5095 166.378 18.717 166.761 20.0997C160.326 27.5609 156.111 38.7847 157.334 47.6609L157.173 47.6287ZM188.383 24.3127C188.383 15.1793 182.816 13.121 178.923 13.2497C174.644 13.8156 170.69 15.8371 167.727 18.9741C167.191 17.1973 166.077 15.6501 164.561 14.5781C163.046 13.5061 161.216 12.9706 159.361 13.0567C156.872 13.3143 154.464 14.0846 152.287 15.3189C150.111 16.5533 148.214 18.2249 146.716 20.2284C143.037 24.2057 140.359 29.0021 138.905 34.2202C137.45 39.4382 137.26 44.9277 138.351 50.2337C138.6 52.0769 139.445 53.7882 140.758 55.1063C142.071 56.4244 143.78 57.277 145.622 57.534C152.283 57.9842 156.98 49.3654 157.495 48.6578C157.808 50.6901 158.554 52.6314 159.683 54.3502C160.518 55.6984 161.744 56.7597 163.199 57.3919C164.654 58.0241 166.267 58.1971 167.823 57.8878C169.174 57.5018 169.593 56.8265 169.464 56.4406C169.436 56.3521 169.388 56.2716 169.322 56.2058C169.257 56.14 169.177 56.0909 169.089 56.0625C169 56.0342 168.906 56.0274 168.815 56.0428C168.724 56.0583 168.637 56.0954 168.563 56.1511C168.135 56.3876 167.653 56.5117 167.163 56.5117C166.674 56.5117 166.192 56.3876 165.764 56.1511C163.962 55.2185 163.64 51.6487 163.672 50.0407C163.898 36.9838 172.006 23.766 174.161 20.4213C175.931 17.8164 179.856 13.4105 183.396 16.0797C185.744 17.8164 185.841 21.9329 184.039 26.4674C182.832 29.4428 181.099 32.1771 178.923 34.5396C175.384 38.3345 170.687 44.4449 170.976 50.6196C170.987 52.9371 171.876 55.1644 173.464 56.853C175.052 58.5417 177.221 59.5664 179.535 59.7209C180.477 59.7819 181.422 59.6418 182.306 59.3098C183.191 58.9779 183.994 58.4618 184.664 57.7957C185.333 57.1296 185.853 56.3288 186.189 55.4464C186.525 54.564 186.67 53.6203 186.613 52.6778C186.561 51.9376 186.361 51.2154 186.025 50.5536C185.689 49.8918 185.224 49.3039 184.657 48.8244C184.091 48.3449 183.434 47.9836 182.725 47.7617C182.017 47.5398 181.271 47.4618 180.532 47.5322C180.085 47.5549 179.642 47.6305 179.213 47.7574C179.856 46.3423 180.789 44.7665 181.948 42.7082C185.61 37.2786 187.713 30.9497 188.029 24.4092" fill="#4F5053"/>
<path d="M235.679 121.983V107.704C235.679 101.754 240.795 101.754 245.332 101.754C250.673 101.754 254.984 102.944 257.172 105.935C258.577 107.774 259.273 110.057 259.135 112.367C259.135 118.124 254.437 122.015 246.265 122.015L235.679 121.983ZM182.141 129.123L193.659 106.61L205.66 129.123H182.141ZM267.114 138.771C264.572 134.204 263.671 128.286 259.07 125.263C257.445 124.327 255.671 123.674 253.826 123.334C259.231 122.401 265.505 118.863 265.602 111.949C265.686 109.615 264.92 107.33 263.446 105.517C260.036 101.24 253.987 99.9534 245.653 99.9534H223.614V100.822C226.574 101.079 229.566 101.915 229.566 107.704V137.452C229.566 142.565 227.475 144.366 224.997 144.366C222.52 144.366 219.56 142.565 216.857 137.452L196.909 99.9534H184.843V100.822C186.205 100.807 187.555 101.087 188.798 101.642C190.042 102.198 191.152 103.015 192.05 104.038L174.966 137.452C172.134 142.983 169.046 144.109 165.796 144.399V145.299H180.178V144.399C177.347 144.141 175.127 142.662 177.765 137.452L180.757 131.663H206.915L210.133 137.484C212.9 142.662 210.776 144.141 207.945 144.399V145.299H240.506V144.399C237.545 144.141 235.679 142.662 235.679 137.452V124.363C246.908 124.363 251.767 124.781 254.308 127.161C257.526 130.055 258.491 136.809 260.325 140.957C261.773 144.334 263.189 145.299 267.918 145.299H273.131V144.431C270.517 143.34 268.367 141.373 267.05 138.867" fill="#4F5053"/>
<path d="M169.561 99.9534H155.05V100.822C157.978 101.079 160.97 101.915 160.97 107.704V135.362L128.409 99.9855H115.218V100.854C117.974 101.063 120.631 101.971 122.94 103.491V137.452C122.94 143.273 119.947 144.141 116.987 144.399V145.299H131.498V144.399C128.699 144.141 125.481 143.273 125.481 137.452V105.935L162.675 146.199H163.609V107.607C163.609 101.819 166.601 100.982 169.561 100.725V99.9534Z" fill="#4F5053"/>
<path d="M94.3358 143.402C90.3139 143.402 83.1711 143.402 83.1711 137.452V123.044H97.8428C100.867 123.044 103.345 125.971 104.085 129.766H104.728V113.686H104.085C103.345 117.448 100.867 120.407 97.8428 120.407H83.1711V107.543C83.1711 101.851 88.9948 101.594 92.8235 101.594C100.449 101.594 106.144 102.108 110.101 108.026H110.777L110.198 99.7283H71.2021V100.629C74.1622 100.886 77.0579 101.722 77.0579 107.511V137.259C77.0579 143.08 74.1622 143.948 71.2021 144.206V145.106H111.646L113.641 135.072H112.611C108.396 142.662 101.221 143.562 94.2071 143.562" fill="#4F5053"/>
<path d="M298.324 143.305C294.591 143.305 287.191 143.305 287.191 137.484V107.704C287.191 102.012 292.983 101.819 296.844 101.819C303.089 101.836 309.116 104.122 313.8 108.251C315.843 110.109 317.46 112.388 318.537 114.931C319.615 117.474 320.128 120.22 320.042 122.98C320.042 137.677 308.169 143.434 298.259 143.434L298.324 143.305ZM318.529 105.614C312.266 101.633 304.936 99.6582 297.519 99.9534H274.997V100.822C277.957 101.079 280.949 101.787 280.949 107.608V137.484C280.949 143.273 277.957 144.141 274.997 144.399V145.299H297.519C311.033 145.299 326.895 138.449 326.991 122.337C327.089 119.065 326.365 115.821 324.887 112.9C323.409 109.979 321.224 107.474 318.529 105.614Z" fill="#4F5053"/>
<path d="M60.8745 137.484L57.2388 107.704C56.5631 102.237 59.6841 101.079 62.5476 100.822V99.9534H51.0612L34.266 136.97L16.6665 99.9534H4.56881V100.822C6.91817 100.881 9.18138 101.718 11.0037 103.202L6.78886 137.484C6.81039 138.387 6.65046 139.285 6.31853 140.126C5.98661 140.966 5.48944 141.731 4.85644 142.375C4.22344 143.02 3.46749 143.531 2.63332 143.879C1.79914 144.226 0.903705 144.403 0 144.399L0 145.299H13.6099V144.399C10.7142 144.141 8.78369 142.63 9.42719 137.484L13.1916 106.578L31.9816 146.199H32.8504L50.9647 106.578L54.697 137.484C55.3727 142.63 53.41 144.141 50.4821 144.399V145.299H67.5669V144.399C66.6659 144.399 65.7739 144.219 64.9435 143.869C64.1131 143.52 63.3609 143.008 62.7314 142.364C62.1018 141.72 61.6075 140.956 61.2776 140.118C60.9476 139.28 60.7887 138.384 60.8102 137.484" fill="#4F5053"/>
<path d="M31.9174 159.385C31.4103 159.51 30.8802 159.51 30.3731 159.385C30.3731 161.636 30.5983 167.039 30.3731 169.355C30.1478 171.67 28.2495 171.927 27.3486 172.056V172.41C29.9226 172.41 31.7244 171.349 31.66 169.194C31.5957 167.039 31.66 161.443 31.66 159.256" fill="#4F5053"/>
<path d="M82.8178 165.142C83.5257 163.373 84.1692 161.926 84.4909 161.283C84.8448 161.958 85.4883 163.405 86.2283 165.142C85.0924 165.206 83.9538 165.206 82.8178 165.142ZM84.684 159.192L79.7612 169.998C80.1391 169.885 80.5416 169.885 80.9195 169.998C81.4343 168.583 81.9813 167.168 82.4961 165.914C83.8355 165.833 85.1785 165.833 86.5179 165.914C87.0649 167.232 87.644 168.647 88.0945 169.998C88.7099 169.87 89.3452 169.87 89.9606 169.998L85.0379 159.192H84.684Z" fill="#4F5053"/>
<path d="M46.0419 165.142C46.782 163.373 47.3933 161.926 47.715 161.283C48.069 161.958 48.7446 163.405 49.4525 165.142C48.3165 165.206 47.1779 165.206 46.0419 165.142ZM47.9081 159.192L42.9854 169.998C43.3741 169.885 43.7871 169.885 44.1758 169.998C44.6584 168.583 45.2376 167.168 45.7524 165.914C47.0918 165.833 48.4348 165.833 49.7742 165.914C50.3212 167.232 50.8682 168.647 51.3508 169.998C51.9553 169.87 52.5802 169.87 53.1847 169.998L48.262 159.192H47.9081Z" fill="#4F5053"/>
<path d="M157.656 159.385C157.817 163.759 157.656 166.171 157.656 169.966C158.177 169.869 158.712 169.869 159.233 169.966C159.233 166.171 159.072 163.212 159.233 159.385C158.713 159.497 158.176 159.497 157.656 159.385Z" fill="#4F5053"/>
<path d="M245.847 159.385H245.621C244.753 159.803 242.758 160.704 241.889 161.025C242.134 161.181 242.352 161.377 242.533 161.604C243.106 161.253 243.697 160.931 244.302 160.639C244.302 164.241 244.302 166.718 244.302 169.966C244.823 169.869 245.358 169.869 245.879 169.966C245.702 166.441 245.702 162.91 245.879 159.385" fill="#4F5053"/>
<path d="M65.4753 164.466V160.125C67.2449 159.9 69.5614 160.125 69.5614 162.119C69.5614 164.113 67.5666 164.852 65.4753 164.466ZM67.8562 159.449C66.6014 159.449 65.25 159.449 64.0596 159.449C64.2204 163.019 64.0596 165.881 64.0596 169.998C64.5915 169.901 65.1364 169.901 65.6683 169.998C65.6683 168.229 65.6683 166.782 65.6683 165.174C67.6631 165.463 71.2345 165.367 71.2345 162.151C71.2345 160.06 69.7867 159.546 68.0171 159.482" fill="#4F5053"/>
<path d="M109.072 159.385C109.072 160.961 109.233 165.174 109.072 167.522L101.254 159.192H100.932C101.034 162.796 100.948 166.403 100.675 169.998C101.055 169.901 101.453 169.901 101.833 169.998C101.833 166.782 101.833 163.952 101.833 161.862L109.78 170.191H110.102C110.102 166.75 110.102 162.215 110.102 159.385C109.755 159.481 109.388 159.481 109.04 159.385" fill="#4F5053"/>
<path d="M179.695 159.385C179.695 160.961 179.695 165.174 179.695 167.522L171.845 159.192H171.555C171.648 162.797 171.551 166.404 171.266 169.998C171.657 169.901 172.065 169.901 172.456 169.998C172.295 166.782 172.263 163.952 172.456 161.862L180.178 170.191H180.468C180.468 166.75 180.468 162.215 180.468 159.385C180.12 159.481 179.753 159.481 179.406 159.385" fill="#4F5053"/>
<path d="M118.692 168.422C118.338 169.548 117.727 171.638 117.373 172.699H117.695C118.593 171.481 119.369 170.178 120.011 168.808C120.462 167.586 119.078 167.039 118.692 168.261" fill="#4F5053"/>
<path d="M143.145 163.759C142.083 163.309 141.118 162.826 141.118 161.604C141.1 161.137 141.265 160.681 141.577 160.333C141.889 159.985 142.325 159.772 142.791 159.739C143.293 159.692 143.794 159.825 144.207 160.113C144.619 160.402 144.916 160.828 145.043 161.315H145.269C145.324 160.826 145.455 160.349 145.655 159.9C145.252 159.575 144.788 159.334 144.291 159.19C143.794 159.047 143.273 159.004 142.759 159.064C141.983 159.125 141.256 159.464 140.712 160.02C140.168 160.576 139.843 161.31 139.799 162.087C139.818 162.83 140.08 163.547 140.545 164.127C141.01 164.708 141.652 165.121 142.373 165.303C143.306 165.689 144.818 166.171 144.818 167.65C144.822 167.928 144.772 168.203 144.668 168.46C144.565 168.718 144.412 168.952 144.217 169.149C144.023 169.347 143.791 169.504 143.535 169.611C143.279 169.718 143.004 169.773 142.727 169.773C142.165 169.795 141.61 169.638 141.142 169.327C140.674 169.015 140.317 168.563 140.121 168.036H139.895C139.873 168.565 139.764 169.086 139.574 169.58C140.497 170.267 141.647 170.577 142.791 170.448C143.227 170.47 143.663 170.403 144.072 170.251C144.481 170.099 144.855 169.866 145.171 169.565C145.487 169.264 145.739 168.902 145.91 168.501C146.082 168.1 146.17 167.668 146.17 167.232C146.17 165.174 144.4 164.595 143.177 164.016" fill="#4F5053"/>
<path d="M197.359 159.803C197.964 159.783 198.566 159.897 199.123 160.136C199.679 160.375 200.175 160.733 200.577 161.186C200.642 160.772 200.773 160.37 200.963 159.996C199.759 159.501 198.468 159.25 197.166 159.256C195.707 159.256 194.308 159.836 193.276 160.867C192.244 161.899 191.665 163.297 191.665 164.756C191.665 166.214 192.244 167.613 193.276 168.644C194.308 169.676 195.707 170.255 197.166 170.255C198.384 170.284 199.59 170.007 200.673 169.451C200.607 169.079 200.607 168.698 200.673 168.326C199.7 169.204 198.445 169.706 197.134 169.741C196.544 169.71 195.966 169.558 195.437 169.294C194.908 169.031 194.439 168.661 194.059 168.209C193.679 167.757 193.396 167.231 193.227 166.664C193.059 166.098 193.009 165.503 193.08 164.917C193.08 162.698 194.239 159.964 197.07 159.964" fill="#4F5053"/>
<path d="M213.736 169.226C213.736 167.65 213.736 166.171 213.736 164.724C215.054 164.652 216.376 164.652 217.694 164.724C217.661 164.414 217.661 164.101 217.694 163.791C216.376 163.861 215.055 163.861 213.736 163.791C213.736 162.537 213.736 161.282 213.736 159.932C215.122 159.874 216.51 159.928 217.887 160.093C217.838 159.784 217.838 159.469 217.887 159.16C215.99 159.273 214.089 159.273 212.192 159.16C212.192 163.534 212.192 165.946 212.192 169.741C214.026 169.741 216.793 169.741 218.176 169.741C218.096 169.435 218.096 169.114 218.176 168.808C216.703 168.984 215.219 169.049 213.736 169.001" fill="#4F5053"/>
<path d="M262.577 165.206C261.773 165.206 260.711 164.691 260.711 162.504C260.711 160.317 261.934 159.642 262.738 159.642C263.543 159.642 264.315 159.931 264.733 161.539C265.151 163.147 263.961 165.206 262.577 165.206ZM262.577 159.063C262.119 159.034 261.66 159.104 261.231 159.267C260.802 159.43 260.413 159.683 260.09 160.009C259.767 160.335 259.518 160.727 259.358 161.157C259.199 161.587 259.134 162.047 259.167 162.504C259.133 162.935 259.193 163.368 259.343 163.774C259.492 164.179 259.728 164.548 260.034 164.853C260.34 165.159 260.708 165.395 261.114 165.544C261.52 165.694 261.953 165.754 262.384 165.72C262.898 165.69 263.397 165.537 263.839 165.274C264.282 165.011 264.654 164.645 264.926 164.209C264.926 168.582 262.931 169.579 261.902 169.579C261.264 169.553 260.662 169.276 260.229 168.808C260.374 169.144 260.461 169.503 260.486 169.869C260.985 170.026 261.507 170.102 262.03 170.094C264.025 170.094 266.471 168.261 266.471 164.016C266.471 159.771 264.54 158.87 262.803 158.87" fill="#4F5053"/>
<path d="M298.645 165.206C297.809 165.206 296.747 164.691 296.747 162.505C296.747 160.318 297.97 159.642 298.774 159.642C299.578 159.642 300.383 159.932 300.769 161.54C301.155 163.148 299.997 165.206 298.645 165.206ZM298.645 159.063C298.187 159.035 297.728 159.104 297.299 159.267C296.87 159.431 296.481 159.684 296.158 160.01C295.835 160.336 295.586 160.727 295.426 161.157C295.267 161.588 295.202 162.047 295.235 162.505C295.186 163.188 295.369 163.869 295.754 164.436C296.139 165.004 296.703 165.425 297.357 165.633C298.011 165.841 298.715 165.823 299.357 165.582C300 165.342 300.542 164.892 300.898 164.305C300.898 168.679 298.903 169.676 297.873 169.676C297.239 169.637 296.642 169.362 296.2 168.904C296.361 169.236 296.449 169.598 296.458 169.966C296.957 170.123 297.478 170.199 298.002 170.191C299.997 170.191 302.474 168.358 302.474 164.113C302.474 159.867 300.479 158.967 298.774 158.967" fill="#4F5053"/>
<path d="M280.821 163.534C280.248 163.504 279.679 163.638 279.18 163.92C279.122 162.849 279.122 161.775 279.18 160.704C280.688 160.541 282.209 160.541 283.717 160.704C283.619 160.27 283.619 159.819 283.717 159.385C281.918 159.53 280.11 159.53 278.311 159.385C278.499 161.181 278.499 162.992 278.311 164.788H278.504C279.065 164.332 279.777 164.103 280.499 164.145C281.086 164.217 281.621 164.518 281.988 164.981C282.355 165.444 282.525 166.034 282.462 166.621C282.462 168.229 281.529 169.451 280.177 169.451C279.715 169.455 279.257 169.36 278.835 169.171C278.413 168.982 278.037 168.705 277.732 168.358C277.735 168.687 277.645 169.01 277.475 169.291C278.354 169.831 279.37 170.11 280.403 170.095C280.876 170.112 281.348 170.035 281.792 169.87C282.235 169.705 282.642 169.454 282.989 169.131C283.336 168.809 283.615 168.421 283.812 167.99C284.008 167.56 284.118 167.094 284.135 166.621C284.135 165.768 283.796 164.95 283.192 164.347C282.589 163.744 281.771 163.405 280.917 163.405" fill="#4F5053"/>
</svg>
