<svg width="15" height="14" viewBox="0 0 15 14" fill="#4F5053" xmlns="http://www.w3.org/2000/svg">
<path d="M13.7426 6.49301L7.0822 3.08869C6.94706 3.01969 6.79577 2.98995 6.64642 3.003C6.49708 3.01605 6.35599 3.07135 6.24002 3.16229C6.12406 3.25323 6.03813 3.37596 5.9925 3.51581C5.94687 3.65566 5.94347 3.80671 5.98271 3.95091L6.51008 5.87915L0.769018 5.80011C0.562184 5.79767 0.365218 5.87601 0.22114 6.01803C0.0770633 6.16005 -0.00241729 6.35419 5.60429e-05 6.55807L0.012623 7.38756C0.0137427 7.48943 0.035315 7.59068 0.0761001 7.68547C0.116885 7.78025 0.176075 7.86669 0.250252 7.93981C0.324429 8.01292 0.412125 8.07127 0.508285 8.11147C0.604445 8.15167 0.707166 8.17294 0.810517 8.17404L6.54067 8.26384L6.04919 10.1662C6.01313 10.311 6.02105 10.4643 6.072 10.6073C6.12294 10.7503 6.21469 10.8768 6.336 10.9713C6.4573 11.0658 6.60289 11.1241 6.75491 11.1391C6.90693 11.1542 7.05878 11.1252 7.19183 11.0559L13.7858 7.87945C13.9154 7.81583 14.0231 7.7171 14.0968 7.59449C14.1705 7.47188 14.2072 7.33031 14.2027 7.18587C14.1982 7.04144 14.1527 6.89993 14.0714 6.77745C13.9901 6.65496 13.8762 6.55641 13.7426 6.49301Z" />
</svg>
