<svg width="116" height="168" viewBox="0 0 116 168" fill="none" xmlns="http://www.w3.org/2000/svg">
<path fill-rule="evenodd" clip-rule="evenodd" d="M69.9823 5.60238C66.3329 3.17125 62.0431 1.87557 57.6559 1.87929C51.7799 1.87929 46.1446 4.20969 41.9897 8.35785C37.8347 12.506 35.5005 18.1321 35.5005 23.9985C35.4968 28.3786 36.7946 32.6613 39.2297 36.3047C41.6648 39.9482 45.1277 42.7886 49.1803 44.4665C53.2329 46.1444 57.6929 46.5844 61.996 45.7308C66.2992 44.8772 70.252 42.7684 73.3542 39.6712C76.4565 36.574 78.5687 32.6277 79.4237 28.3316C80.2787 24.0355 79.838 19.5827 78.1574 15.5367C76.4767 11.4908 73.6317 8.0335 69.9823 5.60238ZM44.2888 4.04895C48.2453 1.40907 52.8971 0 57.6559 0C64.0313 0.00496876 70.1444 2.53437 74.6543 7.03334C79.1642 11.5323 81.7025 17.6335 81.7124 23.9985C81.7161 28.7494 80.3084 33.3948 77.6673 37.3469C75.4841 40.6137 72.5393 43.2856 69.1011 45.1422V52.2066H80.772C81.0198 52.2052 81.2654 52.2526 81.4947 52.3461C81.7241 52.4397 81.9326 52.5775 82.1085 52.7516L114.767 85.376C115.122 85.723 115.325 86.1958 115.332 86.6915V132.828C115.331 133.077 115.281 133.323 115.184 133.552C115.087 133.781 114.945 133.988 114.767 134.162L82.1085 166.787C81.7478 167.13 81.2704 167.325 80.772 167.332H34.5601C34.0617 167.325 33.5844 167.13 33.2237 166.787L0.564699 134.162C0.386839 133.988 0.245344 133.781 0.148409 133.552C0.0514742 133.323 0.00103389 133.077 0 132.828V86.6915C0.00707212 86.1958 0.210036 85.723 0.564699 85.376L33.2237 52.7516C33.3995 52.5775 33.6081 52.4397 33.8375 52.3461C34.0668 52.2526 34.3124 52.2052 34.5601 52.2066H46.2869V45.1832C44.2253 44.0795 42.3248 42.6755 40.652 41.0067C37.2857 37.6486 34.9927 33.3691 34.063 28.7097C33.1332 24.0503 33.6085 19.2203 35.4287 14.8306C37.2489 10.4409 40.3323 6.68883 44.2888 4.04895ZM48.1693 52.2066H67.2188V46.0554C67.1046 46.1048 66.99 46.1533 66.875 46.2009C62.4795 48.0216 57.642 48.4999 52.9742 47.5753C51.3166 47.247 49.7069 46.747 48.1693 46.0882V52.2066ZM57.0733 64.8917L89.0735 77.6145L102.608 109.243L89.864 141.191L58.2592 154.74L26.2591 142.018L12.6685 110.464L25.412 78.5166L57.0169 64.9481L57.0733 64.8917ZM57.0733 63.0125L57.0425 63.0132L57.0169 63.0125H57.0733ZM57.0425 63.0132C56.795 63.0211 56.5507 63.0717 56.3204 63.1628L24.7156 76.7312C24.2591 76.9304 23.9004 77.3021 23.7179 77.7648L10.9744 109.713C10.8786 109.942 10.8293 110.188 10.8293 110.436C10.8293 110.685 10.8786 110.931 10.9744 111.16L24.565 142.713C24.7645 143.169 25.1368 143.527 25.6003 143.709L57.6004 156.432C57.8213 156.522 58.0582 156.567 58.2969 156.563C58.5555 156.565 58.8119 156.514 59.0498 156.413L90.6546 142.863C91.1054 142.656 91.4615 142.287 91.6523 141.83L104.396 109.882C104.584 109.424 104.584 108.911 104.396 108.454L90.7487 76.8816C90.652 76.6525 90.5107 76.4448 90.333 76.2706C90.1553 76.0964 89.9447 75.9591 89.7134 75.8668L57.7133 63.144C57.4979 63.0655 57.2715 63.0214 57.0425 63.0132ZM113.45 86.6915L80.772 54.0859H34.5601L1.88236 86.6915V132.828L34.5601 165.452H80.772L113.45 132.828V86.6915Z" fill="#4F5053"/>
<path opacity="0.2" fill-rule="evenodd" clip-rule="evenodd" d="M65.7313 2.25513C69.5037 5.98174 71.8744 10.8926 72.4439 16.1603C73.0135 21.4281 71.747 26.7308 68.858 31.1753C65.969 35.6198 61.634 38.9344 56.5832 40.5607C51.5323 42.187 46.0744 42.0257 41.1288 40.1039C43.5636 42.528 46.5098 44.3787 49.7524 45.521C52.9951 46.6632 56.4522 47.0683 59.8716 46.7065C63.291 46.3447 66.5863 45.2253 69.5171 43.4299C72.4479 41.6344 74.9402 39.2084 76.812 36.3287C78.6839 33.449 79.8881 30.1884 80.3367 26.7848C80.7854 23.3812 80.4672 19.9206 79.4054 16.6554C78.3435 13.3903 76.5649 10.403 74.1992 7.9117C71.8335 5.42038 68.9405 3.48784 65.7313 2.25513ZM102.984 108.096L89.4118 76.5433C89.3146 76.3148 89.1324 76.1329 88.9035 76.0359L56.9034 63.3131C56.7913 63.2934 56.6767 63.2934 56.5646 63.3131C56.4407 63.2849 56.312 63.2849 56.1881 63.3131L53.2705 64.5722L79.6235 75.0774C79.8523 75.1745 80.0345 75.3564 80.1317 75.5848L93.7036 107.138C93.7545 107.25 93.7809 107.372 93.7809 107.495C93.7809 107.618 93.7545 107.74 93.7036 107.852L80.96 139.8C80.8628 140.028 80.6806 140.21 80.4517 140.307L51.7834 152.617L57.2987 154.816C57.4164 154.842 57.5386 154.842 57.6564 154.816C57.7812 154.833 57.908 154.833 58.0328 154.816L89.8071 141.191C89.9198 141.145 90.0216 141.076 90.1059 140.989C90.1902 140.902 90.2551 140.797 90.2965 140.683L103.059 108.735C103.102 108.52 103.076 108.296 102.984 108.096ZM81.2052 53.8793L113.864 86.5037C113.972 86.5785 114.062 86.6764 114.127 86.7902C114.192 86.9039 114.231 87.0308 114.241 87.1614V133.298C114.242 133.421 114.218 133.543 114.169 133.657C114.121 133.77 114.049 133.872 113.958 133.956L81.2994 166.58C81.2118 166.671 81.1064 166.743 80.9898 166.791C80.8733 166.84 80.748 166.864 80.6217 166.862H34.4286C34.3024 166.864 34.177 166.84 34.0605 166.791C33.9439 166.743 33.8386 166.671 33.751 166.58L32.6215 165.452H33.3368L28.3862 160.604H77.7794L105.864 132.546C105.955 132.462 106.026 132.36 106.075 132.247C106.124 132.134 106.148 132.012 106.147 131.888V85.7519C106.148 85.6287 106.124 85.5065 106.075 85.3932C106.026 85.28 105.955 85.1781 105.864 85.0942L74.3346 53.6162H80.5276C80.779 53.6137 81.0216 53.7079 81.2052 53.8793Z" fill="#4F5053"/>
<path fill-rule="evenodd" clip-rule="evenodd" d="M48.3948 15.5605C45.3077 19.0559 41.5242 20.7849 39.9806 19.319C38.4371 17.8532 39.6795 14.0195 42.7853 10.5052C45.8912 6.99092 49.656 5.28077 51.1995 6.74662C52.743 8.21246 51.4065 12.065 48.3948 15.5605ZM29.5713 137.113C28.9874 137.117 28.4171 136.937 27.9409 136.6C27.4646 136.263 27.1065 135.785 26.9172 135.233L17.8065 109.562C17.562 108.921 17.562 108.212 17.8065 107.57L28.1595 81.8805C28.2985 81.5302 28.5068 81.2115 28.772 80.9435C29.0372 80.6755 29.3539 80.4637 29.7031 80.3207L48.8467 72.4841C49.5406 72.2025 50.3182 72.2076 51.0083 72.4984C51.6984 72.7891 52.2446 73.3417 52.5267 74.0345C52.8087 74.7273 52.8036 75.5036 52.5124 76.1926C52.2211 76.8816 51.6676 77.4269 50.9737 77.7085L32.9407 85.0941L23.416 108.679L32.1501 133.354C32.2756 133.703 32.3308 134.074 32.3125 134.444C32.2943 134.815 32.203 135.178 32.0439 135.513C31.8847 135.848 31.6609 136.149 31.3852 136.398C31.1095 136.646 30.7873 136.838 30.4372 136.962C30.1586 137.059 29.8662 137.11 29.5713 137.113ZM69.5105 58.3526C69.803 58.0571 69.967 57.6584 69.967 57.2429C69.967 56.8292 69.8024 56.4325 69.5094 56.14C69.2164 55.8475 68.819 55.6831 68.4046 55.6831H36.7057C36.2913 55.6831 35.8939 55.8475 35.6009 56.14C35.3079 56.4325 35.1433 56.8292 35.1433 57.2429C35.1433 57.6584 35.3073 58.0571 35.5998 58.3526C35.8922 58.6481 36.2896 58.8166 36.7057 58.8215H68.4046C68.8207 58.8166 69.2181 58.6481 69.5105 58.3526Z" fill="white"/>
</svg>
