<svg width="181" height="264" viewBox="0 0 181 264" fill="none" xmlns="http://www.w3.org/2000/svg">
<path opacity="0.2" fill-rule="evenodd" clip-rule="evenodd" d="M113.718 29.9158C113.455 28.7518 112.834 27.6995 111.942 26.9061C105.472 21.1577 96.6532 13.2724 85.7583 3.4911C84.7042 2.5577 83.3441 2.04365 81.9361 2.04647C81.0015 2.03632 80.0797 2.26418 79.2575 2.70859C78.806 2.94936 78.3847 3.22023 77.9332 3.52119C78.4116 3.72665 78.8577 4.00036 79.2575 4.3338C88.8583 12.9715 96.6232 19.9237 102.341 25.01C103.123 25.6983 103.671 26.6138 103.906 27.6284C105.163 33.0051 105.789 38.5096 105.772 44.031C105.772 67.8072 94.9377 86.4068 81.1235 86.4068C75.1042 86.4068 69.4159 82.7049 65.1423 76.505C70.1684 88.5436 78.3847 96.4289 87.8952 96.4289C93.1793 96.4289 98.0757 94.0272 102.244 89.8099L101.108 91.3009C101.108 91.3009 102.034 94.7908 101.719 96.5687C101.403 98.3466 100.574 99.9931 99.3329 101.305C100.968 103.001 101.875 105.269 101.861 107.625C101.864 109.988 99.3329 113.975 99.3329 113.975H105.864C105.864 113.975 108.383 109.985 108.392 107.625C108.387 105.273 107.483 103.011 105.864 101.305C107.107 99.9912 107.937 98.342 108.251 96.5613C108.566 94.7806 108.351 92.9467 107.633 91.287C107.028 89.8889 105.016 87.9632 104.397 87.3909C111.351 78.7489 115.795 64.6611 115.795 48.4552C115.816 42.2161 115.12 35.9953 113.718 29.9158ZM155.232 111.434C155.424 111.522 155.595 111.65 155.734 111.808C165.267 122.254 172.172 134.823 175.877 148.471C179.583 162.119 179.981 176.454 177.038 190.287C174.096 204.119 167.899 217.051 158.96 228.01C150.021 238.969 138.599 247.639 125.64 253.301C112.68 258.964 98.558 261.455 84.4437 260.568C70.3293 259.682 56.6297 255.444 44.4808 248.205C32.3318 240.966 22.0836 230.935 14.5861 218.943C7.08865 206.952 2.55784 193.346 1.36945 179.254C4.24418 191.089 9.70651 202.14 17.3634 211.611C25.0203 221.082 34.6814 228.738 45.6515 234.028C56.6215 239.318 68.6279 242.111 80.8066 242.205C92.9852 242.3 105.033 239.693 116.084 234.574C127.135 229.454 136.913 221.949 144.716 212.598C152.519 203.246 158.152 192.282 161.21 180.493C164.267 168.704 164.674 156.384 162.4 144.419C160.126 132.454 155.229 121.142 148.059 111.297H154.62C154.832 111.299 155.04 111.346 155.232 111.434Z" fill="white"/>
<path fill-rule="evenodd" clip-rule="evenodd" d="M82.4483 3.06984C83.493 3.06777 84.5013 3.45391 85.2773 4.15331C94.4221 12.3861 102.117 19.2544 108.183 24.6683L108.187 24.6722L108.206 24.6895C109.338 25.7 110.414 26.6598 111.431 27.5683C112.086 28.136 112.549 28.8932 112.755 29.7353C114.136 35.7261 114.823 41.856 114.802 48.0038C114.802 74.0372 103.215 94.4426 88.4074 94.4426C73.6 94.4426 61.9827 74.0372 61.9827 48.0038C61.9827 27.2674 69.4165 9.42018 80.4619 3.55138C81.0757 3.23369 81.7571 3.06852 82.4483 3.06984ZM82.4483 0.0601928C81.273 0.0638489 80.1162 0.353046 79.0775 0.902893C67.0389 7.25324 58.9731 26.1839 58.9731 48.0038C58.9731 64.0878 63.3102 78.135 70.1851 87.0937C69.4952 87.8296 68.9091 88.6624 68.4474 89.5699C67.5459 91.3416 67.1536 93.3286 67.3142 95.3099C67.4747 97.2913 68.1818 99.1892 69.3567 100.793C68.0094 102.63 67.2829 104.849 67.2829 107.128C67.2829 108.394 67.5071 109.641 67.9373 110.815H25.898C25.4803 110.812 25.0665 110.896 24.6831 111.062C24.2996 111.228 23.9549 111.472 23.6708 111.778C11.8368 124.738 4.02613 140.858 1.1898 158.177C-1.64653 175.496 0.613908 193.266 7.69588 209.324C14.7778 225.381 26.3757 239.033 41.0774 248.617C55.7791 258.201 72.9503 263.304 90.5 263.304C108.05 263.304 125.221 258.201 139.923 248.617C154.624 239.033 166.222 225.381 173.304 209.324C180.386 193.266 182.647 175.496 179.81 158.177C176.974 140.858 169.163 124.738 157.329 111.778C157.048 111.475 156.709 111.234 156.331 111.068C155.953 110.902 155.545 110.816 155.132 110.815H109.39C109.82 109.641 110.044 108.394 110.044 107.128C110.044 104.849 109.318 102.63 107.97 100.793C109.145 99.1892 109.852 97.2913 110.013 95.3099C110.173 93.3286 109.781 91.3416 108.88 89.5699C108.351 88.5316 107.66 87.5911 106.837 86.7817C113.576 77.7946 117.812 63.856 117.812 47.9436C117.83 41.5622 117.113 35.2 115.675 28.9829C115.339 27.5375 114.56 26.2329 113.448 25.2509C106.977 19.5025 98.1586 11.6172 87.2637 1.86598C85.9464 0.666859 84.2296 0.00159019 82.4483 0V0.0601928ZM104.852 89.2044C100.194 94.3939 94.556 97.3921 88.4074 97.3921C82.3258 97.3921 76.7399 94.4671 72.1063 89.3918C71.451 90.1678 70.951 91.0699 70.6411 92.0498C70.1435 93.6235 70.1623 95.315 70.6947 96.8772C71.2271 98.4393 72.2451 99.7903 73.6002 100.732C72.5759 101.441 71.7387 102.388 71.1605 103.492C70.5823 104.595 70.2803 105.822 70.2803 107.068C70.2803 108.313 70.5823 109.541 71.1605 110.644C71.1906 110.701 71.2214 110.758 71.2529 110.815H105.957C105.977 110.778 105.996 110.741 106.016 110.704C106.594 109.601 106.896 108.374 106.896 107.128C106.896 105.882 106.594 104.655 106.016 103.552C105.438 102.448 104.601 101.502 103.576 100.793C104.931 99.8505 105.949 98.4995 106.482 96.9373C107.014 95.3752 107.033 93.6836 106.535 92.11C106.192 91.024 105.615 90.0335 104.852 89.2044ZM155.132 113.825C166.57 126.354 174.117 141.939 176.857 158.681C179.597 175.423 177.41 192.6 170.562 208.122C163.715 223.644 152.503 236.84 138.291 246.104C124.079 255.367 107.48 260.3 90.5151 260.3C73.5503 260.3 56.9514 255.367 42.7393 246.104C28.5272 236.84 17.315 223.644 10.4677 208.122C3.62044 192.6 1.43341 175.423 4.17299 158.681C6.91258 141.939 14.4606 126.354 25.898 113.825H155.132Z" fill="white"/>
<path fill-rule="evenodd" clip-rule="evenodd" d="M75.7382 45.7165C75.7382 54.7455 73.21 61.9987 70.3509 61.9686C67.4917 61.9385 65.2646 54.595 65.385 45.5661C65.5054 36.5371 67.9131 29.314 70.7723 29.3441C73.6314 29.3742 75.8585 36.7177 75.7382 45.7165ZM81.6365 105.638C81.6365 106.301 81.3733 106.936 80.9048 107.405C80.4364 107.873 79.801 108.136 79.1385 108.136H75.1357C74.4703 108.137 73.8319 107.874 73.3586 107.407C72.8853 106.939 72.6155 106.304 72.6076 105.638C72.6154 104.97 72.8842 104.332 73.3567 103.859C73.8291 103.387 74.4676 103.118 75.1357 103.11H79.1385C79.8038 103.118 80.4391 103.388 80.9067 103.861C81.3743 104.335 81.6365 104.973 81.6365 105.638ZM29.2088 119.422H62.014C62.6026 119.445 63.1603 119.691 63.574 120.11C63.9877 120.53 64.2262 121.091 64.2411 121.68C64.2293 122.204 64.0375 122.709 63.6977 123.109C63.358 123.509 62.891 123.78 62.3751 123.877L34.8971 130.257C16.0868 146.66 13.8296 183.618 13.8296 184.009C13.7856 184.577 13.5342 185.108 13.1234 185.502C12.7127 185.897 12.1713 186.126 11.6025 186.146C11.0456 186.153 10.5048 185.959 10.0793 185.6C9.6537 185.241 9.37173 184.74 9.28498 184.19C4.46067 150.57 26.2179 121.812 27.3294 120.343L27.3428 120.325C27.5655 120.044 27.8491 119.816 28.1723 119.66C28.4955 119.503 28.8498 119.422 29.2088 119.422Z" fill="white"/>
</svg>
