<svg width="176" height="167" viewBox="0 0 176 167" fill="none" xmlns="http://www.w3.org/2000/svg">
<path fill-rule="evenodd" clip-rule="evenodd" d="M29.7209 10.1858L56.8776 19.2142L60.8309 22.0635C60.9526 22.1528 61.0377 22.2833 61.0705 22.4307C61.1032 22.578 61.0813 22.7323 61.0089 22.8648C60.9584 22.9677 60.8797 23.0541 60.7819 23.114C60.6842 23.1739 60.5715 23.2048 60.4569 23.2031H60.2432L28.1004 12.5186C26.5771 12.0103 25.3171 10.9192 24.5962 9.4841C23.8753 8.04903 23.7523 6.38685 24.254 4.86128C24.595 3.81102 25.2097 2.87058 26.0348 2.13672C25.8923 2.27917 25.8923 2.40382 25.8923 2.52846V2.52849C25.6386 3.28255 25.5365 4.07932 25.5918 4.87299C25.647 5.66667 25.8587 6.44158 26.2145 7.15318C26.5703 7.86479 27.0632 8.49905 27.665 9.01948C28.2668 9.53992 28.9655 9.93629 29.7209 10.1858ZM102.749 26.055V29.0111L115.393 29.7919C116.165 29.8383 116.952 29.8713 117.745 29.9045C122.435 30.101 127.357 30.3071 131.028 33.3535C132.913 35.0024 134.326 37.1226 135.123 39.4971C135.683 41.088 136.024 42.7473 136.139 44.4298C136.182 45.2418 136.158 46.0567 136.134 46.8711V46.8715V46.8717V46.8718V46.8719V46.8721V46.8722V46.8724V46.8725C136.1 48.0756 136.065 49.2774 136.245 50.4666C136.703 53.6047 138.071 56.5395 140.181 58.9074C141.807 60.6339 143.796 61.9781 146.004 62.8429C146.551 65.7816 147.99 68.4801 150.127 70.5707C152.263 72.6613 154.992 74.0421 157.942 74.525C160.892 75.0079 163.919 74.5693 166.611 73.2691C169.302 71.9688 171.527 69.8701 172.982 67.2592C171.608 68.7255 169.944 69.8897 168.095 70.6776C166.246 71.4655 164.254 71.8599 162.244 71.8357C158.86 71.827 155.586 70.6375 152.985 68.4723C150.384 66.3072 148.62 63.3022 147.998 59.9758C145.798 59.1139 143.816 57.7761 142.193 56.0582C140.083 53.6908 138.714 50.7557 138.258 47.6174C138.115 45.6084 138.079 43.5933 138.151 41.5806C138.038 39.8978 137.697 38.2383 137.136 36.6478C136.348 34.2687 134.933 32.1463 133.04 30.5042C129.26 27.3674 124.127 27.1867 119.33 27.0179C118.681 26.9951 118.038 26.9724 117.405 26.9427L102.749 26.055ZM59.3881 37.9654H59.2634L56.7525 38.4462L30.0411 53.369C28.6403 54.1485 26.9876 54.3407 25.4453 53.9034C23.903 53.4661 22.5971 52.435 21.814 51.0362C21.5037 50.4802 21.2814 49.8795 21.1551 49.2554C20.8765 50.6613 21.1102 52.1205 21.814 53.369C22.3459 54.3161 23.1222 55.1032 24.0618 55.6481C25.0014 56.1931 26.0701 56.4761 27.1563 56.4675C28.1873 56.467 29.2002 56.1969 30.0945 55.684L59.6374 39.1585C59.7679 39.0808 59.8676 38.9603 59.9195 38.8176C59.9715 38.6748 59.9724 38.5184 59.9223 38.375C59.88 38.2639 59.8076 38.1668 59.7133 38.0944C59.6189 38.0221 59.5063 37.9774 59.3881 37.9654ZM52.3184 28.7946L59.851 29.596C60.007 29.6263 60.1455 29.7151 60.2382 29.8442C60.3309 29.9733 60.3707 30.1329 60.3496 30.2904C60.3468 30.4477 60.2878 30.5988 60.1833 30.7164C60.0788 30.834 59.9357 30.9103 59.7798 30.9315L7.81716 36.167H7.2117C6.04317 36.1744 4.89806 35.8395 3.9177 35.2036C2.93733 34.5676 2.16463 33.6586 1.69496 32.5886C1.2253 31.5186 1.07923 30.3345 1.27478 29.1824C1.47034 28.0303 1.99897 26.9607 2.79541 26.1056C2.70556 26.666 2.70556 27.2371 2.79541 27.7974C2.95385 29.2676 3.65111 30.6271 4.75271 31.6136C5.85432 32.6001 7.28221 33.1438 8.76096 33.1397H9.36642L52.3184 28.7946ZM120.646 57.8746C128.261 64.3852 134.169 72.659 137.855 81.9753C141.541 91.2915 142.894 101.368 141.795 111.326C140.696 121.285 137.178 130.824 131.549 139.112C125.92 147.4 118.35 154.186 109.498 158.879C109.399 158.904 109.295 158.904 109.196 158.879H52.1222C52.0231 158.906 51.9187 158.906 51.8195 158.879L50.9647 158.416C54.4142 161.37 58.1761 163.938 62.1835 166.074C62.2827 166.1 62.3871 166.1 62.4863 166.074H119.595C119.694 166.1 119.799 166.1 119.898 166.074C129.691 160.871 137.894 153.117 143.64 143.632C149.386 134.148 152.46 123.286 152.536 112.197C152.613 101.108 149.689 90.2052 144.075 80.6422C138.461 71.0792 130.366 63.2123 120.646 57.8746ZM137.492 123.816C137.635 123.817 137.773 123.867 137.884 123.958C137.982 124.03 138.058 124.129 138.102 124.243C138.146 124.356 138.157 124.48 138.133 124.599C136.317 130.832 133.274 136.638 129.182 141.678C125.09 146.717 120.033 150.889 114.307 153.946C114.207 153.973 114.103 153.973 114.004 153.946H69.1464C69.053 153.97 68.9549 153.97 68.8615 153.946C66.8942 152.891 65.0022 151.701 63.1987 150.385H107.201C107.3 150.411 107.405 150.411 107.504 150.385C116.919 145.35 124.425 137.368 128.873 127.662C131.752 126.675 134.531 125.417 137.172 123.905C137.27 123.851 137.38 123.82 137.492 123.816ZM78.9054 39.1945V35.3123L97.2472 35.3302V19.4992C97.2418 18.0758 96.7654 16.6943 95.8925 15.5701C95.0195 14.4458 93.799 13.6421 92.4213 13.2843H96.1075C97.8125 13.2843 99.4476 13.9616 100.653 15.1672C101.859 16.3728 102.536 18.0079 102.536 19.7129V35.3302H102.75V39.1945H78.9054ZM109.659 41.1352C109.66 40.6675 109.606 40.2013 109.498 39.7462C110.644 40.1733 111.631 40.9421 112.325 41.9486C113.02 42.9551 113.388 44.1507 113.38 45.3735V55.4882C113.38 57.0703 112.752 58.5877 111.633 59.7065C110.514 60.8252 108.997 61.4537 107.415 61.4537H74.1324C72.7928 61.4483 71.4935 60.9948 70.4415 60.1654C69.3894 59.336 68.6452 58.1785 68.3272 56.8772C68.9678 57.1048 69.6417 57.2252 70.3216 57.2333H103.693C105.277 57.2286 106.794 56.5961 107.912 55.4746C109.031 54.353 109.659 52.8338 109.659 51.25V41.1352Z" fill="#4F5053"/>
<path fill-rule="evenodd" clip-rule="evenodd" d="M29.5065 1.35339C29.5536 1.35269 29.6006 1.35262 29.6477 1.35318L29.6489 1.35339H29.5065ZM29.6477 1.35318C30.2056 1.35989 30.7592 1.45607 31.2872 1.63832C31.8292 1.81983 32.3398 2.08414 32.8009 2.42186L60.0287 22.5979L27.8682 11.9133C26.4679 11.6772 25.2187 10.8944 24.3955 9.73726C23.5723 8.5801 23.2425 7.1433 23.4786 5.74297C23.7147 4.34263 24.4975 3.09347 25.6547 2.27027C26.8115 1.44731 28.2477 1.11745 29.6477 1.35318ZM29.5065 0.0890404C27.9179 0.0841527 26.3796 0.645782 25.1678 1.67305C23.956 2.70031 23.1501 4.12594 22.8948 5.69392C22.6396 7.2619 22.9517 8.8695 23.7751 10.2281C24.5985 11.5867 25.8792 12.6072 27.3874 13.1064L59.5479 23.791C59.6833 23.8166 59.8222 23.8166 59.9575 23.791C60.2221 23.7838 60.478 23.6949 60.69 23.5365C60.9021 23.3781 61.0599 23.1579 61.1419 22.9063C61.2238 22.6546 61.2259 22.3837 61.1477 22.1308C61.0696 21.8779 60.9151 21.6554 60.7054 21.4938L33.4776 1.31777C32.3322 0.458732 30.9382 -0.00383857 29.5065 2.39946e-05V0.0890404ZM103.444 29.8135L115.625 30.5577L117.922 30.6823C122.57 30.8782 127.306 31.0919 130.868 34.048C132.684 35.6139 134.039 37.6457 134.786 39.9245C135.336 41.4549 135.666 43.0558 135.765 44.6791V47.0297C135.691 48.2834 135.733 49.5411 135.89 50.7871C136.251 53.5859 137.351 56.2383 139.075 58.4724C140.799 60.7066 143.086 62.4423 145.702 63.5018C146.427 66.9044 148.297 69.9556 150.999 72.1462C153.702 74.3369 157.074 75.5347 160.553 75.5397L160.571 75.5754C164.609 75.5754 168.482 73.9713 171.337 71.1159C174.192 68.2606 175.796 64.3879 175.796 60.3498C175.796 56.3118 174.192 52.4391 171.337 49.5838C168.482 46.7285 164.609 45.1243 160.571 45.1243C157.822 45.1083 155.121 45.8449 152.76 47.2543C150.4 48.6637 148.47 50.6922 147.18 53.1199C145.399 51.1789 145.399 48.7215 145.399 46.1216V45.4093C145.405 42.1502 144.801 38.9189 143.618 35.8822C141.796 31.0447 138.371 26.9781 133.913 24.3606C130.606 22.5147 126.907 21.483 123.122 21.3511L119.56 21.1197L103.444 20.1327V19.4101C103.444 17.521 102.693 15.7092 101.357 14.3734C100.022 13.0376 98.2099 12.2871 96.3208 12.2871V12.4296H85.3334C83.4443 12.4296 81.6325 13.18 80.2967 14.5158C78.9609 15.8517 78.2104 17.6635 78.2104 19.5526V38.5533H74.1859C72.4351 38.558 70.7574 39.2556 69.5195 40.4936C68.2815 41.7315 67.5839 43.4092 67.5792 45.16V54.355C62.234 56.5112 57.1795 59.4148 52.576 63.0107C41.6491 71.5459 33.8912 83.4908 30.5371 96.9443C27.1829 110.398 28.4253 124.587 34.0664 137.252C39.7075 149.918 49.4232 160.333 61.6671 166.84C61.8517 166.944 62.0603 167 62.2726 167H119.382C119.594 167 119.803 166.944 119.987 166.84C132.23 160.334 141.945 149.921 147.586 137.256C153.227 124.592 154.471 110.405 151.119 96.9529C147.767 83.5004 140.013 71.5555 129.089 63.0189C124.482 59.4192 119.424 56.5128 114.075 54.355V45.16C114.07 43.4092 113.373 41.7315 112.135 40.4936C110.897 39.2556 109.219 38.558 107.468 38.5533H103.444V29.8135ZM102.108 38.5533V19.4814C102.104 17.9479 101.492 16.4785 100.408 15.3942C99.3236 14.3098 97.8543 13.6986 96.3208 13.6939L85.3334 13.6227C83.7999 13.6274 82.3306 14.2386 81.2463 15.323C80.1619 16.4073 79.5507 17.8767 79.546 19.4101V38.5533H102.108ZM114.057 55.7444C113.941 57.3233 113.261 58.8143 112.135 59.9411C110.897 61.179 109.219 61.8766 107.468 61.8813H95.9645V126.773C101.262 128.403 107.252 129.568 113.559 129.568C121.801 129.613 129.91 127.481 137.065 123.389C137.247 123.276 137.456 123.215 137.67 123.211C138.006 123.211 138.327 123.344 138.564 123.581C138.801 123.818 138.935 124.14 138.935 124.475C138.961 124.61 138.961 124.749 138.935 124.885C137.091 131.187 134.009 137.059 129.869 142.156C125.729 147.253 120.614 151.474 114.823 154.57C114.634 154.661 114.427 154.71 114.218 154.712H69.3602C69.1561 154.71 68.9552 154.661 68.7726 154.57C60.9024 150.393 54.3187 144.151 49.7287 136.515C45.1387 128.879 42.7157 120.136 42.72 111.226C42.72 110.694 42.7566 110.171 42.7926 109.655L42.7927 109.655C42.8278 109.152 42.8625 108.655 42.8625 108.163V107.754C42.8717 107.587 42.9142 107.424 42.9877 107.274C43.0611 107.124 43.1638 106.991 43.2899 106.881C43.5245 106.685 43.8209 106.578 44.1268 106.578H44.2515C55.081 107.573 65.5516 110.974 74.8984 116.533L75.0231 116.622C75.1 116.682 79.1659 119.671 85.6896 122.761V61.8813H74.1859C72.4351 61.8766 70.7574 61.179 69.5195 59.9411C68.3876 58.8092 67.7075 57.3098 67.5956 55.723C62.5154 57.8226 57.7099 60.6144 53.3237 64.0483C42.6355 72.4161 35.0511 84.1165 31.7762 97.2897C28.5013 110.463 29.7239 124.353 35.2496 136.751C40.7753 149.15 50.287 159.346 62.2726 165.718H119.328C131.314 159.346 140.826 149.15 146.351 136.751C151.877 124.353 153.099 110.463 149.825 97.2897C146.55 84.1165 138.965 72.4161 128.277 64.0483C123.906 60.6261 119.118 57.8416 114.057 55.7444ZM86.9717 61.8813V136.94C86.9717 137.466 87.1794 137.971 87.5495 138.344C87.9197 138.718 88.4225 138.93 88.9484 138.935H92.7058C93.2316 138.93 93.7343 138.718 94.1045 138.344C94.4747 137.971 94.6824 137.466 94.6824 136.94V61.8813H86.9717ZM103.444 28.5628L115.714 29.3112H115.714C116.444 29.3112 117.209 29.3112 117.975 29.418C122.837 29.6317 127.858 29.8632 131.687 33.1042C133.668 34.816 135.151 37.0307 135.979 39.5149C136.561 41.1624 136.915 42.8821 137.029 44.6257V47.0831C136.955 48.2711 136.991 49.4633 137.136 50.6447C137.474 53.2878 138.523 55.7894 140.173 57.8817C141.823 59.974 144.011 61.5781 146.503 62.5224L146.824 62.647V62.9854C147.452 66.2446 149.223 69.1725 151.818 71.2428C154.412 73.3131 157.66 74.3898 160.978 74.2795C164.295 74.1691 167.465 72.8789 169.916 70.6408C172.367 68.4027 173.94 65.3635 174.35 62.0697C174.761 58.7759 173.984 55.4436 172.157 52.6719C170.331 49.9002 167.576 47.871 164.387 46.9491C161.198 46.0271 157.785 46.273 154.762 47.6424C151.738 49.0119 149.302 51.4151 147.892 54.4199L147.554 55.1322L146.93 54.6514C146.65 54.4425 146.388 54.2101 146.147 53.9569C143.992 51.6419 144.028 48.8105 144.081 46.0681V45.4449C144.089 42.3442 143.516 39.2696 142.389 36.3808C140.681 31.8189 137.455 27.9835 133.254 25.5181C130.114 23.7729 126.605 22.7965 123.015 22.6689L119.453 22.4374L103.444 21.4326V28.5628ZM29.3641 55.5775L58.9603 38.9986L25.6245 45.5518C25.0635 45.6651 24.523 45.8632 24.0218 46.1395C23.4021 46.4903 22.8575 46.9597 22.4192 47.5209C21.9809 48.0821 21.6575 48.7242 21.4673 49.4104C21.2771 50.0967 21.224 50.8137 21.3109 51.5204C21.3979 52.2272 21.6231 52.9099 21.9739 53.5297C22.3247 54.1494 22.7941 54.6939 23.3553 55.1322C23.9166 55.5705 24.5586 55.894 25.2449 56.0842C25.9311 56.2743 26.6481 56.3275 27.3549 56.2405C28.0616 56.1536 28.7444 55.9283 29.3641 55.5775ZM58.711 37.7343H58.9603L59.0138 37.7521C59.2925 37.7582 59.5617 37.855 59.7805 38.0278C59.9993 38.2007 60.1558 38.4402 60.2262 38.7099C60.2967 38.9797 60.2773 39.2651 60.171 39.5228C60.0647 39.7806 59.8772 39.9967 59.637 40.1383L30.0052 56.6638C29.012 57.2278 27.8886 57.5225 26.7464 57.5185C25.2803 57.5066 23.8589 57.0125 22.7015 56.1125C21.5441 55.2124 20.7151 53.9565 20.3424 52.5386C19.9697 51.1206 20.074 49.6194 20.6392 48.2666C21.2044 46.9138 22.1991 45.7846 23.4698 45.0532C24.0885 44.7164 24.7551 44.4762 25.4464 44.3409L58.711 37.7343ZM6.85567 24.7526H7.42551L59.3704 30.0948L7.4077 35.4371H6.85567C5.4388 35.508 4.05183 35.0131 2.99987 34.0613C1.9479 33.1095 1.3171 31.7788 1.24626 30.3619C1.17542 28.9451 1.67032 27.5581 2.6221 26.5061C3.57388 25.4542 4.90457 24.8234 6.32143 24.7526H6.85567ZM6.85567 23.4882H6.21459C4.47361 23.6005 2.84672 24.3933 1.68542 25.6952C0.524119 26.9972 -0.0783536 28.7037 0.00818421 30.4462C0.0947221 32.1886 0.863319 33.8271 2.14791 35.0075C3.43249 36.188 5.12994 36.8156 6.87348 36.7549H7.55016L59.5128 31.5016C59.8245 31.4668 60.1127 31.3189 60.3227 31.0859C60.5327 30.8529 60.6501 30.551 60.6525 30.2373C60.6501 29.9236 60.5327 29.6217 60.3227 29.3887C60.1127 29.1557 59.8245 29.0078 59.5128 28.973L7.56797 23.5417C7.33681 23.5239 7.10464 23.5239 6.87348 23.5417L6.85567 23.4882ZM85.6896 124.161C78.6331 120.879 74.2395 117.619 74.2395 117.619C65.0639 112.136 54.7721 108.789 44.1268 107.825V107.843C43.9488 108.965 43.9488 110.086 43.9488 111.226C43.9487 119.904 46.3105 128.419 50.7808 135.857C55.2511 143.295 61.6615 149.376 69.3246 153.448H114.182C119.841 150.437 124.839 146.321 128.879 141.345C132.92 136.368 135.921 130.632 137.706 124.475C130.356 128.698 122.017 130.892 113.541 130.832C107.248 130.832 101.271 129.7 95.9645 128.098V136.94C95.9645 137.805 95.6212 138.633 95.0101 139.245C94.3989 139.856 93.57 140.199 92.7058 140.199H88.9484C88.0841 140.199 87.2552 139.856 86.644 139.245C86.0329 138.633 85.6896 137.805 85.6896 136.94V124.161ZM111.246 41.4002C110.244 40.3983 108.885 39.8355 107.468 39.8355H74.1859C72.769 39.8355 71.4102 40.3983 70.4083 41.4002C69.4064 42.4021 68.8436 43.7609 68.8436 45.1778V55.2925C68.8436 56.7093 69.4064 58.0682 70.4083 59.0701C71.4102 60.0719 72.769 60.6348 74.1859 60.6348H107.468C108.885 60.6348 110.244 60.0719 111.246 59.0701C112.248 58.0682 112.811 56.7093 112.811 55.2925V45.1778C112.811 43.7609 112.248 42.4021 111.246 41.4002Z" fill="#4F5053"/>
<path fill-rule="evenodd" clip-rule="evenodd" d="M34.4575 7.28315C33.9589 8.13792 32.0001 7.92421 30.0768 6.82014C28.1536 5.71606 26.9961 4.11338 27.4947 3.25861C27.9933 2.40385 29.9522 2.59973 31.8754 3.7038C33.7986 4.80787 34.9561 6.41058 34.4575 7.28315ZM82.6142 27.1689C82.9481 27.5029 83.4011 27.6905 83.8734 27.6905C84.33 27.6676 84.7604 27.47 85.0754 27.1385C85.3903 26.8069 85.5657 26.367 85.5651 25.9097V17.8785C85.5435 17.4368 85.3583 17.0189 85.0456 16.7062C84.7329 16.3935 84.3151 16.2084 83.8734 16.1868C83.4161 16.1862 82.9761 16.3615 82.6446 16.6765C82.3131 16.9914 82.1155 17.4218 82.0926 17.8785V25.9097C82.0926 26.382 82.2802 26.835 82.6142 27.1689ZM90.0171 46.1216H73.7231C73.1611 46.1216 72.6221 45.8983 72.2246 45.5009C71.8272 45.1035 71.604 44.5645 71.604 44.0025C71.604 43.4405 71.8272 42.9014 72.2246 42.504C72.6221 42.1066 73.1611 41.8834 73.7231 41.8834H90.0171C90.5776 41.888 91.114 42.1128 91.5104 42.5092C91.9068 42.9056 92.1315 43.4419 92.1362 44.0025C92.1362 44.5645 91.9129 45.1035 91.5155 45.5009C91.1181 45.8983 90.5791 46.1216 90.0171 46.1216ZM170.988 56.3429C170.009 57.7319 166.946 57.2688 164.115 55.2922C161.283 53.3155 159.787 50.5732 160.767 49.1842C161.746 47.7952 164.809 48.276 167.641 50.2527C170.472 52.2293 171.968 55.0251 170.988 56.3429ZM8.67177 29.4892C10.8977 29.6316 12.7675 28.8481 12.7675 27.8509C12.8031 26.8714 11.147 26.0345 8.83204 25.892C6.51705 25.7496 4.7719 26.5331 4.73628 27.5303C4.70067 28.5275 6.44581 29.3467 8.67177 29.4892ZM30.6999 46.7804C31.0561 47.7242 29.6671 49.1132 27.6014 49.8968C25.5357 50.6803 23.5413 50.5913 23.2029 49.6475C22.8646 48.7037 24.2358 47.3325 26.3015 46.549C28.3671 45.7654 30.3616 45.8544 30.6999 46.7804ZM43.3075 81.2734C44.5184 82.4843 49.095 79.831 53.5647 75.3613C58.0166 70.8915 60.6877 66.315 59.4768 65.1041C58.2659 63.8931 53.6715 66.5465 49.2196 71.0162C44.7677 75.4859 42.0966 80.0624 43.3075 81.2734ZM89.6966 121.447C89.388 121.443 89.0935 121.317 88.877 121.097C88.6604 120.877 88.539 120.581 88.5391 120.272V98.9031C88.5391 98.7511 88.569 98.6006 88.6272 98.4601C88.6853 98.3197 88.7706 98.1921 88.8781 98.0846C88.9856 97.9771 89.1132 97.8919 89.2536 97.8337C89.394 97.7755 89.5446 97.7455 89.6966 97.7455C90.0036 97.7455 90.2979 97.8675 90.515 98.0846C90.7321 98.3017 90.854 98.5961 90.854 98.9031V120.272C90.8541 120.581 90.7327 120.877 90.5161 121.097C90.2996 121.317 90.0052 121.443 89.6966 121.447ZM45.9964 113.185C45.9964 113.185 49.1662 137.314 63.5547 147.019L45.9964 113.185Z" fill="white"/>
</svg>
