<svg width="14" height="14" viewBox="0 0 14 14" fill="#4F5053" xmlns="http://www.w3.org/2000/svg">
<g clip-path="url(#clip0)">
<path fill-rule="evenodd" clip-rule="evenodd" d="M3.11101 1.17971C4.26216 0.410543 5.61553 0 7 0C8.85652 0 10.637 0.737498 11.9498 2.05025C13.2625 3.36301 14 5.14349 14 7C14 8.38447 13.5895 9.73785 12.8203 10.889C12.0511 12.0401 10.9579 12.9373 9.67879 13.4672C8.3997 13.997 6.99224 14.1356 5.63437 13.8655C4.2765 13.5954 3.02922 12.9287 2.05026 11.9497C1.07129 10.9708 0.404603 9.7235 0.134506 8.36563C-0.13559 7.00777 0.00303296 5.6003 0.532846 4.32122C1.06266 3.04213 1.95987 1.94888 3.11101 1.17971ZM4.10819 11.3279C4.96417 11.8999 5.97053 12.2051 7 12.2051C8.3802 12.2042 9.70359 11.6555 10.6795 10.6795C11.6555 9.70359 12.2042 8.38019 12.2051 7C12.2051 5.97052 11.8999 4.96417 11.3279 4.10819C10.756 3.25221 9.94303 2.58505 8.99192 2.19109C8.04081 1.79712 6.99423 1.69405 5.98453 1.89489C4.97484 2.09573 4.04737 2.59147 3.31942 3.31942C2.59147 4.04737 2.09573 4.97483 1.89489 5.98453C1.69405 6.99423 1.79713 8.0408 2.19109 8.99192C2.58506 9.94303 3.25221 10.756 4.10819 11.3279ZM7.2118 6.12769L9.33334 4.00615C9.38382 3.95449 9.44413 3.91343 9.51071 3.8854C9.57728 3.85737 9.64879 3.84294 9.72103 3.84294C9.79327 3.84294 9.86478 3.85737 9.93135 3.8854C9.99793 3.91343 10.0582 3.95449 10.1087 4.00615C10.1591 4.0559 10.1991 4.11516 10.2264 4.18047C10.2536 4.24579 10.2677 4.31588 10.2677 4.38667C10.2677 4.45746 10.2536 4.52754 10.2264 4.59286C10.1991 4.65818 10.1591 4.71743 10.1087 4.76718L8.02308 6.85641C8.05779 6.96063 8.07596 7.06964 8.07693 7.17949C8.07693 7.46511 7.96347 7.73903 7.7615 7.94099C7.55954 8.14295 7.28562 8.25641 7 8.25641C6.71439 8.25641 6.44047 8.14295 6.2385 7.94099C6.03654 7.73903 5.92308 7.46511 5.92308 7.17949C5.92395 7.10346 5.93237 7.0277 5.94821 6.95333L4.2718 5.27692C4.18733 5.17393 4.14404 5.04328 4.15028 4.91023C4.15652 4.77718 4.21186 4.65116 4.3056 4.55652C4.39934 4.46189 4.52483 4.40536 4.65782 4.39786C4.7908 4.39036 4.92185 4.43241 5.02564 4.5159L6.67693 6.15641C6.78115 6.1217 6.89016 6.10353 7 6.10256C7.07123 6.10435 7.14213 6.11277 7.2118 6.12769ZM10.5898 6.4617H11.1282C11.271 6.4617 11.408 6.51843 11.509 6.61941C11.61 6.72039 11.6667 6.85735 11.6667 7.00016C11.6667 7.14297 11.61 7.27993 11.509 7.38091C11.408 7.48189 11.271 7.53862 11.1282 7.53862H10.5898C10.4469 7.53862 10.31 7.48189 10.209 7.38091C10.108 7.27993 10.0513 7.14297 10.0513 7.00016C10.0513 6.85735 10.108 6.72039 10.209 6.61941C10.31 6.51843 10.4469 6.4617 10.5898 6.4617ZM6.61926 10.2092C6.72025 10.1082 6.8572 10.0514 7.00001 10.0514C7.14282 10.0514 7.27978 10.1082 7.38076 10.2092C7.48174 10.3101 7.53848 10.4471 7.53848 10.5899V11.1284C7.53848 11.2712 7.48174 11.4081 7.38076 11.5091C7.27978 11.6101 7.14282 11.6668 7.00001 11.6668C6.8572 11.6668 6.72025 11.6101 6.61926 11.5091C6.51828 11.4081 6.46155 11.2712 6.46155 11.1284V10.5899C6.46155 10.4471 6.51828 10.3101 6.61926 10.2092ZM2.87181 6.4617H3.41027C3.55308 6.4617 3.69004 6.51843 3.79102 6.61941C3.892 6.72039 3.94873 6.85735 3.94873 7.00016C3.94873 7.14297 3.892 7.27993 3.79102 7.38091C3.69004 7.48189 3.55308 7.53862 3.41027 7.53862H2.87181C2.729 7.53862 2.59204 7.48189 2.49106 7.38091C2.39008 7.27993 2.33335 7.14297 2.33335 7.00016C2.33335 6.85735 2.39008 6.72039 2.49106 6.61941C2.59204 6.51843 2.729 6.4617 2.87181 6.4617ZM6.61926 2.49121C6.72025 2.39023 6.8572 2.3335 7.00001 2.3335C7.14282 2.3335 7.27978 2.39023 7.38076 2.49121C7.48174 2.59219 7.53848 2.72915 7.53848 2.87196V3.41042C7.53848 3.55323 7.48174 3.69019 7.38076 3.79117C7.27978 3.89215 7.14282 3.94888 7.00001 3.94888C6.8572 3.94888 6.72025 3.89215 6.61926 3.79117C6.51828 3.69019 6.46155 3.55323 6.46155 3.41042V2.87196C6.46155 2.72915 6.51828 2.59219 6.61926 2.49121Z" />
</g>
<defs>
<clipPath id="clip0">
<rect width="14" height="14" fill="white"/>
</clipPath>
</defs>
</svg>
