<svg width="106" height="133" viewBox="0 0 106 133" fill="none" xmlns="http://www.w3.org/2000/svg">
<g opacity="0.29">
<path d="M44.4978 29.553C43.3452 27.9924 42.4597 26.2378 41.8896 24.3593C40.8584 20.9614 40.9104 17.3268 42.0384 13.9599C43.1664 10.5929 45.3144 7.66045 48.1844 5.56951C51.0544 3.47857 54.504 2.33279 58.0547 2.29114C56.4321 1.78779 54.7424 1.53406 53.0436 1.53863C48.5077 1.53863 44.1576 3.34052 40.9502 6.54789C37.7428 9.75526 35.9409 14.1054 35.9409 18.6413C35.9409 22.8488 37.4914 26.8965 40.2759 30.0205C40.9195 29.7507 41.6101 29.5905 42.3195 29.553H44.4978Z" fill="#1A171B"/>
<path d="M42.867 41.7813V50.8971H64.5874V46.7583H46.031V41.7813H42.867Z" fill="#1A171B"/>
<path d="M67.3235 39.0959H45.9794C44.9243 39.1077 43.8843 38.8435 42.9627 38.3295C42.0411 37.8155 41.2699 37.0696 40.7254 36.1657C40.181 35.2617 39.8823 34.2312 39.8589 33.1762C39.8355 32.1212 40.0882 31.0785 40.5921 30.1513C39.212 30.6073 38.0406 31.5419 37.2896 32.7863C36.5385 34.0306 36.2574 35.5026 36.497 36.9362C36.7366 38.3697 37.4812 39.6703 38.5961 40.6027C39.711 41.5352 41.1227 42.0381 42.576 42.0205H63.9201C65.0281 42.0179 66.1142 41.7121 67.0609 41.1363C68.0075 40.5604 68.7785 39.7366 69.2903 38.7539C68.6577 38.9742 67.9934 39.0897 67.3235 39.0959Z" fill="#1A171B"/>
<path d="M55.7454 23.3957C53.7444 23.3957 51.5894 22.9511 51.5894 21.9763C51.5894 21.7197 49.7423 17.0165 48.015 12.5185L44.7313 10.3977C44.6812 10.382 44.6274 10.382 44.5773 10.3977C44.5213 10.3825 44.4623 10.3825 44.4063 10.3977C44.3638 10.439 44.3334 10.491 44.3183 10.5483C44.3032 10.6056 44.3041 10.6659 44.3208 10.7227C46.3047 15.8535 49.2806 23.7207 49.4516 24.0457C49.4516 25.0205 51.6065 25.4652 53.6246 25.4652C55.6427 25.4652 57.7806 25.0205 57.7806 24.097C57.7806 24.097 57.9174 23.7036 58.1055 23.1734C57.328 23.3247 56.5375 23.3991 55.7454 23.3957Z" fill="#1A171B"/>
<path d="M103.941 78.3466L103.821 78.2611L22.3953 71.403L42.8672 52.3677L42.2515 51.6323H42.1489L2.06025 78.3466H103.941Z" fill="#1A171B"/>
<path d="M104.436 79.1849H1.58105L39.0359 122.745L30.7924 130.407C30.6874 130.508 30.6148 130.638 30.5836 130.78C30.5524 130.922 30.5641 131.07 30.6172 131.206C30.6703 131.341 30.7624 131.458 30.8819 131.541C31.0014 131.624 31.1428 131.67 31.2884 131.673H72.9504V131.416L41.0882 127.996L42.5419 124.832L66.9132 122.66L42.3538 120.146L23.5409 85.5984L104.436 79.2704V79.1849Z" fill="#1A171B"/>
</g>
<path d="M65.849 30.0749C69.0119 26.7705 70.7869 22.3712 70.7957 17.7868C70.7957 14.2696 69.7529 10.8314 67.7992 7.90675C65.8455 4.9821 63.0686 2.70232 59.8195 1.35558C56.5704 0.0088401 52.995 -0.344395 49.5452 0.340527C46.0953 1.02545 42.926 2.71779 40.4378 5.2036C37.9496 7.68941 36.2542 10.8571 35.566 14.3063C34.8777 17.7554 35.2276 21.3312 36.5712 24.5816C37.4176 26.6292 38.6344 28.4897 40.1497 30.0754C40.6738 29.8418 41.231 29.6817 41.8056 29.6024C41.6829 29.4871 41.5619 29.3698 41.4426 29.2505C39.1584 26.9662 37.6028 24.056 36.9726 20.8877C36.3424 17.7194 36.6658 14.4353 37.902 11.4509C39.1383 8.4664 41.2317 5.91552 43.9176 4.12082C46.6036 2.32613 49.7614 1.36822 52.9918 1.36822V1.45373C57.3088 1.45367 61.4503 3.16273 64.5109 6.2073C67.5715 9.25187 69.3022 13.3843 69.3248 17.7013C69.3248 20.9316 68.3669 24.0895 66.5722 26.7754C65.8809 27.81 65.0774 28.7568 64.1801 29.6004C64.7592 29.679 65.3209 29.8396 65.849 30.0749Z" fill="white"/>
<path d="M63.6801 28.8181H42.3188C40.5045 28.8181 38.7644 29.5388 37.4815 30.8218C36.1985 32.1047 35.4778 33.8448 35.4778 35.6592C35.4778 37.4735 36.1985 39.2136 37.4815 40.4965C38.7644 41.7795 40.5045 42.5002 42.3188 42.5002H63.6801C65.4944 42.5002 67.2345 41.7795 68.5174 40.4965C69.8004 39.2136 70.5211 37.4735 70.5211 35.6592C70.5211 33.8448 69.8004 32.1047 68.5174 30.8218C67.2345 29.5388 65.4944 28.8181 63.6801 28.8181ZM63.6801 41.0465H42.3188C40.9447 40.969 39.6524 40.3685 38.707 39.3683C37.7617 38.3681 37.2349 37.044 37.2349 35.6677C37.2349 34.2914 37.7617 32.9673 38.707 31.9671C39.6524 30.9669 40.9447 30.3664 42.3188 30.2889H63.6801C65.0542 30.3664 66.3465 30.9669 67.2919 31.9671C68.2373 32.9673 68.764 34.2914 68.764 35.6677C68.764 37.044 68.2373 38.3681 67.2919 39.3683C66.3465 40.3685 65.0542 40.969 63.6801 41.0465Z" fill="white"/>
<path d="M42.3191 41.7818C42.0128 41.7656 41.7099 41.7265 41.4129 41.6656V52.1228L42.1482 51.6328H42.8666V41.7818H42.3191Z" fill="white"/>
<path d="M63.1333 51.6328H63.8515L64.587 52.1229V41.6655C64.2898 41.7265 63.9868 41.7656 63.6803 41.7818H63.1333V51.6328Z" fill="white"/>
<path d="M62.6892 10.2103C62.5944 10.1266 62.4735 10.0782 62.3471 10.0735C62.2458 10.0507 62.1406 10.0507 62.0393 10.0735L56.2757 13.7848L53.8984 8.97895C53.854 8.88411 53.7841 8.80348 53.6965 8.74609C53.6089 8.6887 53.5071 8.65681 53.4024 8.65399C53.2948 8.65361 53.1894 8.684 53.0985 8.74157C53.0076 8.79915 52.935 8.88151 52.8893 8.97895L50.5121 13.8019L44.7485 10.0906C44.6471 10.0678 44.542 10.0678 44.4406 10.0906C44.3142 10.0953 44.1934 10.1437 44.0986 10.2274C44.007 10.2975 43.9407 10.3955 43.9099 10.5066C43.879 10.6177 43.8852 10.7359 43.9275 10.8431C45.843 15.8542 48.7163 23.4307 48.9557 24.1661C49.0755 25.3462 51.4014 25.7738 53.4024 25.7738C55.4034 25.7738 57.7123 25.3462 57.832 24.1661C58.0714 23.4307 60.9447 15.8542 62.8602 10.8431C62.9068 10.7338 62.9152 10.6119 62.8842 10.4971C62.8532 10.3824 62.7845 10.2814 62.6892 10.2103ZM57.2847 24.0635C57.2847 24.6963 55.5745 25.2094 53.4024 25.2094C51.2304 25.2094 49.503 24.6963 49.503 24.0635C49.503 23.8754 44.3722 10.6379 44.3722 10.6379L50.666 14.6741L53.334 9.2868L55.9849 14.6741L62.2787 10.6379C62.2787 10.6379 57.2847 23.8754 57.2847 24.0635Z" fill="white"/>
<path d="M105.531 78.2619C105.504 78.0558 105.433 77.8578 105.324 77.681C105.215 77.5041 105.07 77.3523 104.898 77.2357L64.6725 50.4187C64.427 50.263 64.1424 50.18 63.8516 50.1793H42.1484C41.8576 50.18 41.573 50.263 41.3274 50.4187L1.10198 77.2357C0.930001 77.3523 0.784688 77.5041 0.675615 77.681C0.566543 77.8578 0.496181 78.0558 0.469178 78.2619C0.439397 78.4662 0.454582 78.6747 0.51366 78.8726C0.572738 79.0705 0.674294 79.2531 0.811239 79.4077L38.0266 122.677L30.2962 129.946C30.0837 130.145 29.936 130.404 29.8722 130.688C29.8084 130.972 29.8315 131.269 29.9384 131.54C30.0453 131.811 30.2311 132.044 30.4718 132.208C30.7125 132.372 30.9969 132.46 31.2882 132.46H74.7118C75.0031 132.46 75.2875 132.372 75.5282 132.208C75.7688 132.044 75.9547 131.811 76.0616 131.54C76.1685 131.269 76.1915 130.972 76.1277 130.688C76.0639 130.404 75.9162 130.145 75.7038 129.946L67.9733 122.677L105.189 79.4077C105.326 79.2531 105.427 79.0705 105.486 78.8726C105.545 78.6747 105.561 78.4662 105.531 78.2619ZM72.8647 130.271H33.1352L40.5236 123.43H65.4764L72.8647 130.271ZM66.5709 122.079C66.5116 122.016 66.4401 121.965 66.3608 121.93C66.2815 121.894 66.1959 121.875 66.1092 121.874H39.8908C39.804 121.875 39.7184 121.894 39.6391 121.93C39.5598 121.965 39.4884 122.016 39.429 122.079L2.84645 79.5446H103.154L66.5709 122.079ZM2.28206 78.2105L42.1482 51.6328H63.8515L103.718 78.2105H2.28206Z" fill="white"/>
<path d="M66.6568 11.1168C67.0672 12.2969 66.8962 13.4257 66.2805 13.648C65.6648 13.8704 64.8097 13.1008 64.3821 11.9378C63.9545 10.7748 64.1427 9.64601 64.7755 9.42368C65.4083 9.20134 66.2292 9.95386 66.6568 11.1168Z" fill="white"/>
<path d="M68.2987 18.5221C68.2987 20.6086 67.3922 22.2504 66.4345 22.2333C65.4767 22.2162 64.7242 20.5231 64.8268 18.4024C64.9294 16.2816 65.7333 14.674 66.691 14.7082C67.6488 14.7424 68.3671 16.4526 68.2987 18.5221Z" fill="white"/>
<path d="M57.2332 14.7937L61.1155 12.2967L57.37 22.4215L60.0038 14.1096L57.2332 14.7937Z" fill="white"/>
<path d="M65.6991 32.2212C65.7014 32.3498 65.6777 32.4777 65.6296 32.597C65.5814 32.7163 65.5097 32.8247 65.4187 32.9157C65.3277 33.0067 65.2193 33.0784 65.1 33.1266C64.9807 33.1747 64.8529 33.1984 64.7242 33.196H59.3882C59.2595 33.1984 59.1317 33.1747 59.0124 33.1266C58.8931 33.0784 58.7847 33.0067 58.6937 32.9157C58.6027 32.8247 58.531 32.7163 58.4828 32.597C58.4346 32.4777 58.411 32.3498 58.4133 32.2212C58.4133 32.094 58.4386 31.968 58.4878 31.8507C58.537 31.7334 58.6091 31.627 58.6999 31.5378C58.7906 31.4487 58.8982 31.3785 59.0164 31.3314C59.1346 31.2843 59.261 31.2612 59.3882 31.2634H64.7242C64.8514 31.2612 64.9778 31.2843 65.096 31.3314C65.2142 31.3785 65.3218 31.4487 65.4125 31.5378C65.5033 31.627 65.5754 31.7334 65.6246 31.8507C65.6738 31.968 65.6991 32.094 65.6991 32.2212Z" fill="white"/>
<path d="M62.3645 44.2788C62.3388 44.4816 62.2351 44.6663 62.0755 44.794C61.9159 44.9217 61.7129 44.9823 61.5094 44.9629H56.8233C56.6198 44.9823 56.4167 44.9217 56.2571 44.794C56.0975 44.6663 55.9939 44.4816 55.9681 44.2788C55.9898 44.0729 56.0916 43.8838 56.2517 43.7526C56.4118 43.6213 56.6171 43.5584 56.8233 43.5776H61.5094C61.7155 43.5584 61.9209 43.6213 62.081 43.7526C62.241 43.8838 62.3429 44.0729 62.3645 44.2788Z" fill="white"/>
<path d="M57.6783 52.9155H63.8523L98.793 76.2607L63.7668 55.1047L57.6783 52.9155Z" fill="white"/>
<path d="M91.986 82.3491H97.818L65.9558 119.821L94.8935 83.8029L91.986 82.3491Z" fill="white"/>
<path d="M58.1571 124.918H64.7245L71.0524 129.553L64.485 125.893L58.1571 124.918Z" fill="white"/>
</svg>
