<svg width="532" height="345" viewBox="0 0 532 345" fill="none" xmlns="http://www.w3.org/2000/svg">
<g clip-path="url(#clip0)">
<path d="M491.003 343.234H89.9928C89.9928 343.234 6.23301 275.66 98.9652 219.815C191.697 163.97 196.438 146.583 197.259 125.002C198.079 103.421 197.339 4.29078 275.361 0.198783C353.382 -3.89321 366.967 56.5642 374.04 83.1541C381.114 109.744 408.46 158.049 456.84 171.617C503.257 184.601 564.235 261.024 491.003 343.234Z" fill="url(#paint0_linear)"/>
<path d="M439.528 34.2432H113.295C110.005 34.2432 107.337 36.9108 107.337 40.2015V205.817C107.337 209.108 110.005 211.776 113.295 211.776H439.528C442.819 211.776 445.487 209.108 445.487 205.817V40.2015C445.487 36.9108 442.819 34.2432 439.528 34.2432Z" fill="url(#paint1_linear)"/>
<path d="M465.115 160.446V187.578C465.117 187.946 465.232 188.304 465.444 188.604C465.656 188.905 465.956 189.132 466.302 189.257C466.648 189.381 467.024 189.395 467.379 189.298C467.734 189.202 468.05 188.998 468.285 188.715L471.927 184.279C472.095 184.075 472.306 183.911 472.545 183.798C472.784 183.684 473.046 183.626 473.31 183.625H522.157C522.63 183.625 523.085 183.437 523.419 183.102C523.754 182.767 523.943 182.313 523.943 181.839V160.446C523.943 159.972 523.754 159.518 523.419 159.183C523.085 158.848 522.63 158.66 522.157 158.66H466.917C466.682 158.658 466.448 158.703 466.229 158.792C466.011 158.88 465.812 159.012 465.644 159.178C465.477 159.344 465.344 159.541 465.253 159.759C465.162 159.977 465.115 160.21 465.115 160.446V160.446Z" fill="url(#paint2_linear)"/>
<g opacity="0.43">
<path opacity="0.43" d="M334.863 80.333H218.775C217.294 80.333 216.094 81.5336 216.094 83.0145V147.966C216.094 149.447 217.294 150.648 218.775 150.648H334.863C336.344 150.648 337.545 149.447 337.545 147.966V83.0145C337.545 81.5336 336.344 80.333 334.863 80.333Z" fill="#1A171B"/>
</g>
<path d="M477.107 177.822C477.111 178.089 477.086 178.355 477.032 178.616C476.995 178.817 476.902 179.003 476.764 179.152C476.628 179.292 476.455 179.391 476.265 179.436C476.009 179.5 475.746 179.529 475.482 179.522C475.217 179.529 474.952 179.5 474.694 179.436C474.504 179.391 474.331 179.292 474.195 179.152C474.06 179.001 473.971 178.815 473.938 178.616C473.881 178.355 473.856 178.089 473.862 177.822C473.856 177.55 473.881 177.278 473.938 177.012C473.973 176.814 474.062 176.628 474.195 176.476C474.332 176.336 474.504 176.236 474.694 176.186C474.952 176.125 475.217 176.097 475.482 176.101C475.746 176.097 476.009 176.125 476.265 176.186C476.455 176.236 476.627 176.336 476.764 176.476C476.9 176.627 476.992 176.813 477.032 177.012C477.086 177.279 477.111 177.55 477.107 177.822ZM476.748 174.449C476.743 174.523 476.719 174.595 476.678 174.658C476.629 174.728 476.56 174.782 476.48 174.814C476.354 174.864 476.222 174.897 476.088 174.91C475.887 174.936 475.685 174.948 475.482 174.948C475.278 174.949 475.073 174.936 474.871 174.91C474.74 174.897 474.611 174.864 474.49 174.814C474.408 174.782 474.338 174.728 474.286 174.658C474.249 174.594 474.225 174.523 474.216 174.449L473.916 164.002C473.916 163.91 473.94 163.819 473.986 163.739C474.048 163.653 474.134 163.588 474.232 163.551C474.389 163.492 474.554 163.454 474.72 163.439C474.974 163.415 475.228 163.404 475.482 163.406C475.736 163.403 475.991 163.415 476.244 163.444C476.407 163.463 476.567 163.503 476.721 163.562C476.821 163.596 476.909 163.66 476.973 163.744C477.023 163.821 477.049 163.91 477.048 164.002L476.748 174.449Z" fill="#F2F8FC"/>
<path d="M508.331 163.406H485.221C484.925 163.406 484.685 163.646 484.685 163.943V167.305C484.685 167.601 484.925 167.841 485.221 167.841H508.331C508.627 167.841 508.867 167.601 508.867 167.305V163.943C508.867 163.646 508.627 163.406 508.331 163.406Z" fill="#EF631D"/>
<path d="M517.711 169.724H485.221C484.925 169.724 484.685 169.964 484.685 170.26V173.623C484.685 173.919 484.925 174.159 485.221 174.159H517.711C518.007 174.159 518.247 173.919 518.247 173.623V170.26C518.247 169.964 518.007 169.724 517.711 169.724Z" fill="#EF631D"/>
<path d="M517.711 176.042H485.221C484.925 176.042 484.685 176.282 484.685 176.578V179.941C484.685 180.237 484.925 180.477 485.221 180.477H517.711C518.007 180.477 518.247 180.237 518.247 179.941V176.578C518.247 176.282 518.007 176.042 517.711 176.042Z" fill="#EF631D"/>
<g opacity="0.43">
<path opacity="0.43" d="M164.598 34.2432H153.454C156.305 39.6291 157.791 45.6325 157.782 51.7266C157.785 57.7603 156.336 63.7062 153.557 69.0619C150.778 74.4176 146.751 79.0257 141.816 82.4971C136.881 85.9684 131.183 88.201 125.203 89.006C119.223 89.8111 113.138 89.1651 107.46 87.1226V97.7414C116.01 100.107 125.05 100.043 133.566 97.5572C142.082 95.0709 149.736 90.2606 155.67 83.6661C161.604 77.0715 165.583 68.9538 167.16 60.2238C168.737 51.4937 167.85 42.497 164.598 34.2432V34.2432Z" fill="#1A171B"/>
</g>
<g opacity="0.35">
<path opacity="0.35" d="M445.61 40.2229V97.7146H413.062C412.671 97.7146 412.283 97.6375 411.922 97.4875C411.56 97.3376 411.232 97.1179 410.955 96.8409C410.679 96.564 410.46 96.2352 410.31 95.8735C410.161 95.5117 410.085 95.1241 410.085 94.7328V34.2432H439.652C440.436 34.2432 441.213 34.398 441.937 34.6988C442.661 34.9995 443.319 35.4403 443.873 35.9959C444.426 36.5515 444.865 37.2108 445.163 37.9362C445.461 38.6616 445.613 39.4387 445.61 40.2229V40.2229Z" fill="#EEF6F7"/>
</g>
<g opacity="0.43">
<path opacity="0.43" d="M199.619 80.1826H135.058C133.578 80.1826 132.377 81.3832 132.377 82.8641V120.18C132.377 121.661 133.578 122.862 135.058 122.862H199.619C201.1 122.862 202.3 121.661 202.3 120.18V82.8641C202.3 81.3832 201.1 80.1826 199.619 80.1826Z" fill="#1A171B"/>
</g>
<g opacity="0.43">
<path opacity="0.43" d="M421.643 80.1826H357.083C355.602 80.1826 354.401 81.3832 354.401 82.8641V120.18C354.401 121.661 355.602 122.862 357.083 122.862H421.643C423.124 122.862 424.324 121.661 424.324 120.18V82.8641C424.324 81.3832 423.124 80.1826 421.643 80.1826Z" fill="#1A171B"/>
</g>
<path d="M196.261 75.7373H132.297C130.653 75.7373 129.32 77.0699 129.32 78.7138V115.44C129.32 117.084 130.653 118.416 132.297 118.416H196.261C197.905 118.416 199.238 117.084 199.238 115.44V78.7138C199.238 77.0699 197.905 75.7373 196.261 75.7373Z" fill="url(#paint3_linear)"/>
<path d="M418.28 75.7373H354.31C352.666 75.7373 351.333 77.0699 351.333 78.7138V115.44C351.333 117.084 352.666 118.416 354.31 118.416H418.28C419.924 118.416 421.257 117.084 421.257 115.44V78.7138C421.257 77.0699 419.924 75.7373 418.28 75.7373Z" fill="url(#paint4_linear)"/>
<path d="M2.21082 343.25H530.099" stroke="#ABCBDD" stroke-width="2.68152" stroke-linecap="round" stroke-linejoin="round"/>
<path d="M333.592 78.7138V143.07C333.591 143.859 333.277 144.615 332.719 145.173C332.161 145.731 331.405 146.045 330.616 146.047H215.123C214.732 146.047 214.345 145.971 213.983 145.822C213.622 145.672 213.293 145.453 213.017 145.176C212.74 144.9 212.521 144.571 212.372 144.21C212.222 143.849 212.146 143.461 212.146 143.07V78.7138C212.146 78.3227 212.222 77.9353 212.372 77.5739C212.521 77.2125 212.74 76.8841 213.017 76.6075C213.293 76.331 213.622 76.1118 213.983 75.9624C214.345 75.8131 214.732 75.7366 215.123 75.7373H330.616C331.405 75.7387 332.161 76.0528 332.719 76.6107C333.277 77.1686 333.591 77.9248 333.592 78.7138Z" fill="url(#paint5_linear)"/>
<path d="M333.592 122.54V143.07C333.591 143.859 333.277 144.615 332.719 145.173C332.161 145.731 331.405 146.045 330.616 146.046H276.814V125.522C276.814 124.731 277.128 123.973 277.687 123.413C278.247 122.854 279.005 122.54 279.796 122.54H333.592Z" fill="#50A4FE"/>
<path d="M273.634 125.206C273.64 125.618 273.6 126.03 273.516 126.434C273.458 126.736 273.315 127.015 273.103 127.238C272.89 127.452 272.623 127.603 272.331 127.678C271.933 127.777 271.523 127.822 271.113 127.812C270.702 127.822 270.29 127.777 269.89 127.678C269.596 127.606 269.327 127.454 269.113 127.238C268.91 127.011 268.771 126.733 268.711 126.434C268.626 126.03 268.587 125.618 268.593 125.206C268.587 124.783 268.626 124.36 268.711 123.946C268.774 123.643 268.912 123.361 269.113 123.125C269.324 122.904 269.594 122.748 269.89 122.675C270.291 122.579 270.702 122.533 271.113 122.54C271.523 122.533 271.932 122.578 272.331 122.675C272.625 122.751 272.892 122.907 273.103 123.125C273.313 123.355 273.456 123.639 273.516 123.946C273.6 124.36 273.64 124.783 273.634 125.206V125.206ZM273.098 119.972C273.087 120.086 273.05 120.196 272.99 120.293C272.914 120.404 272.806 120.489 272.679 120.535C272.484 120.61 272.281 120.661 272.073 120.685C271.762 120.725 271.448 120.743 271.135 120.739C270.819 120.743 270.504 120.725 270.191 120.685C269.985 120.66 269.783 120.609 269.59 120.535C269.464 120.489 269.355 120.404 269.279 120.293C269.219 120.196 269.182 120.086 269.172 119.972L268.705 103.754C268.704 103.609 268.741 103.467 268.813 103.341C268.907 103.204 269.042 103.101 269.199 103.046C269.44 102.956 269.693 102.9 269.949 102.88C270.343 102.839 270.739 102.821 271.135 102.826C271.529 102.823 271.923 102.842 272.315 102.885C272.568 102.912 272.817 102.974 273.055 103.067C273.21 103.122 273.346 103.221 273.446 103.352C273.527 103.47 273.569 103.611 273.564 103.754L273.098 119.972Z" fill="#F2F8FC"/>
<path d="M292.276 132.886H249.672C249.213 132.884 248.763 132.763 248.367 132.533C247.97 132.304 247.641 131.974 247.412 131.577C247.182 131.18 247.062 130.73 247.061 130.271C247.061 129.813 247.18 129.363 247.409 128.965L268.711 92.0675C268.941 91.6712 269.271 91.3423 269.668 91.1136C270.065 90.885 270.515 90.7646 270.974 90.7646C271.432 90.7646 271.882 90.885 272.279 91.1136C272.677 91.3423 273.007 91.6712 273.237 92.0675L294.539 128.965C294.767 129.363 294.887 129.813 294.886 130.271C294.886 130.73 294.765 131.18 294.536 131.577C294.307 131.974 293.977 132.304 293.581 132.533C293.184 132.763 292.734 132.884 292.276 132.886V132.886ZM250.085 130.032H291.863L270.947 93.8534L250.085 130.032Z" fill="#F2F8FC"/>
<path d="M199.238 107.658V115.434C199.238 115.825 199.161 116.213 199.011 116.574C198.861 116.936 198.641 117.264 198.364 117.541C198.087 117.817 197.758 118.036 197.397 118.186C197.035 118.335 196.647 118.411 196.256 118.411H167.907V110.64C167.907 109.85 168.22 109.092 168.778 108.533C169.337 107.974 170.094 107.659 170.883 107.658H199.238Z" fill="#F44E4E"/>
<path d="M421.256 107.658V115.434C421.257 115.825 421.181 116.213 421.031 116.574C420.882 116.935 420.663 117.264 420.386 117.54C420.11 117.817 419.781 118.036 419.42 118.185C419.058 118.335 418.671 118.411 418.28 118.411H390.151V110.64C390.151 109.85 390.464 109.092 391.022 108.533C391.58 107.974 392.337 107.659 393.127 107.658H421.256Z" fill="#F44E4E"/>
<g opacity="0.43">
<path opacity="0.43" d="M333.592 158.671H212.146V163.358H333.592V158.671Z" fill="#1A171B"/>
</g>
<g opacity="0.43">
<path opacity="0.43" d="M421.257 128.75H351.333V133.438H421.257V128.75Z" fill="#1A171B"/>
</g>
<g opacity="0.43">
<path opacity="0.43" d="M421.257 137.481H351.333V142.169H421.257V137.481Z" fill="#1A171B"/>
</g>
<g opacity="0.43">
<path opacity="0.43" d="M377.248 146.213H351.333V150.9H377.248V146.213Z" fill="#1A171B"/>
</g>
<g opacity="0.43">
<path opacity="0.43" d="M199.243 128.75H129.32V133.438H199.243V128.75Z" fill="#1A171B"/>
</g>
<g opacity="0.43">
<path opacity="0.43" d="M199.243 137.481H129.32V142.169H199.243V137.481Z" fill="#1A171B"/>
</g>
<g opacity="0.43">
<path opacity="0.43" d="M155.234 146.213H129.32V150.9H155.234V146.213Z" fill="#1A171B"/>
</g>
<g opacity="0.43">
<path opacity="0.43" d="M333.592 168.051H212.146V172.738H333.592V168.051Z" fill="#1A171B"/>
</g>
<g opacity="0.43">
<path opacity="0.43" d="M333.592 177.436H212.146V182.123H333.592V177.436Z" fill="#1A171B"/>
</g>
<path d="M383.978 248.041H345.16V343.256H383.978V248.041Z" fill="url(#paint6_linear)"/>
<path d="M423.729 231.683L420.007 235.148L419.932 235.223L419.54 235.293L383.79 242.071H366.57C366.57 242.071 366.382 237.625 370.125 236.88C373.869 236.135 379.21 236.88 379.21 236.88L412.617 225.28L413.566 224.266L416.103 221.547L417.175 220.383L418.006 221.826L423.729 231.683Z" fill="url(#paint7_linear)"/>
<path d="M423.729 231.683L420.007 235.148L419.54 235.292L383.791 242.071H372.104L372.276 241.728C372.456 241.369 372.742 241.074 373.095 240.883C373.448 240.691 373.851 240.612 374.25 240.655C376.731 240.963 379.226 241.142 381.726 241.192C384.048 241.095 415.781 232.675 416.049 231.721C416.317 230.766 413.545 224.293 413.545 224.293L416.081 221.574L418.012 221.853L423.729 231.683Z" fill="#FFA083"/>
<path d="M447.991 337.506H413.823C413.15 337.506 412.482 337.639 411.86 337.897C411.238 338.155 410.672 338.533 410.196 339.01C409.72 339.487 409.342 340.052 409.085 340.675C408.828 341.298 408.696 341.965 408.696 342.639V343.234H453.134V342.666C453.139 341.988 453.009 341.317 452.752 340.69C452.495 340.063 452.117 339.493 451.638 339.014C451.16 338.534 450.592 338.154 449.966 337.895C449.34 337.636 448.669 337.504 447.991 337.506V337.506Z" fill="#1E3851"/>
<path d="M433.586 291.813H428.207V337.507H433.586V291.813Z" fill="url(#paint8_linear)"/>
<path d="M420.248 323.729L423.144 329.226L420.248 333.366L415.223 333.071L410.868 325.831L420.248 323.729Z" fill="#FFA083"/>
<path d="M396.249 326.153L398.485 332.143L396.571 335.855L390.559 335.983L388.145 329.537L396.249 326.153Z" fill="#FFA083"/>
<path d="M423.729 260.96L373.316 267.814C371.936 268.006 370.618 268.511 369.463 269.292C368.309 270.073 367.349 271.108 366.657 272.318C365.965 273.528 365.559 274.88 365.472 276.271C365.384 277.662 365.617 279.055 366.151 280.342L387.486 332.036C387.486 332.036 393.551 332.916 398.083 329.596L384.643 278.025L419.658 274.963L423.729 260.96Z" fill="#39587C"/>
<path d="M461.742 198.861C461.742 198.861 471.181 198.829 479.151 200.508C480.351 200.76 481.42 201.438 482.159 202.417C482.899 203.396 483.259 204.61 483.173 205.833C482.218 219.541 478.539 263.373 469.567 282.45C469.568 283.277 469.405 284.096 469.089 284.861C468.773 285.625 468.309 286.32 467.725 286.905C467.14 287.49 466.446 287.955 465.681 288.271C464.917 288.588 464.098 288.751 463.271 288.751H393.246C391.936 288.75 390.68 288.229 389.754 287.303C388.828 286.377 388.308 285.121 388.306 283.812C388.306 282.502 388.827 281.245 389.753 280.319C390.679 279.393 391.936 278.872 393.246 278.872H435.168L461.742 198.861Z" fill="url(#paint9_linear)"/>
<path d="M472.511 206.981C471.739 220.469 469.406 249.939 463.394 261.394C459.522 268.758 456.851 273.096 455.135 275.612C454.45 276.618 453.53 277.442 452.454 278.012C451.378 278.581 450.179 278.878 448.962 278.878H411.957C411.957 278.878 433.474 253.773 433.742 225.827L422.624 234.981L414.998 223.639L414.15 222.384L427.767 204.766L438.815 199.462L440.032 198.877L450.501 191.063L451.365 192.533L466.472 197.504C468.342 198.256 469.93 199.574 471.013 201.273C472.096 202.973 472.619 204.969 472.511 206.981V206.981Z" fill="url(#paint10_linear)"/>
<path d="M422.104 162.811L422.27 160.317C422.278 160.252 422.265 160.186 422.234 160.129C422.203 160.071 422.154 160.025 422.095 159.996C422.036 159.967 421.97 159.957 421.905 159.968C421.84 159.978 421.781 160.009 421.734 160.055L419.921 161.604C419.877 161.648 419.82 161.677 419.76 161.688C419.699 161.699 419.636 161.693 419.579 161.669C419.522 161.645 419.473 161.604 419.438 161.553C419.404 161.502 419.385 161.441 419.385 161.379L419.095 154.563C419.092 154.484 419.118 154.407 419.169 154.346C419.219 154.286 419.291 154.246 419.369 154.236L419.674 154.198C419.715 154.192 419.756 154.194 419.796 154.205C419.836 154.215 419.873 154.233 419.906 154.258C419.938 154.283 419.965 154.315 419.986 154.35C420.006 154.386 420.018 154.425 420.023 154.466L420.592 158.853C420.598 158.903 420.617 158.951 420.645 158.992C420.674 159.034 420.713 159.068 420.757 159.092C420.802 159.115 420.851 159.128 420.902 159.128C420.952 159.129 421.002 159.117 421.047 159.095L422.758 158.247C422.808 158.223 422.863 158.212 422.918 158.215C422.973 158.219 423.026 158.236 423.072 158.267C423.118 158.297 423.156 158.339 423.18 158.388C423.205 158.438 423.217 158.492 423.214 158.548L422.983 162.623C422.981 162.667 422.969 162.71 422.949 162.749C422.929 162.788 422.9 162.822 422.865 162.849L422.587 163.079C422.539 163.109 422.484 163.125 422.428 163.126C422.371 163.128 422.316 163.114 422.267 163.087C422.217 163.059 422.176 163.019 422.148 162.971C422.119 162.923 422.104 162.867 422.104 162.811V162.811Z" fill="#F2F8FC"/>
<path d="M418.157 164.592L417.91 162.827C417.904 162.783 417.885 162.742 417.856 162.708C417.827 162.675 417.788 162.651 417.745 162.639C417.702 162.628 417.656 162.629 417.614 162.644C417.572 162.658 417.535 162.685 417.508 162.72L416.467 164.066C416.442 164.1 416.407 164.125 416.368 164.14C416.328 164.155 416.285 164.158 416.244 164.15C416.202 164.142 416.164 164.122 416.134 164.093C416.103 164.064 416.081 164.027 416.071 163.986L414.896 159.282C414.882 159.228 414.889 159.17 414.916 159.12C414.943 159.07 414.988 159.033 415.041 159.014L415.245 158.944C415.273 158.934 415.303 158.93 415.333 158.931C415.362 158.933 415.392 158.94 415.419 158.953C415.446 158.966 415.47 158.985 415.49 159.007C415.509 159.029 415.525 159.056 415.534 159.084L416.569 162.06C416.581 162.095 416.601 162.125 416.627 162.15C416.653 162.175 416.685 162.193 416.72 162.203C416.755 162.213 416.791 162.215 416.827 162.208C416.862 162.2 416.895 162.185 416.923 162.162L417.996 161.32C418.027 161.297 418.064 161.281 418.102 161.276C418.141 161.271 418.18 161.276 418.217 161.29C418.253 161.305 418.285 161.329 418.309 161.359C418.333 161.39 418.349 161.426 418.355 161.465L418.795 164.345C418.803 164.408 418.785 164.472 418.747 164.522L418.58 164.72C418.556 164.767 418.516 164.804 418.468 164.824C418.419 164.844 418.365 164.847 418.315 164.832C418.265 164.817 418.222 164.784 418.193 164.74C418.164 164.697 418.151 164.644 418.157 164.592V164.592Z" fill="#F2F8FC"/>
<path d="M446.635 278.878H402.824L421.46 324.244C421.46 324.244 416.864 328.582 410.997 330.116L381.855 280.68C380.817 278.908 380.252 276.9 380.215 274.847C380.177 272.794 380.669 270.766 381.641 268.958C382.614 267.15 384.036 265.622 385.769 264.522C387.503 263.422 389.49 262.786 391.54 262.676L438.526 259.85C439.736 259.785 440.939 260.069 441.993 260.667C443.047 261.264 443.908 262.152 444.473 263.223C446.682 267.416 448.085 271.985 448.608 276.695C448.637 276.971 448.607 277.25 448.521 277.514C448.434 277.778 448.294 278.02 448.108 278.226C447.921 278.432 447.694 278.596 447.44 278.709C447.187 278.821 446.912 278.879 446.635 278.878V278.878Z" fill="#39587C"/>
<path d="M444.602 224.995C444.5 224.996 444.401 224.96 444.323 224.894C444.277 224.857 444.24 224.811 444.212 224.76C444.184 224.708 444.167 224.651 444.161 224.593C444.155 224.535 444.16 224.476 444.177 224.42C444.194 224.364 444.222 224.311 444.259 224.266L452.48 214.135C452.556 214.045 452.663 213.987 452.781 213.975C452.898 213.963 453.015 213.997 453.108 214.071C453.154 214.107 453.192 214.153 453.22 214.204C453.249 214.255 453.267 214.312 453.273 214.37C453.279 214.429 453.274 214.488 453.258 214.544C453.242 214.6 453.214 214.653 453.177 214.698L444.929 224.829C444.889 224.879 444.84 224.919 444.783 224.948C444.727 224.976 444.665 224.993 444.602 224.995V224.995Z" fill="#3EA3ED"/>
<path d="M449.702 241.996C449.61 242.016 449.514 242.006 449.427 241.968C449.341 241.93 449.269 241.865 449.222 241.784C449.175 241.702 449.155 241.607 449.165 241.513C449.175 241.419 449.215 241.331 449.278 241.261L458.337 231.034C458.414 230.945 458.524 230.891 458.641 230.883C458.759 230.875 458.875 230.914 458.964 230.991C459.053 231.07 459.108 231.18 459.116 231.299C459.124 231.417 459.085 231.534 459.007 231.624L449.943 241.873C449.878 241.938 449.793 241.981 449.702 241.996V241.996Z" fill="#3EA3ED"/>
<path d="M450.785 235.582C450.785 235.582 451.155 241.31 449.579 242.173C448.002 243.037 445.556 236.033 445.556 236.033L449.144 234.37L450.785 235.582Z" fill="#3EA3ED"/>
<path d="M450.786 235.582L447.981 238.655C447.285 239.413 446.325 239.875 445.299 239.948L413.893 242.093H397.268C396.838 242.094 396.417 241.969 396.056 241.735C395.695 241.501 395.41 241.167 395.235 240.774C395.166 240.625 395.114 240.468 395.08 240.307L394.436 236.333C394.396 236.138 394.401 235.937 394.448 235.744C394.496 235.551 394.586 235.371 394.711 235.217C394.837 235.063 394.996 234.939 395.175 234.853C395.355 234.768 395.551 234.724 395.75 234.724H399.638C399.638 234.724 399.724 232.804 403.838 233.078C407.951 233.351 408.069 235.529 408.069 235.529L439.679 229.184L443.567 225.017L444.248 224.288C448.378 227.393 450.941 231.045 450.786 235.582Z" fill="url(#paint11_linear)"/>
<path d="M450.785 235.582L447.98 238.655C447.285 239.413 446.325 239.875 445.299 239.948L413.893 242.093H397.268C396.837 242.093 396.416 241.969 396.056 241.735C395.695 241.501 395.41 241.167 395.235 240.774C399.419 241.538 403.683 241.766 407.924 241.455C414.628 240.838 442.585 238.307 442.585 238.307C443.154 235.089 448.184 234.815 448.184 234.815C447.873 231.544 443.572 224.995 443.572 224.995L444.253 224.266C448.377 227.393 450.941 231.045 450.785 235.582Z" fill="#FFA083"/>
<path d="M423.144 329.226L427.499 333.098C427.773 333.338 427.988 333.639 428.127 333.976C428.266 334.313 428.325 334.678 428.299 335.042C428.273 335.406 428.163 335.758 427.977 336.073C427.792 336.387 427.537 336.654 427.231 336.852L417.535 343.288H405.243C405.023 343.288 404.813 343.201 404.659 343.046C404.504 342.891 404.417 342.681 404.417 342.462V341.089C404.412 340.701 404.548 340.325 404.8 340.029C405.051 339.733 405.401 339.538 405.784 339.48L411.946 338.509L415.25 333.05L423.144 329.226Z" fill="#50A4FE"/>
<path d="M398.485 332.144L402.835 336.01C403.109 336.25 403.325 336.55 403.464 336.887C403.603 337.224 403.662 337.589 403.637 337.953C403.611 338.316 403.502 338.669 403.317 338.984C403.132 339.298 402.877 339.565 402.572 339.764L391.111 343.234H378.776C378.557 343.234 378.347 343.147 378.192 342.992C378.037 342.838 377.95 342.627 377.95 342.408V341.089C377.946 340.701 378.082 340.325 378.333 340.029C378.584 339.733 378.934 339.538 379.318 339.48L385.48 338.509L390.542 335.962L398.485 332.144Z" fill="#50A4FE"/>
<path d="M438.569 288.751H423.23V291.813H438.569V288.751Z" fill="#1E3851"/>
<path d="M439.952 205.94C439.948 208.935 439.228 211.885 437.852 214.544C436.475 217.203 434.483 219.494 432.04 221.226C429.598 222.959 426.777 224.081 423.812 224.501C420.847 224.921 417.825 224.625 414.998 223.638L414.151 222.384L427.767 204.766L438.815 199.462C439.575 201.537 439.96 203.731 439.952 205.94V205.94Z" fill="#73C5FE"/>
<path d="M433.715 225.811C433.487 222.554 433.02 219.318 432.315 216.13C432.315 216.13 432.154 226.417 428.084 230.466L433.715 225.811Z" fill="#1E3851"/>
<path d="M419.455 181.555C419.455 181.555 416.805 182.869 415.7 179.608C414.596 176.347 418.602 176.83 417.567 170.893C416.532 164.956 420.785 167.241 423.815 166.41C426.845 165.578 428.379 162.564 432.396 163.331C436.412 164.098 437.871 164.64 441.368 164.222C444.865 163.803 448.951 165.332 449.595 169.322C450.238 173.312 452.813 177.677 454.245 180.986C455.676 184.295 454.196 189.567 449.289 189.653C445.898 189.788 442.527 190.233 439.217 190.983L419.455 181.555Z" fill="#B5703C"/>
<path d="M451.96 195.182C451.96 196.463 451.579 197.716 450.868 198.781C450.156 199.846 449.144 200.676 447.96 201.166C446.777 201.656 445.475 201.784 444.218 201.535C442.962 201.285 441.808 200.668 440.901 199.762L440.017 198.878C439.536 199.342 438.995 199.739 438.408 200.057C433.946 202.481 428.373 200.883 425.536 196.668C421.31 190.34 419.455 181.56 419.455 181.56C419.455 181.56 418.564 179.603 422.136 180.949C425.708 182.295 425.821 174.819 428.765 176.771C431.709 178.723 434.782 177.989 437.437 178.654C440.092 179.319 439.797 181.56 439.797 181.56C439.797 181.56 442.36 179.769 443.626 181.92C444.892 184.07 442.961 187.17 442.961 187.17C443.749 188.052 444.733 188.736 445.834 189.168C446.935 189.599 448.123 189.765 449.3 189.653L449.702 190.146L450.464 191.064C451.429 192.219 451.958 193.677 451.96 195.182Z" fill="url(#paint12_linear)"/>
<path d="M440.017 198.872C441.235 197.677 442.122 196.185 442.591 194.544C442.591 194.544 442.473 198.684 441.668 200.411L440.017 198.872Z" fill="#1E3851"/>
<path d="M431.183 185.76C431.473 186.468 431.376 187.181 430.958 187.369C430.54 187.556 429.971 187.106 429.676 186.398C429.381 185.69 429.483 184.971 429.902 184.789C430.32 184.607 430.888 185.052 431.183 185.76Z" fill="#1E3851"/>
<path d="M425.15 187.385C425.445 188.098 425.343 188.811 424.925 188.994C424.507 189.176 423.938 188.725 423.643 188.017C423.348 187.31 423.455 186.596 423.868 186.409C424.281 186.221 424.861 186.677 425.15 187.385Z" fill="#1E3851"/>
<path d="M430.862 181.185L428.084 184.537" stroke="#1E3851" stroke-width="0.402227" stroke-miterlimit="10" stroke-linecap="round"/>
<path d="M421.38 184.537L425.547 185.449" stroke="#1E3851" stroke-width="0.402227" stroke-miterlimit="10" stroke-linecap="round"/>
<path d="M428.802 195.499H428.749C428.691 195.485 428.642 195.449 428.611 195.399C428.58 195.349 428.569 195.288 428.582 195.231C428.706 194.737 429.183 193.863 430.127 194.083C430.974 194.282 431.736 193.938 431.822 193.498C431.982 192.974 432.334 192.53 432.808 192.254C432.99 192.142 433.193 192.069 433.405 192.04C433.616 192.011 433.832 192.028 434.037 192.088C434.068 192.094 434.097 192.106 434.123 192.124C434.149 192.142 434.171 192.165 434.188 192.192C434.204 192.219 434.215 192.249 434.219 192.281C434.223 192.312 434.22 192.344 434.211 192.374C434.202 192.404 434.186 192.432 434.166 192.456C434.145 192.48 434.12 192.5 434.091 192.513C434.063 192.527 434.032 192.534 434 192.535C433.968 192.535 433.937 192.529 433.908 192.517C433.762 192.474 433.608 192.463 433.457 192.485C433.307 192.506 433.162 192.559 433.034 192.64C432.666 192.854 432.391 193.196 432.261 193.6C432.106 194.26 431.189 194.78 430.025 194.517C429.274 194.346 429.028 195.295 429.017 195.338C429.004 195.385 428.976 195.426 428.937 195.455C428.898 195.484 428.851 195.5 428.802 195.499Z" fill="#F44E4E"/>
<path d="M442.28 185.411C442.236 185.436 442.186 185.446 442.137 185.439C442.087 185.432 442.041 185.409 442.006 185.374C441.971 185.338 441.949 185.292 441.943 185.242C441.937 185.193 441.948 185.142 441.974 185.1C441.974 185.1 442.247 184.692 442.044 184.456C441.84 184.22 441.507 184.456 441.507 184.456C441.457 184.486 441.398 184.496 441.341 184.483C441.282 184.467 441.232 184.428 441.202 184.376C440.999 184.097 440.862 183.776 440.8 183.438C440.738 183.099 440.752 182.751 440.842 182.418C440.924 182.22 441.046 182.042 441.2 181.893C441.354 181.744 441.537 181.629 441.738 181.555C441.795 181.538 441.856 181.543 441.909 181.57C441.962 181.597 442.003 181.643 442.022 181.7C442.031 181.727 442.035 181.757 442.032 181.786C442.03 181.815 442.022 181.843 442.008 181.869C441.995 181.895 441.976 181.918 441.954 181.937C441.931 181.956 441.905 181.97 441.877 181.978C441.74 182.032 441.614 182.113 441.508 182.217C441.402 182.32 441.318 182.443 441.261 182.579C441.199 182.816 441.188 183.063 441.229 183.304C441.27 183.545 441.361 183.775 441.497 183.979C441.651 183.917 441.82 183.904 441.982 183.941C442.144 183.979 442.291 184.065 442.403 184.188C442.523 184.364 442.583 184.574 442.575 184.788C442.568 185.001 442.492 185.206 442.36 185.373L442.28 185.411Z" fill="#F44E4E"/>
<path d="M449.723 190.146C443.207 190.345 441.647 187.695 441.647 187.695C442.371 187.937 442.982 187.159 442.982 187.159C443.77 188.041 444.754 188.726 445.855 189.157C446.957 189.588 448.144 189.754 449.321 189.642L449.723 190.146Z" fill="#FFA083"/>
<path d="M388.419 291.813L381.854 280.68L394.431 315.518L388.419 291.813Z" fill="#1E3851"/>
<path d="M393.401 239.733H338.097C337.851 239.733 337.652 239.933 337.652 240.179V241.562C337.652 241.808 337.851 242.007 338.097 242.007H393.401C393.647 242.007 393.846 241.808 393.846 241.562V240.179C393.846 239.933 393.647 239.733 393.401 239.733Z" fill="#B5B5B5"/>
<path d="M510.235 242.071H291.326V248.04H510.235V242.071Z" fill="url(#paint13_linear)"/>
<path d="M345.166 248.041H291.326V343.25H345.166V248.041Z" fill="url(#paint14_linear)"/>
<path d="M461.694 248.041H455.151V343.256H461.694V248.041Z" fill="url(#paint15_linear)"/>
<path d="M504.931 248.041H498.382V343.256H504.931V248.041Z" fill="url(#paint16_linear)"/>
<path d="M510.229 242.071H468.21V248.04H510.229V242.071Z" fill="#BA804D"/>
<path d="M383.978 248.041H291.326V249.88H383.978V248.041Z" fill="#1E3851"/>
<path d="M461.694 248.041H455.151V249.88H461.694V248.041Z" fill="#1E3851"/>
<path d="M504.931 248.041H498.382V249.88H504.931V248.041Z" fill="#1E3851"/>
<path d="M322.314 242.071H311.513C311.365 242.071 311.223 242.016 311.113 241.917C311.003 241.818 310.933 241.682 310.918 241.535L309.882 233.389C309.871 233.305 309.878 233.219 309.902 233.138C309.926 233.057 309.968 232.982 310.024 232.918C310.08 232.855 310.149 232.804 310.226 232.77C310.304 232.735 310.388 232.717 310.472 232.718H323.344C323.429 232.718 323.513 232.735 323.59 232.77C323.668 232.804 323.737 232.855 323.794 232.918C323.85 232.982 323.892 233.057 323.917 233.138C323.942 233.219 323.95 233.304 323.939 233.389L322.899 241.535C322.884 241.681 322.816 241.816 322.709 241.915C322.601 242.014 322.46 242.069 322.314 242.071Z" fill="url(#paint17_linear)"/>
<path d="M317.155 218.275C316.453 218.275 315.758 218.423 315.117 218.709C314.476 218.995 313.902 219.413 313.434 219.936C312.965 220.458 312.612 221.074 312.397 221.743C312.183 222.411 312.112 223.118 312.189 223.815L313.176 232.756H320.802L322.116 224.009C322.222 223.296 322.174 222.569 321.973 221.878C321.773 221.186 321.425 220.546 320.954 220.001C320.482 219.457 319.899 219.02 319.243 218.723C318.587 218.425 317.875 218.272 317.155 218.275V218.275Z" fill="url(#paint18_linear)"/>
<path d="M316.989 222.212C316.989 222.307 316.961 222.399 316.908 222.477C316.856 222.556 316.781 222.617 316.694 222.653C316.607 222.689 316.511 222.699 316.418 222.68C316.326 222.662 316.24 222.616 316.174 222.55C316.107 222.483 316.062 222.398 316.043 222.305C316.025 222.213 316.034 222.117 316.07 222.03C316.106 221.942 316.168 221.868 316.246 221.815C316.325 221.763 316.417 221.735 316.511 221.735C316.638 221.735 316.759 221.785 316.849 221.875C316.938 221.964 316.989 222.086 316.989 222.212V222.212Z" fill="#4A9B43"/>
<path d="M318.935 225.033C318.934 225.127 318.905 225.219 318.852 225.297C318.799 225.374 318.724 225.435 318.637 225.47C318.55 225.505 318.454 225.514 318.362 225.495C318.269 225.476 318.185 225.43 318.119 225.363C318.052 225.296 318.007 225.211 317.989 225.119C317.972 225.026 317.981 224.931 318.018 224.844C318.054 224.757 318.115 224.683 318.193 224.63C318.272 224.578 318.364 224.55 318.458 224.55C318.521 224.55 318.584 224.563 318.642 224.587C318.7 224.611 318.753 224.647 318.797 224.692C318.842 224.737 318.877 224.79 318.901 224.849C318.924 224.907 318.936 224.97 318.935 225.033V225.033Z" fill="#4A9B43"/>
<path d="M316.114 227.709C316.115 227.805 316.088 227.899 316.035 227.979C315.982 228.06 315.907 228.122 315.819 228.16C315.73 228.197 315.633 228.207 315.539 228.188C315.445 228.17 315.358 228.124 315.29 228.056C315.222 227.988 315.176 227.902 315.158 227.807C315.139 227.713 315.15 227.616 315.187 227.527C315.224 227.439 315.287 227.364 315.367 227.311C315.447 227.258 315.541 227.231 315.637 227.232C315.764 227.232 315.885 227.282 315.974 227.372C316.064 227.461 316.114 227.583 316.114 227.709V227.709Z" fill="#4A9B43"/>
<path d="M313.497 221.408C313.429 221.409 313.363 221.386 313.309 221.343C312.5 220.684 311.636 218.774 311.599 218.694C311.583 218.658 311.574 218.62 311.573 218.581C311.572 218.542 311.578 218.503 311.592 218.467C311.606 218.431 311.627 218.397 311.654 218.369C311.681 218.341 311.713 218.318 311.749 218.303C311.784 218.286 311.823 218.278 311.862 218.276C311.901 218.275 311.94 218.282 311.976 218.296C312.012 218.31 312.046 218.331 312.074 218.358C312.102 218.385 312.125 218.417 312.14 218.453C312.371 218.989 313.1 220.405 313.685 220.877C313.734 220.916 313.77 220.969 313.787 221.029C313.805 221.089 313.803 221.153 313.783 221.212C313.762 221.271 313.723 221.322 313.672 221.358C313.621 221.394 313.56 221.413 313.497 221.413V221.408Z" fill="#4A9B43"/>
<path d="M316.511 219.616C316.437 219.617 316.366 219.589 316.311 219.54C316.257 219.49 316.223 219.422 316.216 219.348L316.023 217.643C316.021 217.567 316.047 217.494 316.097 217.437C316.147 217.38 316.216 217.344 316.291 217.336C316.366 217.328 316.441 217.348 316.502 217.393C316.563 217.438 316.604 217.504 316.618 217.578L316.806 219.279C316.811 219.318 316.809 219.358 316.798 219.396C316.788 219.434 316.77 219.469 316.745 219.5C316.721 219.531 316.69 219.557 316.655 219.576C316.621 219.595 316.583 219.607 316.543 219.611L316.511 219.616Z" fill="#4A9B43"/>
<path d="M320.008 221.167C319.955 221.166 319.903 221.153 319.856 221.126C319.81 221.1 319.772 221.062 319.745 221.016C319.708 220.948 319.699 220.868 319.72 220.792C319.741 220.717 319.79 220.653 319.858 220.614L321.681 219.584C321.752 219.546 321.836 219.537 321.913 219.561C321.99 219.584 322.056 219.637 322.094 219.708C322.132 219.779 322.141 219.862 322.118 219.94C322.095 220.017 322.042 220.082 321.971 220.121L320.153 221.15C320.106 221.168 320.057 221.174 320.008 221.167Z" fill="#4A9B43"/>
<path d="M317.981 221.649C317.95 221.654 317.92 221.654 317.889 221.649C317.814 221.624 317.752 221.571 317.716 221.501C317.68 221.431 317.673 221.349 317.696 221.274L318.174 219.767C318.199 219.692 318.253 219.631 318.323 219.595C318.393 219.559 318.474 219.551 318.549 219.574C318.587 219.585 318.622 219.604 318.652 219.629C318.682 219.655 318.707 219.686 318.725 219.721C318.743 219.756 318.754 219.794 318.757 219.833C318.76 219.872 318.755 219.912 318.742 219.949L318.265 221.456C318.243 221.513 318.204 221.563 318.153 221.597C318.102 221.632 318.042 221.65 317.981 221.649Z" fill="#4A9B43"/>
<path d="M322.652 224.851H322.571L320.464 224.282C320.388 224.261 320.324 224.211 320.285 224.143C320.246 224.074 320.235 223.994 320.255 223.918C320.276 223.842 320.326 223.777 320.394 223.737C320.462 223.697 320.543 223.685 320.619 223.703L322.727 224.277C322.765 224.287 322.8 224.304 322.831 224.328C322.862 224.352 322.888 224.382 322.908 224.415C322.927 224.449 322.94 224.487 322.945 224.526C322.95 224.565 322.947 224.604 322.936 224.642C322.917 224.702 322.879 224.755 322.828 224.792C322.777 224.83 322.715 224.85 322.652 224.851Z" fill="#4A9B43"/>
<path d="M322.448 228.465H321.477C321.435 228.471 321.392 228.467 321.351 228.455C321.31 228.443 321.272 228.422 321.24 228.394C321.207 228.365 321.182 228.331 321.164 228.292C321.146 228.253 321.137 228.21 321.137 228.168C321.137 228.125 321.146 228.082 321.164 228.043C321.182 228.004 321.207 227.97 321.24 227.941C321.272 227.913 321.31 227.892 321.351 227.88C321.392 227.868 321.435 227.864 321.477 227.87H322.448C322.49 227.864 322.534 227.868 322.575 227.88C322.616 227.892 322.654 227.913 322.686 227.941C322.718 227.97 322.744 228.004 322.762 228.043C322.779 228.082 322.788 228.125 322.788 228.168C322.788 228.21 322.779 228.253 322.762 228.292C322.744 228.331 322.718 228.365 322.686 228.394C322.654 228.422 322.616 228.443 322.575 228.455C322.534 228.467 322.49 228.471 322.448 228.465Z" fill="#4A9B43"/>
<path d="M312.623 228.01C312.563 227.999 312.507 227.971 312.462 227.929L311.556 227.21C311.505 227.158 311.475 227.089 311.472 227.016C311.468 226.944 311.491 226.872 311.536 226.815C311.581 226.758 311.646 226.719 311.718 226.706C311.789 226.693 311.863 226.706 311.926 226.744L312.832 227.462C312.893 227.512 312.933 227.584 312.942 227.662C312.951 227.74 312.929 227.819 312.88 227.881C312.852 227.923 312.814 227.957 312.769 227.979C312.724 228.002 312.673 228.012 312.623 228.01V228.01Z" fill="#4A9B43"/>
<path d="M314.452 225.398C314.399 225.398 314.347 225.384 314.301 225.356C314.256 225.329 314.219 225.289 314.194 225.242L313.427 223.837C313.409 223.802 313.397 223.763 313.393 223.724C313.39 223.684 313.394 223.644 313.405 223.606C313.417 223.568 313.436 223.532 313.462 223.502C313.487 223.471 313.518 223.446 313.553 223.427C313.589 223.408 313.627 223.397 313.667 223.393C313.707 223.389 313.747 223.393 313.785 223.405C313.823 223.417 313.858 223.436 313.889 223.461C313.92 223.487 313.945 223.518 313.964 223.553L314.731 224.958C314.749 224.992 314.761 225.03 314.766 225.068C314.77 225.107 314.767 225.146 314.756 225.184C314.745 225.221 314.726 225.256 314.702 225.286C314.677 225.317 314.647 225.342 314.613 225.36C314.564 225.389 314.508 225.402 314.452 225.398V225.398Z" fill="#4A9B43"/>
<path d="M318.222 229.404C318.146 229.405 318.073 229.376 318.018 229.324C317.962 229.267 317.931 229.191 317.931 229.112C317.931 229.032 317.962 228.956 318.018 228.9L319.327 227.505C319.354 227.478 319.387 227.456 319.423 227.441C319.458 227.426 319.497 227.418 319.536 227.418C319.575 227.418 319.613 227.426 319.649 227.441C319.685 227.456 319.718 227.478 319.745 227.505C319.773 227.532 319.796 227.565 319.811 227.601C319.826 227.637 319.834 227.676 319.834 227.715C319.834 227.754 319.826 227.792 319.811 227.828C319.796 227.864 319.773 227.897 319.745 227.924L318.436 229.318C318.408 229.346 318.375 229.368 318.338 229.383C318.301 229.398 318.262 229.405 318.222 229.404V229.404Z" fill="#4A9B43"/>
<path d="M314.452 230.932C314.406 230.933 314.36 230.922 314.319 230.902C314.278 230.881 314.243 230.851 314.216 230.814L313.261 229.538C313.213 229.475 313.193 229.396 313.203 229.318C313.214 229.24 313.255 229.17 313.317 229.122C313.38 229.074 313.459 229.054 313.537 229.064C313.615 229.075 313.685 229.116 313.733 229.178L314.693 230.439C314.739 230.503 314.758 230.582 314.747 230.66C314.736 230.738 314.696 230.808 314.634 230.857C314.584 230.903 314.519 230.93 314.452 230.932V230.932Z" fill="#4A9B43"/>
<path d="M312.188 224.127C312.157 224.135 312.124 224.135 312.092 224.127L310.526 223.564C310.481 223.559 310.438 223.544 310.4 223.52C310.362 223.496 310.33 223.464 310.307 223.426C310.283 223.388 310.268 223.345 310.264 223.3C310.259 223.255 310.265 223.21 310.281 223.168C310.296 223.126 310.321 223.088 310.354 223.057C310.386 223.026 310.425 223.003 310.468 222.989C310.511 222.976 310.556 222.972 310.601 222.979C310.645 222.985 310.687 223.002 310.724 223.028L312.29 223.591C312.355 223.616 312.408 223.663 312.442 223.723C312.475 223.784 312.487 223.854 312.475 223.922C312.463 223.99 312.428 224.052 312.376 224.097C312.324 224.142 312.257 224.168 312.188 224.17V224.127Z" fill="#4A9B43"/>
<path d="M320.533 231.715H320.448L319.252 231.361C319.214 231.351 319.18 231.333 319.149 231.309C319.119 231.285 319.094 231.255 319.076 231.221C319.057 231.187 319.046 231.15 319.042 231.111C319.038 231.073 319.042 231.034 319.053 230.997C319.063 230.959 319.081 230.924 319.104 230.893C319.128 230.862 319.158 230.836 319.192 230.817C319.226 230.798 319.264 230.786 319.303 230.782C319.341 230.778 319.381 230.781 319.418 230.793L320.619 231.141C320.686 231.164 320.742 231.209 320.779 231.269C320.816 231.329 320.83 231.4 320.82 231.47C320.81 231.539 320.776 231.603 320.723 231.65C320.671 231.697 320.604 231.724 320.533 231.726V231.715Z" fill="#4A9B43"/>
<path d="M399.091 186.457H335.019C333.375 186.457 332.042 187.79 332.042 189.434V228.718C332.042 230.362 333.375 231.694 335.019 231.694H399.091C400.735 231.694 402.068 230.362 402.068 228.718V189.434C402.068 187.79 400.735 186.457 399.091 186.457Z" fill="url(#paint19_linear)"/>
<path d="M364.773 214.141C367.978 214.141 370.576 211.543 370.576 208.338C370.576 205.133 367.978 202.535 364.773 202.535C361.568 202.535 358.97 205.133 358.97 208.338C358.97 211.543 361.568 214.141 364.773 214.141Z" fill="#F2F8FC"/>
<path d="M372.206 231.683V238.655C372.206 239.107 372.294 239.555 372.467 239.973C372.64 240.392 372.893 240.771 373.213 241.091C373.533 241.411 373.913 241.665 374.331 241.837C374.749 242.01 375.197 242.099 375.649 242.098H360.397C359.488 242.092 358.617 241.727 357.976 241.082C357.335 240.437 356.975 239.564 356.975 238.655V231.683H372.206Z" fill="url(#paint20_linear)"/>
<path d="M334.987 183.207L333.86 178.621C333.831 178.51 333.769 178.411 333.684 178.334C333.599 178.257 333.493 178.206 333.38 178.188C333.266 178.17 333.15 178.185 333.045 178.232C332.94 178.278 332.851 178.354 332.788 178.45L330.417 182.273C330.359 182.371 330.275 182.449 330.174 182.5C330.073 182.551 329.96 182.572 329.847 182.561C329.734 182.549 329.627 182.506 329.538 182.436C329.45 182.367 329.382 182.273 329.345 182.166L324.926 170.062C324.877 169.921 324.881 169.767 324.939 169.63C324.996 169.492 325.102 169.381 325.237 169.316L325.773 169.075C325.844 169.042 325.921 169.023 325.999 169.019C326.078 169.016 326.156 169.028 326.23 169.055C326.304 169.082 326.372 169.123 326.429 169.176C326.487 169.229 326.534 169.293 326.567 169.365L330.085 176.927C330.125 177.013 330.185 177.088 330.26 177.146C330.335 177.205 330.423 177.244 330.516 177.262C330.61 177.279 330.706 177.274 330.797 177.246C330.888 177.219 330.971 177.17 331.039 177.103L333.641 174.604C333.715 174.531 333.808 174.48 333.909 174.454C334.01 174.428 334.117 174.429 334.217 174.458C334.318 174.486 334.409 174.54 334.482 174.615C334.555 174.689 334.607 174.782 334.633 174.883L336.537 182.343C336.557 182.424 336.561 182.508 336.547 182.59C336.533 182.673 336.502 182.751 336.456 182.82L336.059 183.416C335.994 183.512 335.901 183.586 335.794 183.63C335.686 183.674 335.568 183.686 335.454 183.664C335.34 183.641 335.235 183.586 335.152 183.505C335.069 183.424 335.011 183.32 334.987 183.207V183.207Z" fill="#F2F8FC"/>
<path d="M328.916 188.661L327.479 185.625C327.443 185.549 327.385 185.486 327.312 185.443C327.24 185.4 327.157 185.379 327.073 185.384C326.989 185.389 326.908 185.418 326.841 185.469C326.774 185.519 326.723 185.589 326.696 185.668L325.623 188.688C325.596 188.762 325.548 188.827 325.486 188.876C325.424 188.925 325.349 188.955 325.27 188.963C325.191 188.972 325.112 188.958 325.041 188.923C324.969 188.889 324.909 188.835 324.867 188.768L319.97 180.959C319.913 180.87 319.891 180.762 319.91 180.658C319.929 180.553 319.987 180.46 320.072 180.396L320.405 180.15C320.495 180.083 320.609 180.055 320.72 180.071C320.831 180.087 320.932 180.146 321 180.235L324.567 184.998C324.606 185.053 324.657 185.098 324.718 185.129C324.778 185.161 324.845 185.177 324.912 185.177C324.98 185.177 325.047 185.161 325.107 185.129C325.167 185.098 325.219 185.053 325.258 184.998L326.706 182.853C326.748 182.79 326.805 182.74 326.872 182.707C326.939 182.673 327.013 182.658 327.088 182.663C327.162 182.668 327.234 182.693 327.296 182.734C327.359 182.776 327.408 182.834 327.441 182.901L329.871 187.835C329.895 187.889 329.907 187.947 329.907 188.007C329.907 188.066 329.895 188.124 329.871 188.178L329.688 188.634C329.657 188.71 329.605 188.775 329.538 188.821C329.471 188.868 329.392 188.894 329.311 188.897C329.229 188.9 329.149 188.879 329.078 188.837C329.008 188.795 328.952 188.734 328.916 188.661Z" fill="#F2F8FC"/>
<path d="M354.83 186.457V193.778C354.829 194.251 354.64 194.704 354.305 195.039C353.971 195.373 353.517 195.562 353.044 195.563H332.042V189.434C332.042 189.042 332.12 188.655 332.27 188.293C332.419 187.932 332.639 187.603 332.916 187.327C333.193 187.05 333.522 186.831 333.884 186.682C334.245 186.533 334.633 186.456 335.024 186.457H354.83Z" fill="#EAEAEA"/>
<path d="M445.465 40.223V47.7956H107.337V40.223C107.337 38.6427 107.965 37.1272 109.082 36.0098C110.199 34.8924 111.715 34.2646 113.295 34.2646H439.528C441.104 34.2717 442.614 34.9024 443.726 36.0189C444.839 37.1354 445.464 38.6469 445.465 40.223V40.223Z" fill="#4F5053"/>
<path d="M250.787 75.7373H247.768C247.899 76.4791 247.966 77.231 247.966 77.9844C248.002 79.7369 247.687 81.4787 247.041 83.1081C246.395 84.7374 245.43 86.2214 244.203 87.4733C242.976 88.7251 241.512 89.7197 239.896 90.3986C238.28 91.0775 236.545 91.4272 234.792 91.4272C233.039 91.4272 231.304 91.0775 229.688 90.3986C228.072 89.7197 226.608 88.7251 225.381 87.4733C224.154 86.2214 223.189 84.7374 222.543 83.1081C221.897 81.4787 221.582 79.7369 221.618 77.9844C221.616 77.2312 221.681 76.4793 221.811 75.7373H218.797C218.688 76.4814 218.635 77.2325 218.636 77.9844C218.666 80.1814 219.145 82.3491 220.042 84.3549C220.939 86.3606 222.236 88.1623 223.853 89.6497C225.47 91.1371 227.374 92.2789 229.447 93.0053C231.521 93.7317 233.721 94.0274 235.913 93.8743C238.105 93.7213 240.242 93.1226 242.195 92.1151C244.148 91.1075 245.874 89.7122 247.269 88.0145C248.664 86.3168 249.698 84.3523 250.307 82.2413C250.917 80.1304 251.089 77.9172 250.814 75.7373H250.787Z" fill="#73C5FE"/>
<path d="M132.747 75.7373L133.144 89.4023C133.158 89.5581 133.207 89.7085 133.289 89.8421C133.396 89.993 133.545 90.1087 133.718 90.1746C133.984 90.2811 134.264 90.3514 134.549 90.3837C135.413 90.491 136.286 90.491 137.15 90.3837C137.439 90.352 137.722 90.2816 137.992 90.1746C138.166 90.1105 138.316 89.9944 138.421 89.8421C138.503 89.7082 138.554 89.5581 138.571 89.4023L138.963 75.7373H132.747ZM139.183 94.8887C139.101 94.4663 138.904 94.0747 138.614 93.7571C138.323 93.4521 137.951 93.2363 137.542 93.135C136.993 92.9998 136.428 92.9385 135.863 92.9526C135.296 92.9398 134.73 93.0011 134.179 93.135C133.768 93.2322 133.395 93.4487 133.106 93.7571C132.827 94.0781 132.642 94.4695 132.57 94.8887C132.453 95.4602 132.399 96.0429 132.409 96.6263C132.399 97.199 132.453 97.7711 132.57 98.3318C132.645 98.7435 132.831 99.1271 133.106 99.4419C133.4 99.7406 133.772 99.9506 134.179 100.048C134.73 100.179 135.296 100.24 135.863 100.23C136.428 100.242 136.992 100.18 137.542 100.048C137.948 99.9479 138.319 99.7383 138.614 99.4419C138.901 99.1305 139.098 98.7466 139.183 98.3318C139.3 97.7711 139.354 97.199 139.344 96.6263C139.35 96.0426 139.293 95.4598 139.172 94.8887H139.183Z" fill="#FC8D8D"/>
<path d="M192.523 82.9717H135.997V87.0583H192.523V82.9717Z" fill="#EAEAEA"/>
<path d="M192.523 90.7642H135.997V94.8508H192.523V90.7642Z" fill="#EAEAEA"/>
<path d="M164.26 98.5513H135.997V102.638H164.26V98.5513Z" fill="#EAEAEA"/>
<path d="M354.927 75.7373L355.323 89.4023C355.337 89.5581 355.387 89.7085 355.468 89.8421C355.575 89.993 355.724 90.1087 355.897 90.1746C356.164 90.2811 356.443 90.3514 356.728 90.3837C357.592 90.491 358.466 90.491 359.33 90.3837C359.618 90.352 359.902 90.2816 360.172 90.1746C360.345 90.1105 360.495 89.9944 360.601 89.8421C360.682 89.7085 360.732 89.5581 360.745 89.4023L361.142 75.7373H354.927ZM361.362 94.8887C361.281 94.4663 361.084 94.0747 360.794 93.7571C360.502 93.4521 360.13 93.2363 359.721 93.135C359.172 92.9998 358.608 92.9385 358.042 92.9526C357.476 92.9395 356.909 93.0008 356.358 93.135C355.947 93.2322 355.574 93.4487 355.286 93.7571C355.007 94.0781 354.821 94.4695 354.75 94.8887C354.632 95.4602 354.578 96.0429 354.589 96.6263C354.578 97.199 354.632 97.7711 354.75 98.3318C354.825 98.7435 355.01 99.1271 355.286 99.4419C355.579 99.7406 355.951 99.9506 356.358 100.048C356.91 100.179 357.476 100.241 358.042 100.23C358.607 100.242 359.172 100.18 359.721 100.048C360.127 99.9479 360.498 99.7383 360.794 99.4419C361.081 99.1305 361.277 98.7466 361.362 98.3318C361.479 97.7711 361.533 97.199 361.523 96.6263C361.53 96.0426 361.472 95.4598 361.351 94.8887H361.362Z" fill="#FC8D8D"/>
<path d="M414.563 82.9717H358.037V87.0583H414.563V82.9717Z" fill="#EAEAEA"/>
<path d="M414.563 90.7642H358.037V94.8508H414.563V90.7642Z" fill="#EAEAEA"/>
<path d="M386.3 98.5513H358.037V102.638H386.3V98.5513Z" fill="#EAEAEA"/>
</g>
<defs>
<linearGradient id="paint0_linear" x1="427.199" y1="115.563" x2="200.734" y2="337.635" gradientUnits="userSpaceOnUse">
<stop stop-color="#F2F8FC"/>
<stop offset="1" stop-color="#E8F1F9"/>
</linearGradient>
<linearGradient id="paint1_linear" x1="434.283" y1="21.093" x2="118.54" y2="224.931" gradientUnits="userSpaceOnUse">
<stop stop-color="#B6BCC2"/>
<stop offset="1" stop-color="#93969C"/>
</linearGradient>
<linearGradient id="paint2_linear" x1="510.138" y1="160.8" x2="461.093" y2="193.321" gradientUnits="userSpaceOnUse">
<stop stop-color="#FF813B"/>
<stop offset="1" stop-color="#F44E4E"/>
</linearGradient>
<linearGradient id="paint3_linear" x1="210.5" y1="69.1944" x2="150.627" y2="105.309" gradientUnits="userSpaceOnUse">
<stop stop-color="#FC8D8D"/>
<stop offset="1" stop-color="#F44E4E"/>
</linearGradient>
<linearGradient id="paint4_linear" x1="55436.8" y1="5714.49" x2="50670" y2="11237.4" gradientUnits="userSpaceOnUse">
<stop stop-color="#FC8D8D"/>
<stop offset="1" stop-color="#F44E4E"/>
</linearGradient>
<linearGradient id="paint5_linear" x1="320.984" y1="66.5558" x2="251.157" y2="130.896" gradientUnits="userSpaceOnUse">
<stop stop-color="#73C5FE"/>
<stop offset="1" stop-color="#50A4FE"/>
</linearGradient>
<linearGradient id="paint6_linear" x1="364.569" y1="339.689" x2="364.569" y2="229.2" gradientUnits="userSpaceOnUse">
<stop stop-color="#E2A97F"/>
<stop offset="0.2" stop-color="#D09769"/>
<stop offset="0.41" stop-color="#C48A59"/>
<stop offset="0.66" stop-color="#BC8250"/>
<stop offset="1" stop-color="#BA804D"/>
</linearGradient>
<linearGradient id="paint7_linear" x1="378.207" y1="242.731" x2="431.291" y2="221.536" gradientUnits="userSpaceOnUse">
<stop stop-color="#FFD3AB"/>
<stop offset="1" stop-color="#FFA083"/>
</linearGradient>
<linearGradient id="paint8_linear" x1="430.899" y1="330.931" x2="430.899" y2="292.704" gradientUnits="userSpaceOnUse">
<stop stop-color="#EAEAEA"/>
<stop offset="1" stop-color="#CECECE"/>
</linearGradient>
<linearGradient id="paint9_linear" x1="453.172" y1="193.466" x2="428.84" y2="285.174" gradientUnits="userSpaceOnUse">
<stop stop-color="#CECECE"/>
<stop offset="1" stop-color="#B5B5B5"/>
</linearGradient>
<linearGradient id="paint10_linear" x1="53009.8" y1="28628" x2="46110" y2="40322" gradientUnits="userSpaceOnUse">
<stop stop-color="#73C5FE"/>
<stop offset="1" stop-color="#50A4FE"/>
</linearGradient>
<linearGradient id="paint11_linear" x1="43378.1" y1="8198.2" x2="47022" y2="5158.39" gradientUnits="userSpaceOnUse">
<stop stop-color="#FFD3AB"/>
<stop offset="1" stop-color="#FFA083"/>
</linearGradient>
<linearGradient id="paint12_linear" x1="27272.9" y1="9751.12" x2="26723.6" y2="8255.96" gradientUnits="userSpaceOnUse">
<stop stop-color="#FFD3AB"/>
<stop offset="1" stop-color="#FFA083"/>
</linearGradient>
<linearGradient id="paint13_linear" x1="447.771" y1="242.157" x2="281.174" y2="252.433" gradientUnits="userSpaceOnUse">
<stop stop-color="#E2A97F"/>
<stop offset="1" stop-color="#BA804D"/>
</linearGradient>
<linearGradient id="paint14_linear" x1="32152.4" y1="57662.5" x2="32152.4" y2="36382.1" gradientUnits="userSpaceOnUse">
<stop stop-color="#E2A97F"/>
<stop offset="0.2" stop-color="#D09769"/>
<stop offset="0.41" stop-color="#C48A59"/>
<stop offset="0.66" stop-color="#BC8250"/>
<stop offset="1" stop-color="#BA804D"/>
</linearGradient>
<linearGradient id="paint15_linear" x1="6037.23" y1="62392.2" x2="6037.23" y2="41075.4" gradientUnits="userSpaceOnUse">
<stop stop-color="#E2A97F"/>
<stop offset="1" stop-color="#BA804D"/>
</linearGradient>
<linearGradient id="paint16_linear" x1="6612.96" y1="60329.8" x2="6612.96" y2="43364.4" gradientUnits="userSpaceOnUse">
<stop stop-color="#E2A97F"/>
<stop offset="1" stop-color="#BA804D"/>
</linearGradient>
<linearGradient id="paint17_linear" x1="8599.43" y1="4304.52" x2="8599.43" y2="4453.14" gradientUnits="userSpaceOnUse">
<stop stop-color="#EAEAEA"/>
<stop offset="1" stop-color="#CECECE"/>
</linearGradient>
<linearGradient id="paint18_linear" x1="321.96" y1="217.332" x2="312.634" y2="234.418" gradientUnits="userSpaceOnUse">
<stop stop-color="#85D680"/>
<stop offset="1" stop-color="#4A9B43"/>
</linearGradient>
<linearGradient id="paint19_linear" x1="50170.3" y1="16628.4" x2="46037" y2="22465.4" gradientUnits="userSpaceOnUse">
<stop stop-color="#EAEAEA"/>
<stop offset="1" stop-color="#CECECE"/>
</linearGradient>
<linearGradient id="paint20_linear" x1="13107.6" y1="4628.69" x2="13107.6" y2="5020.92" gradientUnits="userSpaceOnUse">
<stop stop-color="#EAEAEA"/>
<stop offset="1" stop-color="#CECECE"/>
</linearGradient>
<clipPath id="clip0">
<rect width="530.57" height="344.591" fill="white" transform="translate(0.869995)"/>
</clipPath>
</defs>
</svg>
