<svg width="990" height="643" viewBox="0 0 990 643" fill="none" xmlns="http://www.w3.org/2000/svg">
<g clip-path="url(#clip0)">
<path d="M913.91 640H166.18C166.18 640 10 514 182.91 409.87C355.82 305.74 364.66 273.32 366.19 233.08C367.72 192.84 366.34 7.99981 511.82 0.36981C657.3 -7.26019 682.63 105.47 695.82 155.05C709.01 204.63 760 294.7 850.21 320C936.76 344.21 1050.46 486.71 913.91 640Z" fill="url(#paint0_linear)"/>
<path d="M817.93 63.8496H209.63C203.494 63.8496 198.52 68.8237 198.52 74.9596V383.77C198.52 389.905 203.494 394.88 209.63 394.88H817.93C824.066 394.88 829.04 389.905 829.04 383.77V74.9596C829.04 68.8237 824.066 63.8496 817.93 63.8496Z" fill="url(#paint1_linear)"/>
<path d="M865.64 299.17V349.76C865.643 350.446 865.856 351.114 866.252 351.674C866.648 352.234 867.207 352.659 867.852 352.891C868.498 353.122 869.199 353.149 869.861 352.969C870.522 352.788 871.112 352.408 871.55 351.88L878.34 343.61C878.654 343.229 879.048 342.922 879.494 342.711C879.94 342.501 880.427 342.391 880.92 342.39H972C972.883 342.39 973.73 342.039 974.355 341.415C974.979 340.79 975.33 339.943 975.33 339.06V299.17C975.33 298.287 974.979 297.44 974.355 296.815C973.73 296.191 972.883 295.84 972 295.84H869C868.56 295.836 868.124 295.919 867.716 296.085C867.309 296.25 866.938 296.495 866.626 296.805C866.314 297.114 866.066 297.483 865.896 297.889C865.727 298.295 865.64 298.73 865.64 299.17V299.17Z" fill="url(#paint2_linear)"/>
<g opacity="0.43">
<path opacity="0.43" d="M622.77 149.79H406.31C403.549 149.79 401.31 152.029 401.31 154.79V275.9C401.31 278.661 403.549 280.9 406.31 280.9H622.77C625.531 280.9 627.77 278.661 627.77 275.9V154.79C627.77 152.029 625.531 149.79 622.77 149.79Z" fill="#1A171B"/>
</g>
<path d="M888 331.57C888.007 332.067 887.96 332.563 887.86 333.05C887.792 333.424 887.618 333.771 887.36 334.05C887.106 334.31 886.784 334.494 886.43 334.58C885.953 334.698 885.462 334.752 884.97 334.74C884.475 334.752 883.981 334.698 883.5 334.58C883.146 334.494 882.824 334.31 882.57 334.05C882.319 333.768 882.153 333.422 882.09 333.05C881.985 332.564 881.938 332.067 881.95 331.57C881.937 331.063 881.984 330.556 882.09 330.06C882.157 329.689 882.323 329.344 882.57 329.06C882.825 328.798 883.146 328.611 883.5 328.52C883.982 328.406 884.475 328.352 884.97 328.36C885.461 328.352 885.952 328.406 886.43 328.52C886.783 328.611 887.105 328.798 887.36 329.06C887.614 329.342 887.786 329.687 887.86 330.06C887.961 330.556 888.008 331.063 888 331.57ZM887.33 325.28C887.32 325.419 887.276 325.553 887.2 325.67C887.108 325.801 886.979 325.902 886.83 325.96C886.596 326.054 886.351 326.114 886.1 326.14C885.725 326.187 885.348 326.21 884.97 326.21C884.589 326.211 884.208 326.188 883.83 326.14C883.586 326.115 883.347 326.054 883.12 325.96C882.968 325.901 882.836 325.801 882.74 325.67C882.67 325.55 882.626 325.417 882.61 325.28L882.05 305.8C882.05 305.628 882.095 305.459 882.18 305.31C882.296 305.15 882.456 305.028 882.64 304.96C882.933 304.849 883.239 304.779 883.55 304.75C884.022 304.705 884.496 304.685 884.97 304.69C885.444 304.683 885.919 304.706 886.39 304.76C886.695 304.796 886.994 304.87 887.28 304.98C887.467 305.044 887.63 305.162 887.75 305.32C887.843 305.463 887.891 305.629 887.89 305.8L887.33 325.28Z" fill="#F2F8FC"/>
<path d="M946.22 304.69H903.13C902.578 304.69 902.13 305.138 902.13 305.69V311.96C902.13 312.512 902.578 312.96 903.13 312.96H946.22C946.772 312.96 947.22 312.512 947.22 311.96V305.69C947.22 305.138 946.772 304.69 946.22 304.69Z" fill="#EF631D"/>
<path d="M963.71 316.47H903.13C902.578 316.47 902.13 316.917 902.13 317.47V323.74C902.13 324.292 902.578 324.74 903.13 324.74H963.71C964.262 324.74 964.71 324.292 964.71 323.74V317.47C964.71 316.917 964.262 316.47 963.71 316.47Z" fill="#EF631D"/>
<path d="M963.71 328.25H903.13C902.578 328.25 902.13 328.698 902.13 329.25V335.52C902.13 336.072 902.578 336.52 903.13 336.52H963.71C964.262 336.52 964.71 336.072 964.71 335.52V329.25C964.71 328.698 964.262 328.25 963.71 328.25Z" fill="#EF631D"/>
<g opacity="0.43">
<path opacity="0.43" d="M305.29 63.8496H284.51C289.827 73.8923 292.598 85.0863 292.58 96.4496C292.586 107.7 289.884 118.787 284.703 128.773C279.521 138.759 272.013 147.352 262.81 153.825C253.608 160.297 242.984 164.46 231.834 165.961C220.684 167.463 209.336 166.258 198.75 162.45V182.25C214.693 186.661 231.549 186.542 247.428 181.906C263.306 177.27 277.579 168.301 288.643 156.004C299.708 143.708 307.127 128.572 310.067 112.293C313.008 96.0153 311.353 79.2398 305.29 63.8496V63.8496Z" fill="#1A171B"/>
</g>
<g opacity="0.35">
<path opacity="0.35" d="M829.27 74.9996V182.2H768.58C767.85 182.2 767.128 182.056 766.454 181.776C765.78 181.497 765.168 181.087 764.652 180.571C764.137 180.054 763.728 179.441 763.45 178.767C763.171 178.092 763.029 177.369 763.03 176.64V63.8496H818.16C819.622 63.8496 821.07 64.1383 822.421 64.6991C823.771 65.2599 824.998 66.0819 826.03 67.1178C827.062 68.1537 827.88 69.3832 828.436 70.7357C828.992 72.0883 829.275 73.5373 829.27 74.9996V74.9996Z" fill="#EEF6F7"/>
</g>
<g opacity="0.43">
<path opacity="0.43" d="M370.59 149.51H250.21C247.449 149.51 245.21 151.748 245.21 154.51V224.09C245.21 226.851 247.449 229.09 250.21 229.09H370.59C373.351 229.09 375.59 226.851 375.59 224.09V154.51C375.59 151.748 373.351 149.51 370.59 149.51Z" fill="#1A171B"/>
</g>
<g opacity="0.43">
<path opacity="0.43" d="M784.58 149.51H664.2C661.439 149.51 659.2 151.748 659.2 154.51V224.09C659.2 226.851 661.439 229.09 664.2 229.09H784.58C787.341 229.09 789.58 226.851 789.58 224.09V154.51C789.58 151.748 787.341 149.51 784.58 149.51Z" fill="#1A171B"/>
</g>
<path d="M364.33 141.22H245.06C241.995 141.22 239.51 143.705 239.51 146.77V215.25C239.51 218.315 241.995 220.8 245.06 220.8H364.33C367.395 220.8 369.88 218.315 369.88 215.25V146.77C369.88 143.705 367.395 141.22 364.33 141.22Z" fill="url(#paint3_linear)"/>
<path d="M778.31 141.22H659.03C655.965 141.22 653.48 143.705 653.48 146.77V215.25C653.48 218.315 655.965 220.8 659.03 220.8H778.31C781.375 220.8 783.86 218.315 783.86 215.25V146.77C783.86 143.705 781.375 141.22 778.31 141.22Z" fill="url(#paint4_linear)"/>
<path d="M2.5 640.03H986.81" stroke="#ABCBDD" stroke-width="5" stroke-linecap="round" stroke-linejoin="round"/>
<path d="M620.4 146.77V266.77C620.397 268.241 619.812 269.651 618.772 270.691C617.731 271.732 616.321 272.317 614.85 272.32H399.5C398.771 272.321 398.049 272.178 397.375 271.9C396.701 271.622 396.088 271.213 395.573 270.697C395.057 270.182 394.648 269.569 394.37 268.895C394.091 268.221 393.949 267.499 393.95 266.77V146.77C393.949 146.041 394.091 145.318 394.37 144.644C394.648 143.97 395.057 143.358 395.573 142.842C396.088 142.327 396.701 141.918 397.375 141.64C398.049 141.361 398.771 141.218 399.5 141.22H614.85C616.321 141.222 617.731 141.808 618.772 142.848C619.812 143.888 620.397 145.299 620.4 146.77Z" fill="url(#paint5_linear)"/>
<path d="M620.4 228.49V266.77C620.397 268.241 619.812 269.651 618.772 270.691C617.731 271.732 616.321 272.317 614.85 272.32H514.53V234.05C514.53 232.575 515.116 231.161 516.159 230.118C517.201 229.076 518.615 228.49 520.09 228.49H620.4Z" fill="#50A4FE"/>
<path d="M508.6 233.46C508.611 234.229 508.537 234.997 508.38 235.75C508.272 236.313 508.005 236.834 507.61 237.25C507.212 237.647 506.715 237.931 506.17 238.07C505.428 238.255 504.664 238.339 503.9 238.32C503.132 238.338 502.366 238.254 501.62 238.07C501.07 237.936 500.569 237.652 500.17 237.25C499.792 236.825 499.533 236.307 499.42 235.75C499.263 234.997 499.189 234.229 499.2 233.46C499.189 232.671 499.263 231.883 499.42 231.11C499.538 230.545 499.796 230.019 500.17 229.58C500.564 229.168 501.067 228.877 501.62 228.74C502.366 228.561 503.132 228.477 503.9 228.49C504.664 228.477 505.427 228.561 506.17 228.74C506.718 228.882 507.216 229.173 507.61 229.58C508.002 230.01 508.269 230.539 508.38 231.11C508.537 231.883 508.611 232.671 508.6 233.46V233.46ZM507.6 223.7C507.581 223.913 507.512 224.118 507.4 224.3C507.258 224.507 507.056 224.664 506.82 224.75C506.457 224.89 506.077 224.985 505.69 225.03C505.11 225.104 504.525 225.138 503.94 225.13C503.352 225.139 502.763 225.106 502.18 225.03C501.796 224.983 501.42 224.889 501.06 224.75C500.824 224.664 500.622 224.507 500.48 224.3C500.368 224.118 500.299 223.913 500.28 223.7L499.41 193.46C499.407 193.19 499.476 192.924 499.61 192.69C499.786 192.435 500.038 192.243 500.33 192.14C500.78 191.972 501.251 191.867 501.73 191.83C502.464 191.754 503.202 191.721 503.94 191.73C504.675 191.723 505.409 191.76 506.14 191.84C506.613 191.891 507.077 192.005 507.52 192.18C507.81 192.282 508.063 192.466 508.25 192.71C508.402 192.93 508.479 193.193 508.47 193.46L507.6 223.7Z" fill="#F2F8FC"/>
<path d="M543.36 247.78H463.92C463.065 247.778 462.226 247.551 461.487 247.123C460.747 246.695 460.133 246.08 459.706 245.34C459.278 244.6 459.053 243.76 459.052 242.906C459.051 242.051 459.274 241.211 459.7 240.47L499.42 171.67C499.849 170.931 500.465 170.318 501.205 169.891C501.946 169.465 502.785 169.241 503.64 169.241C504.495 169.241 505.334 169.465 506.075 169.891C506.815 170.318 507.431 170.931 507.86 171.67L547.58 240.47C548.006 241.211 548.229 242.051 548.228 242.906C548.227 243.76 548.002 244.6 547.574 245.34C547.147 246.08 546.533 246.695 545.793 247.123C545.054 247.551 544.215 247.778 543.36 247.78V247.78ZM464.69 242.46H542.59L503.59 175L464.69 242.46Z" fill="#F2F8FC"/>
<path d="M369.88 200.74V215.24C369.88 215.969 369.736 216.692 369.457 217.366C369.177 218.04 368.767 218.652 368.251 219.168C367.734 219.683 367.121 220.092 366.447 220.37C365.772 220.648 365.05 220.791 364.32 220.79H311.46V206.3C311.46 204.827 312.044 203.414 313.085 202.372C314.126 201.329 315.537 200.742 317.01 200.74H369.88Z" fill="#F44E4E"/>
<path d="M783.86 200.74V215.24C783.861 215.969 783.719 216.691 783.44 217.365C783.162 218.039 782.753 218.651 782.237 219.167C781.722 219.683 781.109 220.092 780.435 220.37C779.761 220.648 779.039 220.791 778.31 220.79H725.86V206.3C725.86 204.827 726.444 203.414 727.485 202.372C728.525 201.329 729.937 200.742 731.41 200.74H783.86Z" fill="#F44E4E"/>
<g opacity="0.43">
<path opacity="0.43" d="M620.4 295.86H393.95V304.6H620.4V295.86Z" fill="#1A171B"/>
</g>
<g opacity="0.43">
<path opacity="0.43" d="M783.86 240.07H653.48V248.81H783.86V240.07Z" fill="#1A171B"/>
</g>
<g opacity="0.43">
<path opacity="0.43" d="M783.86 256.35H653.48V265.09H783.86V256.35Z" fill="#1A171B"/>
</g>
<g opacity="0.43">
<path opacity="0.43" d="M701.8 272.63H653.48V281.37H701.8V272.63Z" fill="#1A171B"/>
</g>
<g opacity="0.43">
<path opacity="0.43" d="M369.89 240.07H239.51V248.81H369.89V240.07Z" fill="#1A171B"/>
</g>
<g opacity="0.43">
<path opacity="0.43" d="M369.89 256.35H239.51V265.09H369.89V256.35Z" fill="#1A171B"/>
</g>
<g opacity="0.43">
<path opacity="0.43" d="M287.83 272.63H239.51V281.37H287.83V272.63Z" fill="#1A171B"/>
</g>
<g opacity="0.43">
<path opacity="0.43" d="M620.4 313.35H393.95V322.09H620.4V313.35Z" fill="#1A171B"/>
</g>
<g opacity="0.43">
<path opacity="0.43" d="M620.4 330.85H393.95V339.59H620.4V330.85Z" fill="#1A171B"/>
</g>
<path d="M714.35 462.5H641.97V640.04H714.35V462.5Z" fill="url(#paint6_linear)"/>
<path d="M788.47 432L781.53 438.46L781.39 438.6L780.66 438.73L714 451.37H681.89C681.89 451.37 681.54 443.08 688.52 441.69C695.5 440.3 705.46 441.69 705.46 441.69L767.75 420.06L769.52 418.17L774.25 413.1L776.25 410.93L777.8 413.62L788.47 432Z" fill="url(#paint7_linear)"/>
<path d="M788.47 432L781.53 438.46L780.66 438.73L714 451.37H692.21L692.53 450.73C692.866 450.061 693.399 449.511 694.057 449.153C694.714 448.796 695.466 448.648 696.21 448.73C700.836 449.303 705.489 449.637 710.15 449.73C714.48 449.55 773.65 433.85 774.15 432.07C774.65 430.29 769.48 418.22 769.48 418.22L774.21 413.15L777.81 413.67L788.47 432Z" fill="#FFA083"/>
<path d="M833.71 629.32H770C768.744 629.32 767.5 629.567 766.339 630.049C765.179 630.53 764.124 631.235 763.237 632.123C762.349 633.012 761.645 634.067 761.165 635.228C760.685 636.389 760.439 637.634 760.44 638.89V640H843.3V638.94C843.308 637.677 843.065 636.425 842.587 635.256C842.108 634.087 841.402 633.025 840.511 632.13C839.619 631.236 838.559 630.527 837.392 630.045C836.224 629.562 834.973 629.316 833.71 629.32V629.32Z" fill="#1E3851"/>
<path d="M806.85 544.12H796.82V629.32H806.85V544.12Z" fill="url(#paint8_linear)"/>
<path d="M781.98 603.63L787.38 613.88L781.98 621.6L772.61 621.05L764.49 607.55L781.98 603.63Z" fill="#FFA083"/>
<path d="M737.23 608.15L741.4 619.32L737.83 626.24L726.62 626.48L722.12 614.46L737.23 608.15Z" fill="#FFA083"/>
<path d="M788.47 486.59L694.47 499.37C691.896 499.727 689.438 500.67 687.285 502.126C685.133 503.582 683.342 505.512 682.052 507.768C680.762 510.024 680.006 512.546 679.843 515.14C679.68 517.733 680.113 520.33 681.11 522.73L720.89 619.12C720.89 619.12 732.2 620.76 740.65 614.57L715.59 518.41L780.88 512.7L788.47 486.59Z" fill="#39587C"/>
<path d="M859.35 370.8C859.35 370.8 876.95 370.74 891.81 373.87C894.049 374.34 896.041 375.605 897.42 377.43C898.799 379.255 899.47 381.518 899.31 383.8C897.53 409.36 890.67 491.09 873.94 526.66C873.941 528.202 873.639 529.73 873.049 531.156C872.46 532.581 871.595 533.877 870.505 534.968C869.415 536.059 868.12 536.925 866.695 537.515C865.27 538.106 863.743 538.41 862.2 538.41H731.63C729.188 538.407 726.847 537.436 725.12 535.709C723.394 533.983 722.423 531.642 722.42 529.2C722.42 526.757 723.39 524.415 725.118 522.687C726.845 520.96 729.187 519.99 731.63 519.99H809.8L859.35 370.8Z" fill="url(#paint9_linear)"/>
<path d="M879.43 385.94C877.99 411.09 873.64 466.04 862.43 487.4C855.21 501.13 850.23 509.22 847.03 513.91C845.754 515.787 844.038 517.323 842.032 518.385C840.025 519.446 837.79 520.001 835.52 520H766.52C766.52 520 806.64 473.19 807.14 421.08L786.41 438.15L772.19 417L770.61 414.66L796 381.81L816.6 371.92L818.87 370.83L838.39 356.26L840 359L868.17 368.27C871.656 369.671 874.617 372.129 876.636 375.298C878.655 378.466 879.632 382.188 879.43 385.94V385.94Z" fill="url(#paint10_linear)"/>
<path d="M785.44 303.58L785.75 298.93C785.764 298.808 785.741 298.686 785.682 298.578C785.624 298.471 785.534 298.384 785.424 298.33C785.314 298.276 785.19 298.258 785.069 298.278C784.949 298.297 784.837 298.354 784.75 298.44L781.37 301.33C781.287 301.41 781.182 301.464 781.069 301.485C780.955 301.507 780.838 301.494 780.732 301.45C780.625 301.405 780.534 301.33 780.47 301.234C780.406 301.138 780.371 301.025 780.37 300.91L779.83 288.2C779.824 288.053 779.872 287.909 779.967 287.796C780.061 287.683 780.194 287.61 780.34 287.59L780.91 287.52C780.986 287.509 781.063 287.513 781.137 287.532C781.211 287.551 781.28 287.585 781.341 287.632C781.402 287.679 781.452 287.737 781.49 287.804C781.528 287.87 781.551 287.944 781.56 288.02L782.62 296.2C782.632 296.293 782.667 296.382 782.721 296.459C782.774 296.537 782.846 296.6 782.929 296.644C783.012 296.688 783.105 296.712 783.199 296.713C783.293 296.714 783.386 296.692 783.47 296.65L786.66 295.07C786.752 295.024 786.855 295.004 786.958 295.01C787.06 295.017 787.16 295.05 787.245 295.106C787.331 295.163 787.401 295.241 787.447 295.333C787.494 295.425 787.515 295.527 787.51 295.63L787.08 303.23C787.076 303.312 787.054 303.391 787.016 303.464C786.978 303.536 786.925 303.6 786.86 303.65L786.34 304.08C786.251 304.135 786.148 304.165 786.044 304.168C785.939 304.17 785.835 304.145 785.743 304.094C785.652 304.043 785.575 303.968 785.522 303.878C785.469 303.788 785.44 303.685 785.44 303.58V303.58Z" fill="#F2F8FC"/>
<path d="M778.08 306.9L777.62 303.61C777.609 303.527 777.574 303.45 777.519 303.387C777.464 303.325 777.392 303.28 777.312 303.259C777.232 303.237 777.147 303.24 777.068 303.267C776.989 303.294 776.92 303.344 776.87 303.41L774.93 305.92C774.882 305.982 774.818 306.03 774.744 306.057C774.67 306.085 774.59 306.091 774.513 306.076C774.436 306.06 774.365 306.023 774.308 305.969C774.251 305.915 774.21 305.846 774.19 305.77L772 297C771.974 296.898 771.988 296.79 772.038 296.697C772.088 296.604 772.171 296.534 772.27 296.5L772.65 296.37C772.703 296.351 772.758 296.342 772.814 296.345C772.87 296.348 772.924 296.362 772.975 296.386C773.025 296.411 773.07 296.445 773.107 296.486C773.144 296.528 773.172 296.577 773.19 296.63L775.12 302.18C775.142 302.243 775.179 302.301 775.228 302.347C775.277 302.393 775.336 302.427 775.401 302.446C775.465 302.464 775.534 302.467 775.6 302.454C775.666 302.441 775.728 302.412 775.78 302.37L777.78 300.8C777.838 300.755 777.906 300.727 777.979 300.717C778.051 300.707 778.124 300.717 778.192 300.744C778.259 300.771 778.319 300.815 778.364 300.873C778.409 300.93 778.439 300.998 778.45 301.07L779.27 306.44C779.285 306.557 779.252 306.676 779.18 306.77L778.87 307.14C778.825 307.227 778.751 307.295 778.66 307.333C778.57 307.371 778.469 307.376 778.375 307.347C778.282 307.319 778.201 307.259 778.147 307.177C778.093 307.095 778.069 306.997 778.08 306.9V306.9Z" fill="#F2F8FC"/>
<path d="M831.18 520H749.49L784.24 604.59C784.24 604.59 775.67 612.68 764.73 615.54L710.39 523.36C708.455 520.056 707.402 516.311 707.332 512.483C707.263 508.656 708.179 504.874 709.993 501.503C711.806 498.131 714.457 495.283 717.689 493.232C720.922 491.181 724.627 489.995 728.45 489.79L816.06 484.52C818.316 484.4 820.56 484.928 822.525 486.043C824.49 487.158 826.095 488.812 827.15 490.81C831.268 498.627 833.884 507.148 834.86 515.93C834.913 516.444 834.858 516.964 834.697 517.456C834.536 517.948 834.274 518.401 833.927 518.784C833.58 519.168 833.156 519.475 832.683 519.684C832.209 519.894 831.697 520.001 831.18 520V520Z" fill="#39587C"/>
<path d="M827.39 419.53C827.2 419.53 827.015 419.463 826.87 419.34C826.785 419.271 826.715 419.186 826.663 419.09C826.611 418.994 826.578 418.889 826.567 418.78C826.556 418.671 826.566 418.561 826.598 418.457C826.629 418.352 826.681 418.254 826.75 418.17L842.08 399.28C842.221 399.111 842.422 399.003 842.641 398.981C842.859 398.959 843.078 399.023 843.25 399.16C843.336 399.228 843.407 399.312 843.46 399.408C843.513 399.504 843.546 399.609 843.558 399.718C843.57 399.827 843.561 399.937 843.53 400.042C843.5 400.147 843.449 400.245 843.38 400.33L828 419.22C827.926 419.312 827.834 419.387 827.728 419.441C827.623 419.494 827.508 419.525 827.39 419.53V419.53Z" fill="#3EA3ED"/>
<path d="M836.9 451.23C836.728 451.267 836.549 451.249 836.388 451.178C836.227 451.106 836.092 450.986 836.005 450.833C835.917 450.681 835.879 450.504 835.898 450.329C835.917 450.154 835.991 449.99 836.11 449.86L853 430.79C853.145 430.624 853.349 430.523 853.568 430.508C853.788 430.493 854.004 430.565 854.17 430.71C854.336 430.856 854.438 431.062 854.453 431.283C854.468 431.504 854.395 431.722 854.25 431.89L837.35 451C837.227 451.121 837.07 451.201 836.9 451.23V451.23Z" fill="#3EA3ED"/>
<path d="M838.92 439.27C838.92 439.27 839.61 449.95 836.67 451.56C833.73 453.17 829.17 440.11 829.17 440.11L835.86 437.01L838.92 439.27Z" fill="#3EA3ED"/>
<path d="M838.92 439.27L833.69 445C832.392 446.412 830.603 447.275 828.69 447.41L770.13 451.41H739.13C738.328 451.411 737.543 451.179 736.87 450.743C736.197 450.306 735.666 449.683 735.34 448.95C735.21 448.672 735.113 448.38 735.05 448.08L733.85 440.67C733.776 440.307 733.783 439.931 733.872 439.572C733.961 439.212 734.129 438.876 734.363 438.589C734.598 438.301 734.893 438.07 735.228 437.911C735.563 437.752 735.929 437.67 736.3 437.67H743.55C743.55 437.67 743.71 434.09 751.38 434.6C759.05 435.11 759.27 439.17 759.27 439.17L818.21 427.34L825.46 419.57L826.73 418.21C834.43 424 839.21 430.81 838.92 439.27Z" fill="url(#paint11_linear)"/>
<path d="M838.92 439.27L833.69 445C832.392 446.412 830.603 447.275 828.69 447.41L770.13 451.41H739.13C738.328 451.411 737.543 451.179 736.87 450.743C736.197 450.306 735.666 449.683 735.34 448.95C743.141 450.375 751.091 450.801 759 450.22C771.5 449.07 823.63 444.35 823.63 444.35C824.69 438.35 834.07 437.84 834.07 437.84C833.49 431.74 825.47 419.53 825.47 419.53L826.74 418.17C834.43 424 839.21 430.81 838.92 439.27Z" fill="#FFA083"/>
<path d="M787.38 613.88L795.5 621.1C796.012 621.548 796.413 622.108 796.671 622.737C796.93 623.366 797.039 624.046 796.991 624.724C796.942 625.402 796.737 626.06 796.392 626.646C796.047 627.232 795.57 627.729 795 628.1L776.92 640.1H754C753.592 640.1 753.2 639.938 752.911 639.649C752.622 639.36 752.46 638.968 752.46 638.56V636C752.452 635.276 752.705 634.574 753.174 634.023C753.643 633.472 754.295 633.108 755.01 633L766.5 631.19L772.66 621.01L787.38 613.88Z" fill="#50A4FE"/>
<path d="M741.4 619.32L749.51 626.53C750.022 626.977 750.424 627.537 750.683 628.165C750.943 628.793 751.053 629.473 751.006 630.152C750.958 630.83 750.754 631.488 750.41 632.074C750.065 632.66 749.589 633.158 749.02 633.53L727.65 640H704.65C704.242 640 703.85 639.838 703.561 639.549C703.272 639.26 703.11 638.868 703.11 638.46V636C703.102 635.276 703.355 634.574 703.824 634.023C704.293 633.472 704.945 633.108 705.66 633L717.15 631.19L726.59 626.44L741.4 619.32Z" fill="#50A4FE"/>
<path d="M816.14 538.41H787.54V544.12H816.14V538.41Z" fill="#1E3851"/>
<path d="M818.72 384C818.713 389.583 817.37 395.083 814.803 400.042C812.237 405 808.522 409.273 803.967 412.503C799.413 415.732 794.153 417.826 788.625 418.608C783.097 419.391 777.462 418.839 772.19 417L770.61 414.66L796 381.81L816.6 371.92C818.017 375.789 818.735 379.879 818.72 384V384Z" fill="#73C5FE"/>
<path d="M807.09 421.05C806.666 414.977 805.793 408.944 804.48 403C804.48 403 804.18 422.18 796.59 429.73L807.09 421.05Z" fill="#1E3851"/>
<path d="M780.5 338.53C780.5 338.53 775.56 340.98 773.5 334.9C771.44 328.82 778.91 329.72 776.98 318.65C775.05 307.58 782.98 311.84 788.63 310.29C794.28 308.74 797.14 303.12 804.63 304.55C812.12 305.98 814.84 306.99 821.36 306.21C827.88 305.43 835.5 308.28 836.7 315.72C837.9 323.16 842.7 331.3 845.37 337.47C848.04 343.64 845.28 353.47 836.13 353.63C829.807 353.881 823.521 354.711 817.35 356.11L780.5 338.53Z" fill="#B5703C"/>
<path d="M841.11 363.94C841.109 366.328 840.4 368.663 839.073 370.649C837.746 372.635 835.859 374.183 833.652 375.097C831.445 376.011 829.017 376.25 826.674 375.784C824.332 375.318 822.179 374.168 820.49 372.48L818.84 370.83C817.944 371.695 816.935 372.435 815.84 373.03C807.52 377.55 797.13 374.57 791.84 366.71C783.96 354.91 780.5 338.54 780.5 338.54C780.5 338.54 778.84 334.89 785.5 337.4C792.16 339.91 792.37 325.97 797.86 329.61C803.35 333.25 809.08 331.88 814.03 333.12C818.98 334.36 818.43 338.54 818.43 338.54C818.43 338.54 823.21 335.2 825.57 339.21C827.93 343.22 824.33 349 824.33 349C825.799 350.644 827.634 351.92 829.688 352.725C831.741 353.529 833.955 353.839 836.15 353.63L836.9 354.55L838.32 356.26C840.12 358.415 841.107 361.132 841.11 363.94Z" fill="url(#paint12_linear)"/>
<path d="M818.84 370.82C821.112 368.592 822.767 365.811 823.64 362.75C823.64 362.75 823.42 370.47 821.92 373.69L818.84 370.82Z" fill="#1E3851"/>
<path d="M802.37 346.37C802.91 347.69 802.73 349.02 801.95 349.37C801.17 349.72 800.11 348.88 799.56 347.56C799.01 346.24 799.2 344.9 799.98 344.56C800.76 344.22 801.82 345.05 802.37 346.37Z" fill="#1E3851"/>
<path d="M791.12 349.4C791.67 350.73 791.48 352.06 790.7 352.4C789.92 352.74 788.86 351.9 788.31 350.58C787.76 349.26 787.96 347.93 788.73 347.58C789.5 347.23 790.58 348.08 791.12 349.4Z" fill="#1E3851"/>
<path d="M801.77 337.84L796.59 344.09" stroke="#1E3851" stroke-width="0.75" stroke-miterlimit="10" stroke-linecap="round"/>
<path d="M784.09 344.09L791.86 345.79" stroke="#1E3851" stroke-width="0.75" stroke-miterlimit="10" stroke-linecap="round"/>
<path d="M797.93 364.53H797.83C797.723 364.504 797.631 364.437 797.573 364.343C797.515 364.25 797.496 364.137 797.52 364.03C797.75 363.11 798.64 361.48 800.4 361.89C801.98 362.26 803.4 361.62 803.56 360.8C803.859 359.822 804.516 358.993 805.4 358.48C805.738 358.27 806.117 358.134 806.512 358.08C806.907 358.027 807.308 358.057 807.69 358.17C807.748 358.181 807.803 358.203 807.851 358.237C807.9 358.27 807.941 358.314 807.972 358.364C808.002 358.414 808.022 358.47 808.029 358.529C808.037 358.587 808.032 358.647 808.015 358.703C807.998 358.76 807.97 358.812 807.931 358.857C807.893 358.901 807.845 358.937 807.792 358.962C807.739 358.988 807.681 359.001 807.622 359.002C807.563 359.004 807.504 358.993 807.45 358.97C807.178 358.89 806.891 358.87 806.61 358.909C806.329 358.949 806.06 359.048 805.82 359.2C805.135 359.598 804.622 360.235 804.38 360.99C804.09 362.22 802.38 363.19 800.21 362.7C798.81 362.38 798.35 364.15 798.33 364.23C798.306 364.317 798.253 364.393 798.181 364.448C798.109 364.502 798.02 364.531 797.93 364.53Z" fill="#F44E4E"/>
<path d="M823.06 345.72C822.979 345.767 822.886 345.785 822.793 345.772C822.701 345.76 822.616 345.717 822.55 345.651C822.485 345.584 822.444 345.498 822.433 345.406C822.422 345.313 822.442 345.22 822.49 345.14C822.49 345.14 823 344.38 822.62 343.94C822.24 343.5 821.62 343.94 821.62 343.94C821.527 343.996 821.416 344.014 821.31 343.99C821.2 343.96 821.107 343.888 821.05 343.79C820.673 343.27 820.417 342.673 820.301 342.041C820.185 341.409 820.212 340.76 820.38 340.14C820.533 339.771 820.76 339.438 821.047 339.161C821.334 338.884 821.676 338.669 822.05 338.53C822.156 338.498 822.27 338.508 822.369 338.559C822.468 338.609 822.543 338.695 822.58 338.8C822.597 338.852 822.604 338.907 822.599 338.961C822.595 339.015 822.579 339.068 822.554 339.117C822.529 339.165 822.495 339.208 822.453 339.243C822.411 339.278 822.362 339.304 822.31 339.32C822.053 339.421 821.819 339.572 821.622 339.764C821.425 339.956 821.267 340.186 821.16 340.44C821.045 340.882 821.025 341.342 821.101 341.792C821.177 342.242 821.347 342.67 821.6 343.05C821.888 342.935 822.204 342.911 822.506 342.98C822.808 343.05 823.082 343.21 823.29 343.44C823.513 343.769 823.626 344.161 823.612 344.558C823.597 344.956 823.457 345.338 823.21 345.65L823.06 345.72Z" fill="#F44E4E"/>
<path d="M836.94 354.55C824.79 354.92 821.88 349.98 821.88 349.98C823.23 350.43 824.37 348.98 824.37 348.98C825.839 350.625 827.674 351.901 829.728 352.705C831.781 353.509 833.995 353.819 836.19 353.61L836.94 354.55Z" fill="#FFA083"/>
<path d="M722.63 544.12L710.39 523.36L733.84 588.32L722.63 544.12Z" fill="#1E3851"/>
<path d="M731.92 447.01H628.8C628.342 447.01 627.97 447.381 627.97 447.84V450.42C627.97 450.878 628.342 451.25 628.8 451.25H731.92C732.378 451.25 732.75 450.878 732.75 450.42V447.84C732.75 447.381 732.378 447.01 731.92 447.01Z" fill="#B5B5B5"/>
<path d="M949.77 451.37H541.59V462.5H949.77V451.37Z" fill="url(#paint13_linear)"/>
<path d="M641.98 462.5H541.59V640.03H641.98V462.5Z" fill="url(#paint14_linear)"/>
<path d="M859.26 462.5H847.06V640.04H859.26V462.5Z" fill="url(#paint15_linear)"/>
<path d="M939.88 462.5H927.67V640.04H939.88V462.5Z" fill="url(#paint16_linear)"/>
<path d="M949.76 451.37H871.41V462.5H949.76V451.37Z" fill="#BA804D"/>
<path d="M714.35 462.5H541.59V465.93H714.35V462.5Z" fill="#1E3851"/>
<path d="M859.26 462.5H847.06V465.93H859.26V462.5Z" fill="#1E3851"/>
<path d="M939.88 462.5H927.67V465.93H939.88V462.5Z" fill="#1E3851"/>
<path d="M599.37 451.37H579.23C578.954 451.369 578.689 451.266 578.484 451.082C578.279 450.897 578.15 450.644 578.12 450.37L576.19 435.18C576.168 435.023 576.181 434.864 576.226 434.713C576.272 434.561 576.35 434.422 576.454 434.303C576.558 434.184 576.687 434.09 576.831 434.025C576.976 433.961 577.132 433.928 577.29 433.93H601.29C601.448 433.928 601.605 433.961 601.75 434.025C601.895 434.09 602.024 434.184 602.129 434.303C602.234 434.421 602.313 434.561 602.359 434.712C602.406 434.863 602.42 435.023 602.4 435.18L600.46 450.37C600.433 450.641 600.307 450.893 600.106 451.078C599.905 451.262 599.643 451.366 599.37 451.37Z" fill="url(#paint17_linear)"/>
<path d="M589.75 407C588.441 406.999 587.146 407.274 585.951 407.807C584.755 408.341 583.685 409.12 582.812 410.095C581.938 411.07 581.279 412.218 580.879 413.465C580.479 414.711 580.347 416.028 580.49 417.33L582.33 434H596.55L599 417.69C599.199 416.362 599.108 415.006 598.734 413.716C598.36 412.427 597.712 411.233 596.833 410.218C595.954 409.202 594.866 408.389 593.644 407.833C592.421 407.278 591.093 406.993 589.75 407V407Z" fill="url(#paint18_linear)"/>
<path d="M589.44 414.34C589.44 414.516 589.388 414.688 589.29 414.834C589.192 414.981 589.053 415.095 588.891 415.162C588.728 415.229 588.549 415.247 588.376 415.213C588.204 415.178 588.045 415.093 587.921 414.969C587.796 414.845 587.711 414.686 587.677 414.513C587.643 414.341 587.66 414.162 587.728 413.999C587.795 413.836 587.909 413.697 588.056 413.6C588.202 413.502 588.374 413.45 588.55 413.45C588.786 413.45 589.012 413.543 589.179 413.71C589.346 413.877 589.44 414.104 589.44 414.34V414.34Z" fill="#4A9B43"/>
<path d="M593.07 419.6C593.068 419.775 593.014 419.946 592.915 420.091C592.816 420.236 592.677 420.349 592.514 420.415C592.351 420.481 592.172 420.497 592 420.461C591.828 420.426 591.671 420.34 591.547 420.215C591.424 420.091 591.34 419.932 591.306 419.76C591.273 419.587 591.291 419.409 591.359 419.247C591.426 419.085 591.54 418.946 591.687 418.849C591.833 418.752 592.004 418.7 592.18 418.7C592.298 418.7 592.414 418.723 592.523 418.768C592.632 418.814 592.73 418.88 592.813 418.964C592.896 419.048 592.961 419.147 593.005 419.256C593.049 419.365 593.071 419.482 593.07 419.6V419.6Z" fill="#4A9B43"/>
<path d="M587.81 424.59C587.812 424.769 587.761 424.944 587.662 425.093C587.564 425.243 587.424 425.36 587.259 425.429C587.094 425.499 586.912 425.517 586.737 425.483C586.561 425.448 586.4 425.363 586.274 425.236C586.147 425.11 586.061 424.948 586.027 424.773C585.992 424.597 586.011 424.416 586.081 424.251C586.15 424.086 586.267 423.945 586.416 423.847C586.566 423.749 586.741 423.698 586.92 423.7C587.156 423.7 587.382 423.794 587.549 423.96C587.716 424.127 587.81 424.354 587.81 424.59V424.59Z" fill="#4A9B43"/>
<path d="M582.93 412.84C582.803 412.841 582.679 412.799 582.58 412.72C581.07 411.49 579.46 407.93 579.39 407.78C579.36 407.713 579.344 407.642 579.341 407.569C579.339 407.497 579.352 407.424 579.378 407.356C579.404 407.288 579.443 407.226 579.493 407.174C579.543 407.121 579.603 407.079 579.67 407.05C579.736 407.02 579.808 407.003 579.88 407.001C579.953 406.999 580.026 407.011 580.093 407.037C580.161 407.063 580.223 407.103 580.276 407.153C580.329 407.203 580.371 407.263 580.4 407.33C580.83 408.33 582.19 410.97 583.28 411.85C583.372 411.922 583.439 412.021 583.471 412.133C583.504 412.245 583.501 412.365 583.462 412.475C583.424 412.585 583.352 412.68 583.256 412.748C583.161 412.815 583.047 412.851 582.93 412.85V412.84Z" fill="#4A9B43"/>
<path d="M588.55 409.5C588.412 409.501 588.28 409.449 588.178 409.357C588.076 409.264 588.012 409.137 588 409L587.64 405.82C587.636 405.679 587.685 405.542 587.778 405.436C587.87 405.33 588 405.263 588.14 405.247C588.28 405.232 588.42 405.27 588.533 405.354C588.646 405.438 588.724 405.562 588.75 405.7L589.1 408.87C589.11 408.943 589.105 409.017 589.085 409.088C589.066 409.159 589.032 409.226 588.986 409.284C588.941 409.342 588.884 409.39 588.819 409.425C588.754 409.46 588.683 409.483 588.61 409.49L588.55 409.5Z" fill="#4A9B43"/>
<path d="M595.07 412.39C594.971 412.39 594.874 412.364 594.788 412.315C594.702 412.266 594.63 412.195 594.58 412.11C594.511 411.982 594.494 411.832 594.533 411.692C594.572 411.552 594.664 411.433 594.79 411.36L598.19 409.44C598.323 409.368 598.478 409.352 598.623 409.395C598.767 409.438 598.888 409.537 598.96 409.67C599.032 409.802 599.048 409.958 599.004 410.102C598.961 410.247 598.863 410.368 598.73 410.44L595.34 412.36C595.254 412.393 595.161 412.403 595.07 412.39Z" fill="#4A9B43"/>
<path d="M591.29 413.29C591.234 413.299 591.176 413.299 591.12 413.29C590.98 413.244 590.864 413.145 590.796 413.014C590.729 412.883 590.716 412.73 590.76 412.59L591.65 409.78C591.698 409.641 591.797 409.527 591.928 409.46C592.058 409.393 592.209 409.378 592.35 409.42C592.42 409.441 592.485 409.477 592.541 409.524C592.598 409.571 592.644 409.629 592.677 409.694C592.711 409.759 592.731 409.83 592.737 409.904C592.742 409.977 592.733 410.05 592.71 410.12L591.82 412.93C591.779 413.037 591.706 413.129 591.612 413.193C591.517 413.257 591.405 413.291 591.29 413.29Z" fill="#4A9B43"/>
<path d="M600 419.26H599.85L595.92 418.2C595.779 418.16 595.659 418.067 595.586 417.939C595.513 417.812 595.493 417.662 595.53 417.52C595.57 417.378 595.663 417.258 595.79 417.183C595.916 417.109 596.067 417.086 596.21 417.12L600.14 418.19C600.211 418.208 600.277 418.241 600.335 418.285C600.393 418.329 600.441 418.385 600.477 418.448C600.514 418.511 600.537 418.581 600.546 418.654C600.555 418.726 600.55 418.8 600.53 418.87C600.494 418.982 600.423 419.081 600.328 419.151C600.233 419.221 600.118 419.259 600 419.26Z" fill="#4A9B43"/>
<path d="M599.62 426H597.81C597.731 426.01 597.65 426.004 597.574 425.981C597.497 425.958 597.427 425.919 597.367 425.866C597.307 425.814 597.258 425.749 597.225 425.676C597.192 425.604 597.175 425.525 597.175 425.445C597.175 425.365 597.192 425.286 597.225 425.213C597.258 425.141 597.307 425.076 597.367 425.023C597.427 424.971 597.497 424.932 597.574 424.909C597.65 424.886 597.731 424.879 597.81 424.89H599.62C599.699 424.879 599.78 424.886 599.856 424.909C599.933 424.932 600.003 424.971 600.063 425.023C600.123 425.076 600.172 425.141 600.205 425.213C600.238 425.286 600.255 425.365 600.255 425.445C600.255 425.525 600.238 425.604 600.205 425.676C600.172 425.749 600.123 425.814 600.063 425.866C600.003 425.919 599.933 425.958 599.856 425.981C599.78 426.004 599.699 426.01 599.62 426Z" fill="#4A9B43"/>
<path d="M581.3 425.15C581.188 425.13 581.083 425.078 581 425L579.31 423.66C579.216 423.562 579.16 423.434 579.153 423.298C579.146 423.162 579.189 423.029 579.274 422.922C579.358 422.816 579.478 422.744 579.612 422.72C579.746 422.695 579.883 422.72 580 422.79L581.69 424.13C581.804 424.222 581.878 424.356 581.895 424.502C581.911 424.647 581.87 424.794 581.78 424.91C581.728 424.988 581.656 425.052 581.572 425.094C581.488 425.136 581.394 425.155 581.3 425.15V425.15Z" fill="#4A9B43"/>
<path d="M584.71 420.28C584.611 420.28 584.514 420.253 584.429 420.202C584.345 420.151 584.276 420.078 584.23 419.99L582.8 417.37C582.765 417.304 582.744 417.232 582.737 417.158C582.73 417.084 582.737 417.01 582.759 416.939C582.781 416.868 582.816 416.802 582.864 416.744C582.911 416.687 582.969 416.64 583.035 416.605C583.101 416.57 583.173 416.549 583.246 416.542C583.32 416.535 583.395 416.542 583.466 416.564C583.537 416.586 583.603 416.621 583.66 416.669C583.718 416.716 583.765 416.774 583.8 416.84L585.23 419.46C585.265 419.524 585.287 419.594 585.295 419.666C585.303 419.738 585.297 419.811 585.276 419.881C585.256 419.951 585.222 420.016 585.176 420.072C585.13 420.129 585.074 420.175 585.01 420.21C584.919 420.263 584.815 420.287 584.71 420.28V420.28Z" fill="#4A9B43"/>
<path d="M591.74 427.75C591.599 427.752 591.462 427.698 591.36 427.6C591.256 427.495 591.197 427.353 591.197 427.205C591.197 427.057 591.256 426.915 591.36 426.81L593.8 424.21C593.851 424.159 593.912 424.118 593.979 424.09C594.046 424.062 594.118 424.048 594.19 424.048C594.262 424.048 594.334 424.062 594.401 424.09C594.468 424.118 594.529 424.159 594.58 424.21C594.633 424.26 594.675 424.321 594.703 424.388C594.732 424.455 594.747 424.527 594.747 424.6C594.747 424.673 594.732 424.745 594.703 424.812C594.675 424.879 594.633 424.94 594.58 424.99L592.14 427.59C592.088 427.642 592.025 427.683 591.956 427.711C591.888 427.738 591.814 427.752 591.74 427.75V427.75Z" fill="#4A9B43"/>
<path d="M584.71 430.6C584.625 430.601 584.54 430.581 584.464 430.543C584.387 430.505 584.321 430.449 584.27 430.38L582.49 428C582.401 427.883 582.362 427.736 582.382 427.591C582.402 427.445 582.478 427.314 582.595 427.225C582.712 427.136 582.859 427.097 583.004 427.117C583.15 427.137 583.281 427.213 583.37 427.33L585.16 429.68C585.246 429.799 585.282 429.947 585.261 430.092C585.241 430.237 585.165 430.369 585.05 430.46C584.957 430.546 584.836 430.595 584.71 430.6V430.6Z" fill="#4A9B43"/>
<path d="M580.49 417.91C580.431 417.924 580.369 417.924 580.31 417.91L577.39 416.86C577.307 416.851 577.227 416.823 577.156 416.778C577.085 416.734 577.025 416.674 576.981 416.603C576.937 416.531 576.909 416.451 576.901 416.368C576.893 416.285 576.903 416.2 576.932 416.122C576.961 416.043 577.008 415.972 577.069 415.915C577.129 415.857 577.202 415.814 577.282 415.788C577.362 415.763 577.447 415.756 577.529 415.769C577.612 415.781 577.691 415.812 577.76 415.86L580.68 416.91C580.8 416.957 580.899 417.045 580.962 417.157C581.025 417.269 581.047 417.4 581.024 417.527C581.002 417.654 580.937 417.769 580.839 417.853C580.742 417.937 580.619 417.986 580.49 417.99V417.91Z" fill="#4A9B43"/>
<path d="M596.05 432.06H595.89L593.66 431.4C593.59 431.38 593.526 431.347 593.469 431.302C593.413 431.257 593.366 431.201 593.331 431.138C593.297 431.075 593.275 431.005 593.268 430.933C593.261 430.861 593.269 430.789 593.29 430.72C593.308 430.65 593.341 430.584 593.385 430.526C593.43 430.468 593.486 430.421 593.549 430.385C593.613 430.35 593.683 430.327 593.755 430.319C593.827 430.312 593.9 430.319 593.97 430.34L596.21 430.99C596.334 431.032 596.439 431.116 596.508 431.228C596.576 431.34 596.603 431.472 596.584 431.602C596.565 431.731 596.501 431.85 596.404 431.937C596.306 432.025 596.181 432.075 596.05 432.08V432.06Z" fill="#4A9B43"/>
<path d="M742.53 347.67H623.06C619.995 347.67 617.51 350.155 617.51 353.22V426.47C617.51 429.535 619.995 432.02 623.06 432.02H742.53C745.595 432.02 748.08 429.535 748.08 426.47V353.22C748.08 350.155 745.595 347.67 742.53 347.67Z" fill="url(#paint19_linear)"/>
<path d="M678.54 399.29C684.516 399.29 689.36 394.446 689.36 388.47C689.36 382.494 684.516 377.65 678.54 377.65C672.564 377.65 667.72 382.494 667.72 388.47C667.72 394.446 672.564 399.29 678.54 399.29Z" fill="#F2F8FC"/>
<path d="M692.4 432V445C692.399 445.843 692.564 446.679 692.886 447.458C693.208 448.238 693.681 448.946 694.277 449.543C694.874 450.139 695.582 450.612 696.362 450.934C697.141 451.256 697.977 451.421 698.82 451.42H670.38C668.684 451.409 667.062 450.728 665.866 449.526C664.671 448.323 664 446.696 664 445V432H692.4Z" fill="url(#paint20_linear)"/>
<path d="M623 341.61L620.9 333.06C620.844 332.853 620.73 332.667 620.571 332.524C620.412 332.38 620.215 332.286 620.004 332.252C619.792 332.218 619.576 332.246 619.38 332.333C619.184 332.419 619.017 332.561 618.9 332.74L614.48 339.87C614.372 340.051 614.214 340.197 614.026 340.292C613.838 340.387 613.626 340.426 613.416 340.405C613.207 340.384 613.007 340.304 612.841 340.174C612.675 340.043 612.55 339.869 612.48 339.67L604.24 317.1C604.149 316.837 604.158 316.55 604.265 316.294C604.372 316.037 604.569 315.829 604.82 315.71L605.82 315.26C605.953 315.197 606.096 315.162 606.242 315.155C606.389 315.149 606.535 315.171 606.672 315.222C606.81 315.272 606.936 315.349 607.044 315.448C607.152 315.547 607.239 315.667 607.3 315.8L613.86 329.9C613.934 330.06 614.046 330.201 614.186 330.31C614.326 330.418 614.491 330.492 614.665 330.524C614.839 330.557 615.018 330.547 615.188 330.495C615.358 330.444 615.513 330.353 615.64 330.23L620.49 325.57C620.629 325.434 620.802 325.337 620.991 325.289C621.18 325.241 621.378 325.243 621.565 325.296C621.752 325.349 621.923 325.45 622.059 325.589C622.195 325.728 622.292 325.901 622.34 326.09L625.89 340C625.929 340.15 625.935 340.307 625.91 340.461C625.884 340.614 625.826 340.76 625.74 340.89L625 342C624.878 342.178 624.706 342.317 624.505 342.399C624.305 342.481 624.084 342.503 623.872 342.462C623.659 342.42 623.463 342.317 623.308 342.166C623.154 342.015 623.046 341.821 623 341.61V341.61Z" fill="#F2F8FC"/>
<path d="M611.68 351.78L609 346.12C608.933 345.978 608.825 345.86 608.69 345.779C608.555 345.699 608.4 345.661 608.243 345.67C608.087 345.678 607.936 345.733 607.811 345.828C607.686 345.922 607.591 346.052 607.54 346.2L605.54 351.83C605.489 351.968 605.401 352.09 605.284 352.181C605.168 352.272 605.029 352.328 604.882 352.344C604.735 352.359 604.587 352.333 604.454 352.269C604.321 352.205 604.209 352.105 604.13 351.98L595 337.42C594.892 337.253 594.852 337.052 594.887 336.857C594.923 336.662 595.031 336.488 595.19 336.37L595.81 335.91C595.979 335.785 596.19 335.733 596.398 335.763C596.605 335.793 596.793 335.903 596.92 336.07L603.57 344.95C603.643 345.053 603.74 345.137 603.852 345.195C603.964 345.253 604.089 345.283 604.215 345.283C604.341 345.283 604.466 345.253 604.578 345.195C604.69 345.137 604.787 345.053 604.86 344.95L607.56 340.95C607.637 340.833 607.743 340.739 607.868 340.677C607.993 340.615 608.132 340.587 608.271 340.596C608.41 340.606 608.545 340.651 608.66 340.729C608.776 340.807 608.869 340.914 608.93 341.04L613.46 350.24C613.505 350.34 613.528 350.449 613.528 350.56C613.528 350.67 613.505 350.779 613.46 350.88L613.12 351.73C613.062 351.871 612.965 351.992 612.84 352.079C612.716 352.166 612.568 352.215 612.416 352.22C612.264 352.226 612.114 352.187 611.983 352.109C611.853 352.03 611.747 351.916 611.68 351.78Z" fill="#F2F8FC"/>
<path d="M660 347.67V361.32C659.997 362.202 659.646 363.048 659.022 363.672C658.398 364.296 657.552 364.647 656.67 364.65H617.51V353.22C617.51 352.49 617.654 351.768 617.933 351.094C618.213 350.42 618.623 349.807 619.139 349.292C619.656 348.776 620.269 348.368 620.943 348.09C621.618 347.811 622.34 347.669 623.07 347.67H660Z" fill="#EAEAEA"/>
<path d="M829 74.9996V89.1197H198.52V74.9996C198.52 72.0531 199.691 69.2272 201.774 67.1437C203.858 65.0602 206.683 63.8896 209.63 63.8896H817.93C820.869 63.9029 823.683 65.0789 825.757 67.1607C827.832 69.2425 828.997 72.0608 829 74.9996V74.9996Z" fill="#4F5053"/>
<path d="M466 141.22H460.37C460.615 142.603 460.739 144.005 460.74 145.41C460.806 148.677 460.219 151.925 459.014 154.963C457.809 158.001 456.011 160.769 453.723 163.103C451.435 165.437 448.705 167.291 445.692 168.557C442.679 169.823 439.443 170.475 436.175 170.475C432.907 170.475 429.671 169.823 426.658 168.557C423.645 167.291 420.915 165.437 418.627 163.103C416.339 160.769 414.54 158.001 413.336 154.963C412.131 151.925 411.544 148.677 411.61 145.41C411.608 144.005 411.728 142.603 411.97 141.22H406.35C406.148 142.607 406.048 144.008 406.05 145.41C406.107 149.506 406.999 153.548 408.672 157.288C410.344 161.028 412.762 164.388 415.778 167.161C418.793 169.934 422.343 172.063 426.209 173.418C430.076 174.772 434.178 175.324 438.265 175.038C442.352 174.753 446.338 173.637 449.979 171.758C453.62 169.879 456.839 167.278 459.44 164.112C462.041 160.946 463.968 157.283 465.105 153.347C466.241 149.411 466.563 145.284 466.05 141.22H466Z" fill="#73C5FE"/>
<path d="M245.9 141.22L246.64 166.7C246.666 166.99 246.758 167.271 246.91 167.52C247.109 167.801 247.388 168.017 247.71 168.14C248.207 168.338 248.728 168.469 249.26 168.53C250.87 168.73 252.5 168.73 254.11 168.53C254.648 168.47 255.176 168.339 255.68 168.14C256.004 168.02 256.283 167.804 256.48 167.52C256.632 167.27 256.728 166.99 256.76 166.7L257.49 141.22H245.9ZM257.9 176.93C257.748 176.142 257.381 175.412 256.84 174.82C256.297 174.251 255.603 173.849 254.84 173.66C253.816 173.408 252.764 173.293 251.71 173.32C250.653 173.296 249.597 173.41 248.57 173.66C247.804 173.841 247.108 174.245 246.57 174.82C246.05 175.418 245.704 176.148 245.57 176.93C245.351 177.995 245.251 179.082 245.27 180.17C245.251 181.238 245.352 182.304 245.57 183.35C245.71 184.117 246.056 184.833 246.57 185.42C247.117 185.977 247.81 186.368 248.57 186.55C249.598 186.794 250.653 186.909 251.71 186.89C252.764 186.911 253.816 186.797 254.84 186.55C255.598 186.363 256.289 185.972 256.84 185.42C257.375 184.839 257.742 184.123 257.9 183.35C258.118 182.304 258.219 181.238 258.2 180.17C258.213 179.081 258.105 177.995 257.88 176.93H257.9Z" fill="#FC8D8D"/>
<path d="M357.36 154.71H251.96V162.33H357.36V154.71Z" fill="#EAEAEA"/>
<path d="M357.36 169.24H251.96V176.86H357.36V169.24Z" fill="#EAEAEA"/>
<path d="M304.66 183.76H251.96V191.38H304.66V183.76Z" fill="#EAEAEA"/>
<path d="M660.18 141.22L660.92 166.7C660.946 166.99 661.038 167.271 661.19 167.52C661.389 167.801 661.668 168.017 661.99 168.14C662.487 168.338 663.008 168.469 663.54 168.53C665.15 168.73 666.78 168.73 668.39 168.53C668.928 168.47 669.456 168.339 669.96 168.14C670.284 168.02 670.563 167.804 670.76 167.52C670.912 167.271 671.004 166.99 671.03 166.7L671.77 141.22H660.18ZM672.18 176.93C672.028 176.142 671.661 175.412 671.12 174.82C670.577 174.251 669.883 173.849 669.12 173.66C668.096 173.408 667.044 173.293 665.99 173.32C664.933 173.295 663.877 173.41 662.85 173.66C662.084 173.841 661.388 174.245 660.85 174.82C660.33 175.418 659.984 176.148 659.85 176.93C659.631 177.995 659.531 179.082 659.55 180.17C659.531 181.238 659.632 182.304 659.85 183.35C659.99 184.117 660.336 184.833 660.85 185.42C661.397 185.977 662.09 186.368 662.85 186.55C663.878 186.795 664.933 186.909 665.99 186.89C667.044 186.911 668.096 186.797 669.12 186.55C669.878 186.363 670.569 185.972 671.12 185.42C671.655 184.839 672.022 184.123 672.18 183.35C672.398 182.304 672.499 181.238 672.48 180.17C672.493 179.081 672.385 177.995 672.16 176.93H672.18Z" fill="#FC8D8D"/>
<path d="M771.38 154.71H665.98V162.33H771.38V154.71Z" fill="#EAEAEA"/>
<path d="M771.38 169.24H665.98V176.86H771.38V169.24Z" fill="#EAEAEA"/>
<path d="M718.68 183.76H665.98V191.38H718.68V183.76Z" fill="#EAEAEA"/>
</g>
<defs>
<linearGradient id="paint0_linear" x1="794.94" y1="215.48" x2="372.67" y2="629.56" gradientUnits="userSpaceOnUse">
<stop stop-color="#F2F8FC"/>
<stop offset="1" stop-color="#E8F1F9"/>
</linearGradient>
<linearGradient id="paint1_linear" x1="808.15" y1="39.3296" x2="219.41" y2="419.41" gradientUnits="userSpaceOnUse">
<stop stop-color="#B6BCC2"/>
<stop offset="1" stop-color="#93969C"/>
</linearGradient>
<linearGradient id="paint2_linear" x1="949.59" y1="299.83" x2="858.14" y2="360.47" gradientUnits="userSpaceOnUse">
<stop stop-color="#FF813B"/>
<stop offset="1" stop-color="#F44E4E"/>
</linearGradient>
<linearGradient id="paint3_linear" x1="390.88" y1="129.02" x2="279.24" y2="196.36" gradientUnits="userSpaceOnUse">
<stop stop-color="#FC8D8D"/>
<stop offset="1" stop-color="#F44E4E"/>
</linearGradient>
<linearGradient id="paint4_linear" x1="103367" y1="10655.3" x2="94478.5" y2="20953.5" gradientUnits="userSpaceOnUse">
<stop stop-color="#FC8D8D"/>
<stop offset="1" stop-color="#F44E4E"/>
</linearGradient>
<linearGradient id="paint5_linear" x1="596.89" y1="124.1" x2="466.69" y2="244.07" gradientUnits="userSpaceOnUse">
<stop stop-color="#73C5FE"/>
<stop offset="1" stop-color="#50A4FE"/>
</linearGradient>
<linearGradient id="paint6_linear" x1="678.16" y1="633.39" x2="678.16" y2="427.37" gradientUnits="userSpaceOnUse">
<stop stop-color="#E2A97F"/>
<stop offset="0.2" stop-color="#D09769"/>
<stop offset="0.41" stop-color="#C48A59"/>
<stop offset="0.66" stop-color="#BC8250"/>
<stop offset="1" stop-color="#BA804D"/>
</linearGradient>
<linearGradient id="paint7_linear" x1="703.59" y1="452.6" x2="802.57" y2="413.08" gradientUnits="userSpaceOnUse">
<stop stop-color="#FFD3AB"/>
<stop offset="1" stop-color="#FFA083"/>
</linearGradient>
<linearGradient id="paint8_linear" x1="801.84" y1="617.06" x2="801.84" y2="545.78" gradientUnits="userSpaceOnUse">
<stop stop-color="#EAEAEA"/>
<stop offset="1" stop-color="#CECECE"/>
</linearGradient>
<linearGradient id="paint9_linear" x1="843.37" y1="360.74" x2="798" y2="531.74" gradientUnits="userSpaceOnUse">
<stop stop-color="#CECECE"/>
<stop offset="1" stop-color="#B5B5B5"/>
</linearGradient>
<linearGradient id="paint10_linear" x1="98841.3" y1="53380.2" x2="85975.8" y2="75185.1" gradientUnits="userSpaceOnUse">
<stop stop-color="#73C5FE"/>
<stop offset="1" stop-color="#50A4FE"/>
</linearGradient>
<linearGradient id="paint11_linear" x1="80881.9" y1="15286.5" x2="87676.4" y2="9618.42" gradientUnits="userSpaceOnUse">
<stop stop-color="#FFD3AB"/>
<stop offset="1" stop-color="#FFA083"/>
</linearGradient>
<linearGradient id="paint12_linear" x1="50851.8" y1="18182.1" x2="49827.8" y2="15394.2" gradientUnits="userSpaceOnUse">
<stop stop-color="#FFD3AB"/>
<stop offset="1" stop-color="#FFA083"/>
</linearGradient>
<linearGradient id="paint13_linear" x1="833.3" y1="451.53" x2="522.66" y2="470.69" gradientUnits="userSpaceOnUse">
<stop stop-color="#E2A97F"/>
<stop offset="1" stop-color="#BA804D"/>
</linearGradient>
<linearGradient id="paint14_linear" x1="59950.4" y1="107518" x2="59950.4" y2="67838.7" gradientUnits="userSpaceOnUse">
<stop stop-color="#E2A97F"/>
<stop offset="0.2" stop-color="#D09769"/>
<stop offset="0.41" stop-color="#C48A59"/>
<stop offset="0.66" stop-color="#BC8250"/>
<stop offset="1" stop-color="#BA804D"/>
</linearGradient>
<linearGradient id="paint15_linear" x1="11255.5" y1="116338" x2="11255.5" y2="76589.9" gradientUnits="userSpaceOnUse">
<stop stop-color="#E2A97F"/>
<stop offset="1" stop-color="#BA804D"/>
</linearGradient>
<linearGradient id="paint16_linear" x1="12329" y1="112492" x2="12329" y2="80857.9" gradientUnits="userSpaceOnUse">
<stop stop-color="#E2A97F"/>
<stop offset="1" stop-color="#BA804D"/>
</linearGradient>
<linearGradient id="paint17_linear" x1="16033" y1="8026.28" x2="16033" y2="8303.4" gradientUnits="userSpaceOnUse">
<stop stop-color="#EAEAEA"/>
<stop offset="1" stop-color="#CECECE"/>
</linearGradient>
<linearGradient id="paint18_linear" x1="598.71" y1="405.24" x2="581.32" y2="437.1" gradientUnits="userSpaceOnUse">
<stop stop-color="#85D680"/>
<stop offset="1" stop-color="#4A9B43"/>
</linearGradient>
<linearGradient id="paint19_linear" x1="93546.8" y1="31005.5" x2="85839.7" y2="41889.4" gradientUnits="userSpaceOnUse">
<stop stop-color="#EAEAEA"/>
<stop offset="1" stop-color="#CECECE"/>
</linearGradient>
<linearGradient id="paint20_linear" x1="24439.1" y1="8630.74" x2="24439.1" y2="9362.1" gradientUnits="userSpaceOnUse">
<stop stop-color="#EAEAEA"/>
<stop offset="1" stop-color="#CECECE"/>
</linearGradient>
<clipPath id="clip0">
<rect width="989.31" height="642.53" fill="white"/>
</clipPath>
</defs>
</svg>
