<svg width="14" height="14" viewBox="0 0 14 14" fill="none" xmlns="http://www.w3.org/2000/svg">
<path d="M14 7.0426C14 8.78431 13.4355 10.3178 12.3065 11.643C11.1774 12.9493 9.77554 13.735 8.10081 14V9.08722H9.7379L10.0484 7.0426H8.10081V5.70791C8.10081 4.98851 8.47715 4.6288 9.22984 4.6288H10.1048V2.89655C9.57796 2.80189 9.06048 2.75456 8.55242 2.75456C8.00672 2.75456 7.53629 2.85869 7.14113 3.06694C6.76479 3.27519 6.46371 3.58756 6.2379 4.00406C6.0121 4.42055 5.89919 4.91278 5.89919 5.48073V7.0426H4.12097V9.08722H5.89919V14C4.22446 13.735 2.82258 12.9493 1.69355 11.643C0.564516 10.3178 0 8.78431 0 7.0426C0 5.09263 0.677419 3.43611 2.03226 2.07302C3.40591 0.691007 5.06183 0 7 0C8.93817 0 10.5847 0.691007 11.9395 2.07302C13.3132 3.43611 14 5.09263 14 7.0426Z" fill="#4F5053"/>
</svg>
