<svg xmlns="http://www.w3.org/2000/svg" viewBox="0 0 150.39 150.39"><defs><style>.cls-1{fill:#fff;stroke:#6a6b6e;stroke-miterlimit:10;stroke-width:0.5px;}</style></defs><title>favicon</title><g data-name="Warstwa 2"><g data-name="Warstwa 1"><path class="cls-1" d="M75.19,8a67.22,67.22,0,1,0,67.22,67.22A67.3,67.3,0,0,0,75.19,8m0,142.17a74.95,74.95,0,1,1,74.95-74.95A75,75,0,0,1,75.19,150.14Z"/><path class="cls-1" d="M102.69,97.36S95.53,79.07,75.85,31.92H74.46L61.78,65.73h1.76l5.68-15.42L82.48,83.67l.64,1.61,3.43,8.55c1.28,3,4.59,11.76-2.46,11.76v1.61h27.48v-1.61c-2.89-.21-5.35.33-8.88-8.23"/><path class="cls-1" d="M38.82,107.33s12.81,4.19,20.43-6.29c0,0,3.4-4.11,5.77-13.57s5.81-11,8.87-10.8V75.39s-8-2.14-14.62,1.6S50,88.86,50,88.86s-4.23,13.2-5.65,14.7-2.8,2.78-5.5,2.78Z"/></g></g></svg>