<svg width="14" height="14" viewBox="0 0 14 14" fill="#4F5053" xmlns="http://www.w3.org/2000/svg">
<path fill-rule="evenodd" clip-rule="evenodd" d="M0.8 1H13.2C13.4122 1 13.6157 1.08429 13.7657 1.23431C13.9157 1.38434 14 1.58783 14 1.8V10.2C14 10.4122 13.9157 10.6157 13.7657 10.7657C13.6157 10.9157 13.4122 11 13.2 11H0.8C0.587827 11 0.384344 10.9157 0.234315 10.7657C0.0842855 10.6157 0 10.4122 0 10.2V1.8C0 1.58783 0.0842855 1.38434 0.234315 1.23431C0.384344 1.08429 0.587827 1 0.8 1ZM5.55557 2.56853C5.39112 2.45865 5.19778 2.4 5 2.4C4.73478 2.4 4.48043 2.50536 4.29289 2.69289C4.10536 2.88043 4 3.13478 4 3.4C4 3.59778 4.05865 3.79112 4.16853 3.95557C4.27841 4.12002 4.43459 4.24819 4.61732 4.32388C4.80004 4.39957 5.00111 4.41937 5.19509 4.38079C5.38907 4.3422 5.56725 4.24696 5.70711 4.10711C5.84696 3.96725 5.9422 3.78907 5.98079 3.59509C6.01937 3.40111 5.99957 3.20004 5.92388 3.01732C5.84819 2.83459 5.72002 2.67841 5.55557 2.56853ZM2.912 9.6H11.088C11.2169 9.60245 11.3438 9.56887 11.4546 9.50303C11.5654 9.4372 11.6557 9.34173 11.7151 9.22738C11.7746 9.11303 11.8009 8.98435 11.7912 8.85584C11.7814 8.72732 11.736 8.60408 11.66 8.5L9.024 4.652C8.96943 4.57115 8.89585 4.50493 8.80972 4.45916C8.72359 4.41338 8.62754 4.38944 8.53 4.38944C8.43246 4.38944 8.33641 4.41338 8.25028 4.45916C8.16415 4.50493 8.09057 4.57115 8.036 4.652L5.548 8.388L4.552 6.596C4.49941 6.5064 4.42431 6.4321 4.33415 6.38048C4.24399 6.32885 4.1419 6.3017 4.038 6.3017C3.93411 6.3017 3.83201 6.32885 3.74185 6.38048C3.65169 6.4321 3.57659 6.5064 3.524 6.596L2.324 8.544C2.25919 8.64878 2.22354 8.76897 2.22071 8.89214C2.21789 9.01531 2.248 9.13701 2.30794 9.24465C2.36788 9.35229 2.45546 9.44198 2.56166 9.50445C2.66785 9.56692 2.7888 9.59991 2.912 9.6ZM1.8 11.9999H12.6C12.7591 11.9999 12.9117 12.0631 13.0243 12.1756C13.1368 12.2881 13.2 12.4407 13.2 12.5999C13.2 12.759 13.1368 12.9116 13.0243 13.0241C12.9117 13.1367 12.7591 13.1999 12.6 13.1999H1.8C1.64087 13.1999 1.48826 13.1367 1.37574 13.0241C1.26321 12.9116 1.2 12.759 1.2 12.5999C1.2 12.4407 1.26321 12.2881 1.37574 12.1756C1.48826 12.0631 1.64087 11.9999 1.8 11.9999Z" />
</svg>
