<svg width="16" height="14" viewBox="0 0 16 14"  fill="#4F5053" xmlns="http://www.w3.org/2000/svg">
<g clip-path="url(#clip0)">
<path fill-rule="evenodd" clip-rule="evenodd" d="M0.914286 0H15.0857C15.3282 0 15.5608 0.0963263 15.7322 0.267788C15.9037 0.43925 16 0.671802 16 0.914286V10.5143C16 10.7568 15.9037 10.9893 15.7322 11.1608C15.5608 11.3322 15.3282 11.4286 15.0857 11.4286H0.914286C0.671802 11.4286 0.43925 11.3322 0.267788 11.1608C0.0963263 10.9893 0 10.7568 0 10.5143V0.914286C0 0.671802 0.0963263 0.43925 0.267788 0.267788C0.43925 0.0963263 0.671802 0 0.914286 0ZM6.34922 1.79261C6.16128 1.66703 5.94032 1.6 5.71429 1.6C5.41118 1.6 5.12049 1.72041 4.90616 1.93473C4.69184 2.14906 4.57143 2.43975 4.57143 2.74286C4.57143 2.96889 4.63846 3.18985 4.76403 3.37779C4.88961 3.56574 5.0681 3.71222 5.27693 3.79872C5.48576 3.88522 5.71555 3.90785 5.93725 3.86375C6.15894 3.81966 6.36258 3.71081 6.52241 3.55098C6.68224 3.39115 6.79109 3.18751 6.83518 2.96582C6.87928 2.74412 6.85665 2.51433 6.77015 2.3055C6.68365 2.09667 6.53717 1.91818 6.34922 1.79261ZM3.328 9.82857H12.672C12.8193 9.83137 12.9644 9.79299 13.091 9.71775C13.2177 9.64251 13.3208 9.5334 13.3887 9.40272C13.4567 9.27204 13.4868 9.12497 13.4756 8.9781C13.4645 8.83123 13.4126 8.69038 13.3257 8.57143L10.3131 4.17371C10.2508 4.08132 10.1667 4.00564 10.0683 3.95332C9.96982 3.901 9.86005 3.87364 9.74857 3.87364C9.6371 3.87364 9.52733 3.901 9.42889 3.95332C9.33046 4.00564 9.24637 4.08132 9.184 4.17371L6.34057 8.44343L5.20229 6.39543C5.14218 6.29303 5.05635 6.20812 4.95331 6.14912C4.85027 6.09012 4.73359 6.05908 4.61486 6.05908C4.49612 6.05908 4.37945 6.09012 4.2764 6.14912C4.17336 6.20812 4.08753 6.29303 4.02743 6.39543L2.656 8.62171C2.58193 8.74147 2.54118 8.87882 2.53796 9.01959C2.53473 9.16036 2.56914 9.29943 2.63764 9.42245C2.70614 9.54547 2.80624 9.64798 2.92761 9.71937C3.04897 9.79076 3.18719 9.82846 3.328 9.82857ZM2.05714 12.5713H14.4C14.5819 12.5713 14.7563 12.6435 14.8849 12.7721C15.0135 12.9007 15.0857 13.0751 15.0857 13.257C15.0857 13.4389 15.0135 13.6133 14.8849 13.7419C14.7563 13.8705 14.5819 13.9427 14.4 13.9427H2.05714C1.87528 13.9427 1.70087 13.8705 1.57227 13.7419C1.44367 13.6133 1.37143 13.4389 1.37143 13.257C1.37143 13.0751 1.44367 12.9007 1.57227 12.7721C1.70087 12.6435 1.87528 12.5713 2.05714 12.5713Z"/>
</g>
<defs>
<clipPath id="clip0">
<rect width="16" height="13.9429" fill="white"/>
</clipPath>
</defs>
</svg>
