<svg width="176" height="164" viewBox="0 0 176 164" fill="none" xmlns="http://www.w3.org/2000/svg">
<path fill-rule="evenodd" clip-rule="evenodd" d="M135.285 114.659L139.651 116.216L153.477 58.8582C153.748 57.7868 153.632 56.6621 153.146 55.6585C152.661 54.6549 151.834 53.8285 150.793 53.3075L59.8312 9.32642L47.3951 41.2105L145.986 58.1331L135.285 114.659Z" fill="white" fill-opacity="0.2"/>
<path fill-rule="evenodd" clip-rule="evenodd" d="M120.616 136.358L126.36 137.344L129.179 79.8111C129.236 78.7144 128.905 77.6305 128.235 76.7267C127.565 75.8229 126.595 75.1495 125.474 74.8104L27.8808 45.7314L21.2581 80.6612H120.616V136.358Z" fill="white" fill-opacity="0.2"/>
<path d="M30.1105 120.867L2.0542 161.872H26.1907L30.1105 120.867Z" fill="white" fill-opacity="0.2"/>
<path d="M66.6505 110.19L31.2915 161.873H57.3342L66.6505 110.19Z" fill="white" fill-opacity="0.2"/>
<path d="M97.7408 128.443L74.8931 161.872H94.5459L97.7408 128.443Z" fill="white" fill-opacity="0.2"/>
<path fill-rule="evenodd" clip-rule="evenodd" d="M120.8 161.038H120.044L97.74 128.443L88.4438 142.045L66.6503 110.19L44.7215 142.242L30.1101 120.867L2.62481 161.038H2.2384V88.0029L98.0056 96.9292C99.0852 97.0294 100.107 97.4319 100.936 98.0835C101.765 98.7352 102.363 99.6054 102.65 100.58L120.8 161.038Z" fill="white" fill-opacity="0.2"/>
<path fill-rule="evenodd" clip-rule="evenodd" d="M143.329 119.392C143.562 119.469 143.806 119.511 144.054 119.517C144.342 119.521 144.628 119.461 144.886 119.342C145.13 119.245 145.35 119.102 145.53 118.921C145.711 118.74 145.848 118.525 145.933 118.291L175.708 41.956C175.891 41.4983 175.872 40.9917 175.656 40.5467C175.44 40.1018 175.043 39.7545 174.553 39.5806L63.5094 0.150207C63.2636 0.0511209 62.9986 0 62.7308 0C62.463 0 62.198 0.0511209 61.9522 0.150207C61.7106 0.250407 61.4933 0.3951 61.3134 0.575576C61.1334 0.756052 60.9946 0.968576 60.9051 1.20035L45.4188 40.8713L47.2555 41.1866L62.4892 2.17549L173.882 41.7559L144.349 117.316L135.385 114.131L134.952 116.42L143.329 119.392Z" fill="white"/>
<path fill-rule="evenodd" clip-rule="evenodd" d="M130.494 139.994H130.843C131.25 139.994 131.65 139.891 131.998 139.694C132.438 139.404 132.737 138.964 132.83 138.469L147.972 58.4582C148.059 57.9749 147.939 57.4792 147.638 57.0773C147.337 56.6755 146.878 56.3993 146.362 56.3079L29.6797 36.3052C29.4202 36.2597 29.1536 36.2627 28.8955 36.3143C28.6373 36.3658 28.3928 36.4647 28.1762 36.6052C27.9515 36.7422 27.761 36.9225 27.6174 37.1338C27.4738 37.3451 27.3806 37.5827 27.3439 37.8304L19.238 80.6614H21.1382L29.1427 38.4055L145.986 58.4082L131.004 137.494L120.615 135.716V138.301L130.494 139.994Z" fill="white"/>
<path fill-rule="evenodd" clip-rule="evenodd" d="M60.1576 161.872C60.1596 161.896 60.1612 161.919 60.1623 161.943C60.1779 162.28 60.0941 162.615 59.9198 162.912C59.7455 163.208 59.4875 163.454 59.1737 163.623C58.8599 163.793 58.5023 163.879 58.1396 163.873V163.748H2.05393C1.69228 163.746 1.33761 163.655 1.02625 163.483C0.71489 163.312 0.458024 163.067 0.281958 162.772C0.0974444 162.485 0 162.157 0 161.822C0 161.488 0.0974444 161.159 0.281958 160.872L28.3919 119.992C28.5892 119.743 28.8461 119.542 29.1422 119.403C29.4383 119.264 29.7652 119.191 30.0968 119.191C30.4283 119.191 30.7553 119.264 31.0513 119.403C31.3474 119.542 31.6044 119.743 31.8016 119.992L45.8667 140.568L44.5914 142.432L30.1102 121.267L1.46327 163.098H58.7303L57.892 161.872H60.1576Z" fill="white"/>
<path fill-rule="evenodd" clip-rule="evenodd" d="M2.05426 163.748H120.616C121.147 163.741 121.656 163.542 122.032 163.191C122.408 162.841 122.622 162.368 122.629 161.873V80.6614C122.629 80.164 122.417 79.6871 122.039 79.3354C121.662 78.9837 121.15 78.7861 120.616 78.7861H2.05426C1.52022 78.7861 1.00805 78.9837 0.630422 79.3354C0.252797 79.6871 0.0406494 80.164 0.0406494 80.6614V161.873C0.047603 162.368 0.261983 162.841 0.638111 163.191C1.01424 163.542 1.52238 163.741 2.05426 163.748ZM75.3204 161.247H2.05426V81.1615H120.616V161.247H120.188L120.615 161.873H74.8931L75.3204 161.247Z" fill="white"/>
<path fill-rule="evenodd" clip-rule="evenodd" d="M31.2917 163.748H102.063C102.394 163.73 102.715 163.635 102.996 163.473H103.11L103.077 163.424C103.337 163.256 103.552 163.033 103.701 162.773C103.882 162.502 103.982 162.191 103.991 161.872H102.015L103.077 163.424C103.058 163.436 103.038 163.448 103.019 163.459C103.011 163.464 103.004 163.468 102.996 163.473H30.2446L66.6506 110.19L88.4463 142.043L89.6317 140.308L68.3421 109.19C68.1484 108.937 67.8926 108.731 67.5961 108.589C67.2995 108.447 66.9708 108.373 66.6372 108.373C66.3037 108.373 65.9749 108.447 65.6784 108.589C65.3818 108.731 65.1261 108.937 64.9324 109.19L29.5734 160.872C29.3709 161.155 29.2561 161.485 29.2415 161.824C29.2269 162.164 29.3131 162.501 29.4906 162.798C29.6681 163.095 29.9302 163.341 30.2479 163.509C30.5656 163.676 30.9268 163.759 31.2917 163.748Z" fill="white"/>
<path d="M120.615 163.748H74.9729C74.6107 163.749 74.2549 163.659 73.943 163.487C73.6312 163.315 73.3748 163.069 73.2009 162.773C73.0218 162.484 72.9276 162.156 72.9276 161.822C72.9276 161.489 73.0218 161.161 73.2009 160.872L96.0487 127.493C96.2441 127.254 96.496 127.061 96.7847 126.928C97.0734 126.795 97.3911 126.726 97.7132 126.726C98.0353 126.726 98.3531 126.795 98.6418 126.928C98.9305 127.061 99.1824 127.254 99.3778 127.493L122.252 160.922C122.437 161.209 122.534 161.538 122.534 161.872C122.534 162.207 122.437 162.535 122.252 162.823C122.08 163.088 121.841 163.311 121.556 163.472C121.27 163.634 120.948 163.728 120.615 163.748V163.748ZM73.7916 163.473H121.715L97.7401 128.468L73.7916 163.473Z" fill="white"/>
<path d="M53.072 100.798C53.072 103.962 50.2988 106.626 46.7522 106.626C43.2056 106.626 40.4324 103.962 40.4324 100.798C40.4324 97.6326 43.2056 94.9686 46.7522 94.9686C50.2988 94.9686 53.072 97.6326 53.072 100.798Z" stroke="white" stroke-width="1.64864"/>
<path d="M16.5252 109.716C16.3902 109.721 16.2556 109.7 16.1304 109.652C16.0053 109.605 15.8927 109.533 15.8002 109.441C15.7052 109.355 15.6297 109.252 15.5781 109.138C15.5266 109.024 15.5 108.902 15.5 108.778C15.5 108.655 15.5266 108.532 15.5781 108.419C15.6297 108.305 15.7052 108.202 15.8002 108.115L19.8279 104.364C20.0215 104.197 20.2756 104.105 20.5395 104.105C20.8034 104.105 21.0575 104.197 21.2511 104.364C21.3461 104.451 21.4216 104.554 21.4731 104.668C21.5247 104.781 21.5512 104.904 21.5512 105.027C21.5512 105.151 21.5247 105.273 21.4731 105.387C21.4216 105.501 21.3461 105.604 21.2511 105.69L17.2233 109.441C17.1349 109.531 17.0268 109.602 16.9063 109.649C16.7859 109.697 16.6559 109.719 16.5252 109.716V109.716Z" fill="white"/>
<path d="M21.5195 108.791C21.5143 109.035 21.4085 109.267 21.2241 109.441C21.1315 109.529 21.0209 109.6 20.8987 109.648C20.7765 109.696 20.6452 109.72 20.5125 109.72C20.3799 109.72 20.2486 109.696 20.1264 109.648C20.0042 109.6 19.8935 109.529 19.8009 109.441L15.7732 105.69C15.6782 105.604 15.6027 105.501 15.5511 105.387C15.4996 105.273 15.473 105.151 15.473 105.027C15.473 104.904 15.4996 104.781 15.5511 104.668C15.6027 104.554 15.6782 104.451 15.7732 104.364C15.9668 104.197 16.2209 104.105 16.4848 104.105C16.7486 104.105 17.0027 104.197 17.1963 104.364L21.2241 108.115C21.4102 108.298 21.5157 108.539 21.5195 108.791V108.791Z" fill="white"/>
<path d="M79.6722 99.7147C79.5374 99.7185 79.4033 99.696 79.2784 99.6486C79.1536 99.6012 79.0407 99.53 78.9472 99.4396C78.7679 99.2593 78.6683 99.0227 78.6683 98.777C78.6683 98.5312 78.7679 98.2946 78.9472 98.1143L82.9749 94.3632C83.1685 94.1963 83.4226 94.1035 83.6865 94.1035C83.9504 94.1035 84.2045 94.1963 84.3981 94.3632C84.4931 94.4494 84.5686 94.5525 84.6201 94.6663C84.6717 94.7801 84.6982 94.9024 84.6982 95.0259C84.6982 95.1494 84.6717 95.2717 84.6201 95.3855C84.5686 95.4994 84.4931 95.6024 84.3981 95.6886L80.3703 99.4396C80.2819 99.5294 80.1738 99.6004 80.0533 99.6478C79.9329 99.6953 79.8029 99.7181 79.6722 99.7147V99.7147Z" fill="white"/>
<path d="M84.6931 98.7893C84.6968 98.9111 84.6723 99.0321 84.6213 99.1443C84.5704 99.2565 84.4941 99.3572 84.3978 99.4395C84.3052 99.528 84.1945 99.5983 84.0723 99.6463C83.9501 99.6943 83.8188 99.719 83.6862 99.719C83.5535 99.719 83.4222 99.6943 83.3 99.6463C83.1778 99.5983 83.0672 99.528 82.9746 99.4395L78.9468 95.6885C78.7581 95.5127 78.6521 95.2744 78.6521 95.0258C78.6521 94.7772 78.7581 94.5389 78.9468 94.3631C79.1356 94.1874 79.3915 94.0886 79.6584 94.0886C79.9253 94.0886 80.1813 94.1874 80.37 94.3631L84.3978 98.1141C84.4948 98.2013 84.5712 98.3064 84.6221 98.4226C84.673 98.5389 84.6972 98.6638 84.6931 98.7893V98.7893Z" fill="white"/>
<path d="M101.419 114.717C101.284 114.72 101.15 114.698 101.025 114.651C100.9 114.603 100.787 114.532 100.694 114.442C100.514 114.261 100.415 114.025 100.415 113.779C100.415 113.533 100.514 113.297 100.694 113.116L104.721 109.365C104.915 109.198 105.169 109.105 105.433 109.105C105.697 109.105 105.951 109.198 106.145 109.365C106.24 109.451 106.315 109.554 106.367 109.668C106.418 109.782 106.445 109.904 106.445 110.028C106.445 110.151 106.418 110.274 106.367 110.387C106.315 110.501 106.24 110.604 106.145 110.691L102.063 114.442C101.981 114.525 101.881 114.593 101.771 114.64C101.66 114.687 101.54 114.713 101.419 114.717Z" fill="white"/>
<path d="M106.44 113.792C106.444 113.913 106.419 114.034 106.368 114.147C106.317 114.259 106.241 114.359 106.145 114.442C106.052 114.53 105.941 114.6 105.819 114.648C105.697 114.696 105.566 114.721 105.433 114.721C105.3 114.721 105.169 114.696 105.047 114.648C104.925 114.6 104.814 114.53 104.722 114.442L100.694 110.691C100.505 110.515 100.399 110.277 100.399 110.028C100.399 109.779 100.505 109.541 100.694 109.365C100.883 109.19 101.138 109.091 101.405 109.091C101.672 109.091 101.928 109.19 102.117 109.365L106.145 113.116C106.242 113.203 106.318 113.309 106.369 113.425C106.42 113.541 106.444 113.666 106.44 113.792V113.792Z" fill="white"/>
<path d="M62.0059 72.4852H47.6422C47.3763 72.4787 47.1236 72.3757 46.9381 72.1982C46.7525 72.0208 46.6487 71.7828 46.6488 71.5351C46.6488 71.2897 46.7535 71.0544 46.9398 70.8809C47.1261 70.7074 47.3787 70.61 47.6422 70.61H62.0059C62.1386 70.6066 62.2707 70.6281 62.3943 70.6731C62.518 70.7181 62.6307 70.7857 62.7258 70.8719C62.8209 70.9582 62.8965 71.0613 62.948 71.1752C62.9996 71.2891 63.0262 71.4115 63.0261 71.5351C63.0261 71.7871 62.9187 72.0287 62.7273 72.2069C62.536 72.3851 62.2765 72.4852 62.0059 72.4852Z" fill="white"/>
<path d="M41.038 72.4855H37.9501C37.6794 72.4855 37.4199 72.3854 37.2285 72.2072C37.0372 72.029 36.9297 71.7873 36.9297 71.5352C36.9296 71.4116 36.9562 71.2892 37.0078 71.1753C37.0594 71.0614 37.135 70.9582 37.2301 70.872C37.3252 70.7857 37.4379 70.7181 37.5616 70.6731C37.6853 70.6281 37.8173 70.6066 37.9501 70.61H41.038C41.1695 70.6065 41.3003 70.6281 41.4225 70.6734C41.5448 70.7187 41.6558 70.7867 41.7488 70.8733C41.8418 70.9599 41.9148 71.0633 41.9634 71.1771C42.0121 71.2909 42.0352 71.4128 42.0315 71.5352C42.0351 71.6588 42.0121 71.7818 41.9637 71.897C41.9154 72.0122 41.8428 72.1171 41.7502 72.2057C41.6576 72.2943 41.5468 72.3647 41.4245 72.4127C41.3022 72.4608 41.1708 72.4855 41.038 72.4855V72.4855Z" fill="white"/>
<path d="M71.4035 72.4854H67.3757C67.0674 72.5143 66.7589 72.4318 66.5141 72.255C66.2692 72.0781 66.1066 71.8204 66.06 71.5351C66.06 71.01 66.6507 70.6099 67.3757 70.6099H71.4035C72.1285 70.6099 72.7192 71.01 72.7192 71.5351C72.6726 71.8204 72.51 72.0781 72.2652 72.255C72.0203 72.4318 71.7118 72.5143 71.4035 72.4854V72.4854Z" fill="white"/>
</svg>
