<svg width="16" height="16" viewBox="0 0 16 16" fill="none" xmlns="http://www.w3.org/2000/svg">
<path d="M0.8 1.20755C0.8 0.982465 0.982465 0.8 1.20755 0.8H6.03774C6.26282 0.8 6.44528 0.982465 6.44528 1.20755V6.03774C6.44528 6.26282 6.26282 6.44528 6.03774 6.44528H1.20755C0.982465 6.44528 0.8 6.26282 0.8 6.03774V1.20755ZM9.55474 1.20755C9.55474 0.982466 9.73721 0.8 9.96229 0.8H14.7925C15.0176 0.8 15.2 0.982465 15.2 1.20755V6.03774C15.2 6.26282 15.0176 6.44528 14.7925 6.44528H9.96229C9.73721 6.44528 9.55474 6.26282 9.55474 6.03774V1.20755ZM9.55474 9.96229C9.55474 9.73721 9.73721 9.55474 9.96229 9.55474H14.7925C15.0176 9.55474 15.2 9.73721 15.2 9.96229V14.7925C15.2 15.0176 15.0176 15.2 14.7925 15.2H9.96229C9.73721 15.2 9.55474 15.0176 9.55474 14.7925V9.96229ZM0.8 9.96229C0.8 9.73721 0.982466 9.55474 1.20755 9.55474H6.03774C6.26282 9.55474 6.44528 9.73721 6.44528 9.96229V14.7925C6.44528 15.0176 6.26282 15.2 6.03774 15.2H1.20755C0.982465 15.2 0.8 15.0176 0.8 14.7925V9.96229Z" stroke="#4F5053" stroke-width="1.6"/>
</svg>
