<svg width="14" height="14" viewBox="0 0 14 14" fill="#4F5053" xmlns="http://www.w3.org/2000/svg">
<g clip-path="url(#clip0)">
<path fill-rule="evenodd" clip-rule="evenodd" d="M7.49636 1.92584C7.44432 1.94713 7.38858 1.95794 7.33235 1.95766C7.21787 1.95766 7.10788 1.91317 7.0256 1.83358C6.98548 1.79356 6.95365 1.74602 6.93193 1.69368C6.91021 1.64134 6.89903 1.58523 6.89903 1.52856C6.89903 1.47189 6.91021 1.41578 6.93193 1.36344C6.95365 1.3111 6.98548 1.26355 7.0256 1.22353L7.39094 0.858198C7.47184 0.777301 7.58156 0.731853 7.69596 0.731853C7.81037 0.731853 7.92009 0.777301 8.00099 0.858198C8.08188 0.939095 8.12733 1.04881 8.12733 1.16322C8.12733 1.27763 8.08188 1.38735 8.00099 1.46824L7.63565 1.83358C7.59574 1.8732 7.54841 1.90455 7.49636 1.92584ZM7.60674 3.23423C7.52594 3.15343 7.48055 3.04385 7.48055 2.92959C7.48055 2.81533 7.52594 2.70575 7.60674 2.62495C7.68753 2.54416 7.79711 2.49877 7.91137 2.49877H8.42836C8.54262 2.49877 8.6522 2.54416 8.733 2.62495C8.81379 2.70575 8.85918 2.81533 8.85918 2.92959C8.85918 3.04385 8.81379 3.15343 8.733 3.23423C8.6522 3.31502 8.54262 3.36041 8.42836 3.36041H7.91137C7.79711 3.36041 7.68753 3.31502 7.60674 3.23423ZM6.23423 1.25245C6.15343 1.33324 6.04385 1.37863 5.92959 1.37863C5.81533 1.37863 5.70575 1.33324 5.62495 1.25245C5.54416 1.17165 5.49877 1.06207 5.49877 0.947809V0.430822C5.49877 0.316561 5.54416 0.20698 5.62495 0.126185C5.70575 0.0453901 5.81533 0 5.92959 0C6.04385 0 6.15343 0.0453901 6.23423 0.126185C6.31502 0.20698 6.36041 0.316561 6.36041 0.430822V0.947809C6.36041 1.06207 6.31502 1.17165 6.23423 1.25245ZM4.58198 12.063H9.46233C9.5052 12.0628 9.54661 12.0786 9.57848 12.1073C9.61034 12.1359 9.63038 12.1755 9.63466 12.2181V13.8449C9.63466 13.8906 9.61651 13.9344 9.58419 13.9668C9.55187 13.9991 9.50804 14.0172 9.46233 14.0172H4.58198C4.53627 14.0172 4.49244 13.9991 4.46012 13.9668C4.42781 13.9344 4.40965 13.8906 4.40965 13.8449V12.2353C4.40965 12.1896 4.42781 12.1458 4.46012 12.1135C4.49244 12.0812 4.53627 12.063 4.58198 12.063ZM8.38073 13.3465C8.4419 13.3867 8.51367 13.4079 8.5869 13.4072V13.39C8.68088 13.3901 8.77129 13.3539 8.83933 13.2891C8.90737 13.2243 8.94781 13.1357 8.95224 13.0418C8.95292 12.9686 8.93179 12.8968 8.89153 12.8357C8.85127 12.7745 8.79371 12.7267 8.72618 12.6984C8.65866 12.67 8.58422 12.6624 8.51237 12.6766C8.44051 12.6907 8.37449 12.7259 8.3227 12.7776C8.27092 12.8294 8.23573 12.8955 8.22161 12.9673C8.20749 13.0392 8.21508 13.1136 8.24342 13.1811C8.27176 13.2487 8.31956 13.3062 8.38073 13.3465ZM4.36282 1.92584C4.31077 1.90455 4.26344 1.8732 4.22354 1.83358L3.8582 1.46824C3.7773 1.38735 3.73185 1.27763 3.73185 1.16322C3.73185 1.04881 3.7773 0.939095 3.8582 0.858198C3.93909 0.777301 4.04881 0.731853 4.16322 0.731853C4.27763 0.731853 4.38735 0.777301 4.46824 0.858198L4.83358 1.22353C4.8737 1.26355 4.90553 1.3111 4.92725 1.36344C4.94897 1.41578 4.96015 1.47189 4.96015 1.52856C4.96015 1.58523 4.94897 1.64134 4.92725 1.69368C4.90553 1.74602 4.8737 1.79356 4.83358 1.83358C4.7513 1.91317 4.64131 1.95766 4.52683 1.95766C4.4706 1.95794 4.41487 1.94713 4.36282 1.92584ZM3.43082 2.49877H3.94781C4.06207 2.49877 4.17165 2.54416 4.25245 2.62495C4.33324 2.70575 4.37863 2.81533 4.37863 2.92959C4.37863 3.04385 4.33324 3.15343 4.25245 3.23423C4.17165 3.31502 4.06207 3.36041 3.94781 3.36041H3.43082C3.31656 3.36041 3.20698 3.31502 3.12618 3.23423C3.04539 3.15343 3 3.04385 3 2.92959C3 2.81533 3.04539 2.70575 3.12618 2.62495C3.20698 2.54416 3.31656 2.49877 3.43082 2.49877ZM9.69886 5.38828C9.82754 5.34914 9.9629 5.33695 10.0965 5.35245C10.2603 5.38633 10.407 5.47668 10.5109 5.60771C10.6149 5.73875 10.6695 5.90214 10.6652 6.06934V9.39529C10.665 9.66942 10.5559 9.93224 10.3619 10.126L9.58986 10.898C9.39614 11.092 9.13332 11.2011 8.85919 11.2013H5.06795C4.8147 11.2036 4.56942 11.1128 4.37863 10.9462L3.44806 10.1329C3.33858 10.0349 3.25122 9.91484 3.1918 9.78053C3.13237 9.64622 3.10223 9.50079 3.1034 9.35393V7.65132C3.1034 7.40451 3.20144 7.16782 3.37596 6.9933C3.46237 6.90689 3.56496 6.83834 3.67786 6.79158C3.79076 6.74481 3.91177 6.72074 4.03398 6.72074H4.22699C4.29006 6.72074 4.35055 6.7458 4.39514 6.7904C4.43974 6.83499 4.4648 6.89548 4.4648 6.95856V7.58239C4.4648 7.7652 4.53742 7.94053 4.6667 8.06981C4.79597 8.19908 4.9713 8.2717 5.15411 8.2717V2.75718C5.15253 2.64658 5.17758 2.53723 5.22715 2.43836C5.27672 2.33949 5.34936 2.254 5.43893 2.1891C5.52849 2.12421 5.63236 2.08182 5.74175 2.06552C5.85115 2.04922 5.96286 2.05948 6.06746 2.09543C6.20949 2.144 6.33179 2.2376 6.41577 2.36202C6.49975 2.48643 6.54082 2.63486 6.53275 2.78475V4.96299C6.63482 4.85402 6.76078 4.77023 6.90073 4.7182C7.04067 4.66617 7.19078 4.64732 7.33925 4.66313C7.4876 4.69053 7.62641 4.75565 7.74231 4.85223C7.85821 4.94881 7.94729 5.0736 8.00099 5.21459C8.10038 5.13358 8.21512 5.07351 8.33831 5.03797C8.46151 5.00243 8.59061 4.99217 8.71788 5.00779C8.86592 5.03482 9.00344 5.10272 9.1149 5.20383C9.22637 5.30494 9.30732 5.43521 9.3486 5.57992C9.45095 5.49266 9.57018 5.42742 9.69886 5.38828Z" />
</g>
<defs>
<clipPath>
<rect width="14" height="14" fill="white"/>
</clipPath>
</defs>
</svg>
