<svg width="16" height="30" viewBox="0 0 16 30" fill="#4F5053" xmlns="http://www.w3.org/2000/svg">
<g clip-path="url(#clip0)">
<path fill-rule="evenodd" clip-rule="evenodd" d="M9.3813 4.01812C9.27271 4.06254 9.15642 4.0851 9.0391 4.08449C8.80026 4.0845 8.57077 3.99168 8.3991 3.82562C8.31539 3.74212 8.24898 3.64293 8.20366 3.53372C8.15835 3.42452 8.13502 3.30745 8.13502 3.18921C8.13502 3.07098 8.15835 2.95391 8.20366 2.8447C8.24898 2.7355 8.31539 2.63631 8.3991 2.55281L9.16135 1.79056C9.33013 1.62178 9.55905 1.52695 9.79775 1.52695C10.0365 1.52695 10.2654 1.62178 10.4342 1.79056C10.6029 1.95935 10.6978 2.18827 10.6978 2.42697C10.6978 2.66566 10.6029 2.89459 10.4342 3.06337L9.67191 3.82562C9.58865 3.90828 9.48989 3.97369 9.3813 4.01812ZM9.61159 6.74796C9.44302 6.57939 9.34831 6.35076 9.34831 6.11236C9.34831 5.87396 9.44302 5.64533 9.61159 5.47676C9.78016 5.30819 10.0088 5.21348 10.2472 5.21348H11.3258C11.5642 5.21348 11.7929 5.30819 11.9614 5.47676C12.13 5.64533 12.2247 5.87396 12.2247 6.11236C12.2247 6.35076 12.13 6.57939 11.9614 6.74796C11.7929 6.91653 11.5642 7.01124 11.3258 7.01124H10.2472C10.0088 7.01124 9.78016 6.91653 9.61159 6.74796ZM6.74796 2.61313C6.57939 2.7817 6.35076 2.8764 6.11236 2.8764C5.87396 2.8764 5.64533 2.7817 5.47676 2.61313C5.30819 2.44456 5.21348 2.21592 5.21348 1.97753V0.898876C5.21348 0.660479 5.30819 0.431847 5.47676 0.263275C5.64533 0.0947028 5.87396 0 6.11236 0C6.35076 0 6.57939 0.0947028 6.74796 0.263275C6.91653 0.431847 7.01124 0.660479 7.01124 0.898876V1.97753C7.01124 2.21592 6.91653 2.44456 6.74796 2.61313ZM3.30067 25.1685H13.4831C13.5726 25.1681 13.659 25.201 13.7255 25.2608C13.792 25.3207 13.8338 25.4031 13.8427 25.4921V28.8863C13.8427 28.9816 13.8048 29.0731 13.7374 29.1405C13.67 29.208 13.5785 29.2458 13.4831 29.2458H3.30067C3.20532 29.2458 3.11386 29.208 3.04643 29.1405C2.979 29.0731 2.94112 28.9816 2.94112 28.8863V25.5281C2.94112 25.4327 2.979 25.3413 3.04643 25.2738C3.11386 25.2064 3.20532 25.1685 3.30067 25.1685ZM11.2265 27.8464C11.3541 27.9304 11.5038 27.9745 11.6566 27.973V27.9371C11.8527 27.9373 12.0413 27.8619 12.1833 27.7267C12.3253 27.5914 12.4096 27.4066 12.4189 27.2108C12.4203 27.058 12.3762 26.9083 12.2922 26.7806C12.2082 26.653 12.0881 26.5533 11.9472 26.4941C11.8063 26.435 11.651 26.4192 11.5011 26.4486C11.3512 26.4781 11.2134 26.5515 11.1054 26.6596C10.9974 26.7676 10.9239 26.9053 10.8945 27.0553C10.865 27.2052 10.8809 27.3605 10.94 27.5014C10.9991 27.6423 11.0988 27.7624 11.2265 27.8464ZM2.84342 4.01812C2.73483 3.97369 2.63607 3.90828 2.55281 3.82562L1.79056 3.06337C1.62178 2.89459 1.52695 2.66566 1.52695 2.42697C1.52695 2.18827 1.62178 1.95935 1.79056 1.79056C1.95935 1.62178 2.18827 1.52695 2.42697 1.52695C2.66566 1.52695 2.89459 1.62178 3.06337 1.79056L3.82562 2.55281C3.90933 2.63631 3.97574 2.7355 4.02106 2.8447C4.06637 2.95391 4.0897 3.07098 4.0897 3.18921C4.0897 3.30745 4.06637 3.42452 4.02106 3.53372C3.97574 3.64293 3.90933 3.74212 3.82562 3.82562C3.65395 3.99168 3.42446 4.0845 3.18562 4.08449C3.06829 4.0851 2.95201 4.06254 2.84342 4.01812ZM0.898876 5.21348H1.97753C2.21592 5.21348 2.44456 5.30819 2.61313 5.47676C2.7817 5.64533 2.8764 5.87396 2.8764 6.11236C2.8764 6.35076 2.7817 6.57939 2.61313 6.74796C2.44456 6.91653 2.21592 7.01124 1.97753 7.01124H0.898876C0.660479 7.01124 0.431847 6.91653 0.263275 6.74796C0.0947028 6.57939 0 6.35076 0 6.11236C0 5.87396 0.0947028 5.64533 0.263275 5.47676C0.431847 5.30819 0.660479 5.21348 0.898876 5.21348ZM13.9766 11.2423C14.2451 11.1607 14.5275 11.1352 14.8063 11.1676C15.148 11.2383 15.4541 11.4268 15.6709 11.7002C15.8878 11.9736 16.0017 12.3145 15.9928 12.6633V19.6026C15.9923 20.1746 15.7647 20.7229 15.36 21.1271L13.7492 22.7379C13.345 23.1426 12.7967 23.3702 12.2247 23.3707H4.3146C3.78621 23.3755 3.27445 23.1861 2.8764 22.8386L0.934829 21.1415C0.70642 20.9372 0.524151 20.6866 0.400158 20.4064C0.276164 20.1262 0.213292 19.8228 0.215728 19.5163V15.964C0.215728 15.449 0.420286 14.9552 0.784402 14.5911C0.964694 14.4108 1.17873 14.2678 1.41429 14.1702C1.64986 14.0726 1.90233 14.0224 2.1573 14.0224H2.56C2.69159 14.0224 2.8178 14.0747 2.91085 14.1677C3.0039 14.2608 3.05618 14.387 3.05618 14.5186V15.8202C3.05618 16.2016 3.2077 16.5674 3.47742 16.8371C3.74713 17.1068 4.11295 17.2584 4.49438 17.2584V5.75274C4.49108 5.522 4.54334 5.29385 4.64677 5.08756C4.7502 4.88127 4.90174 4.7029 5.08862 4.5675C5.27549 4.43211 5.4922 4.34367 5.72044 4.30966C5.94869 4.27564 6.18177 4.29705 6.4 4.37207C6.69634 4.4734 6.9515 4.66869 7.12672 4.92828C7.30193 5.18786 7.38763 5.49754 7.37078 5.81027V10.355C7.58375 10.1277 7.84657 9.95282 8.13855 9.84427C8.43053 9.73571 8.74372 9.69638 9.05348 9.72937C9.36302 9.78653 9.65263 9.9224 9.89444 10.1239C10.1363 10.3254 10.3221 10.5858 10.4342 10.8799C10.6415 10.7109 10.8809 10.5856 11.138 10.5114C11.395 10.4373 11.6644 10.4159 11.9299 10.4485C12.2388 10.5049 12.5257 10.6465 12.7583 10.8575C12.9908 11.0684 13.1597 11.3403 13.2458 11.6422C13.4594 11.4601 13.7081 11.324 13.9766 11.2423Z" />
</g>
<defs>
<clipPath id="clip0">
<rect width="16" height="29.2099" fill="white"/>
</clipPath>
</defs>
</svg>
