<svg width="161" height="25" viewBox="0 0 161 25"  fill="#065F75" xmlns="http://www.w3.org/2000/svg">
<path fill-rule="evenodd" clip-rule="evenodd" d="M14.7886 12.5156V11.7038H14.7506C14.809 9.8571 15.7221 8.9385 16.6408 8.0143C17.6636 6.98543 18.6932 5.94962 18.5581 3.6187C18.4157 1.03129 16.0419 -0.720548 13.4878 0.290677C11.8546 0.94109 11.0143 2.31313 11.0143 3.69467C11.0095 5.48449 11.9685 6.67137 12.994 7.03218C14.499 7.56865 15.7523 6.39126 15.7618 5.20438C15.7903 4.97175 15.7856 4.72963 15.6906 4.49225C15.3963 3.75163 14.5654 3.39082 13.8153 3.68517C13.0747 3.97477 12.7187 4.81508 13.0083 5.56045C13.2219 6.09692 13.7204 6.4245 14.2616 6.45298C13.0985 6.84228 11.9543 5.74085 11.8973 4.04124C11.8641 2.86385 12.1584 0.575535 14.7933 0.461594C16.436 0.395129 17.8982 1.80514 17.8982 4.05073C17.8982 5.88976 17.0619 6.85188 16.2421 7.79494C15.3795 8.78734 14.5352 9.75864 14.7031 11.7085H8.91113L5.44543 8.64634L0 12.112L5.44543 15.5778L8.91113 12.5156H14.7031C14.5353 14.4642 15.3784 15.433 16.2405 16.4236C17.0608 17.3662 17.8982 18.3285 17.8982 20.1734C17.8982 22.4095 16.4312 23.829 14.7933 23.7625C12.1537 23.6533 11.8641 21.3602 11.8973 20.1734C11.9543 18.488 13.1032 17.3723 14.2711 17.7616C13.7299 17.7901 13.2219 18.1224 13.0083 18.6589C12.7139 19.39 13.0747 20.2351 13.8153 20.5342C14.5607 20.8285 15.3915 20.4677 15.6906 19.7271C15.7856 19.485 15.7903 19.2429 15.7618 19.0055C15.7523 17.8186 14.4942 16.6412 12.994 17.1777C11.9685 17.5385 11.0095 18.7349 11.0143 20.5247C11.0143 21.8967 11.8594 23.2688 13.4878 23.9192C16.0419 24.9399 18.4157 23.1786 18.5581 20.5912C18.6957 18.2591 17.6662 17.2261 16.6429 16.1992C15.7246 15.2777 14.8112 14.3613 14.7506 12.5156H14.7886ZM114.487 6.27229C103.003 2.968 90.0186 2.66416 80.9935 12.9046V12.672L84.7013 8.4704L80.4998 1.86658L76.2935 8.47515L80.0013 12.6767V12.9094C70.981 2.66891 57.9964 2.968 46.5074 6.27703C34.9756 9.59556 23.2872 12.7574 17.0869 12.653C25.4063 15.5328 34.4418 13.138 43.1427 10.832C44.5113 10.4692 45.8716 10.1087 47.2195 9.77122C55.0862 7.80099 70.0125 4.62489 80.0013 13.0138V15.1549C77.6353 14.9529 76.4587 15.9777 75.2569 17.0244C74.1148 18.0191 72.9499 19.0337 70.7198 19.0337C68.009 19.0337 66.2951 17.2581 66.3711 15.2689C66.504 12.0643 69.2813 11.7177 70.7198 11.7557C72.7708 11.8222 74.1143 13.2132 73.6396 14.628C73.6064 13.968 73.2028 13.3556 72.5524 13.104C71.6599 12.7479 70.6344 13.1847 70.2783 14.0772C69.9223 14.9793 70.3543 15.9905 71.2611 16.3513C71.5507 16.4605 71.845 16.4748 72.1346 16.4368C73.5731 16.432 75.0021 14.9033 74.347 13.085C73.9054 11.8411 72.4669 10.678 70.2973 10.6828C68.6214 10.6828 66.9551 11.7082 66.1717 13.6832C64.9421 16.7833 67.0737 19.6603 70.2071 19.8313C73.0365 19.9964 74.288 18.7496 75.5321 17.5102C76.649 16.3975 77.7599 15.2908 80.0013 15.2167V15.2641H80.9935V15.2167C83.2307 15.2885 84.3435 16.3955 85.4628 17.5088C86.7092 18.7486 87.9636 19.9964 90.7877 19.8313C93.9163 19.6603 96.048 16.7833 94.8278 13.6832C94.0397 11.7082 92.3686 10.6828 90.6975 10.6828C88.5326 10.678 87.0894 11.8411 86.6478 13.085C86.0069 14.9081 87.4264 16.432 88.8649 16.4368C89.1498 16.4795 89.4441 16.4653 89.7385 16.3513C90.6405 15.9953 91.0678 14.984 90.7165 14.0772C90.3652 13.1847 89.3397 12.7479 88.4472 13.104C87.7872 13.3604 87.3837 13.968 87.36 14.6185C86.8947 13.2084 88.2288 11.8174 90.2845 11.751C91.7135 11.713 94.4908 12.0595 94.619 15.2641C94.6997 17.2533 92.9858 19.0289 90.275 19.0289C88.0438 19.0289 86.8767 18.0135 85.7329 17.0183C84.5304 15.9721 83.3536 14.9482 80.9935 15.1502V13.009C90.9823 4.62015 105.909 7.79625 113.775 9.76648C115.128 10.105 116.492 10.4669 117.865 10.831L117.865 10.831C126.561 13.1369 135.589 15.5307 143.908 12.6482C137.708 12.7527 126.019 9.59082 114.487 6.27229ZM152.088 11.7083L155.554 8.64611L160.999 12.1213L155.554 15.587L152.088 12.5248H146.296C146.464 14.4735 145.621 15.4423 144.759 16.4329C143.938 17.3754 143.101 18.3377 143.101 20.1826C143.101 22.4187 144.563 23.8382 146.206 23.7623C148.841 23.6578 149.135 21.3695 149.102 20.1826C149.045 18.4925 147.901 17.3911 146.738 17.7709C147.279 17.7946 147.777 18.1317 147.991 18.6682C148.281 19.404 147.925 20.2491 147.184 20.5434C146.434 20.8283 145.603 20.477 145.309 19.7364C145.214 19.499 145.209 19.2569 145.237 19.0147C145.247 17.8278 146.5 16.6599 148.005 17.1869C149.031 17.5477 149.99 18.7441 149.985 20.5339C149.985 21.906 149.145 23.278 147.512 23.9284C144.957 24.9492 142.584 23.1878 142.441 20.6004C142.306 18.2726 143.335 17.2393 144.358 16.2125C145.277 15.2896 146.19 14.3721 146.249 12.5248H146.211V11.7083H146.249C146.188 9.85788 145.274 8.94116 144.356 8.01957C143.333 6.9928 142.304 5.96 142.441 3.62321C142.584 1.0358 144.957 -0.716031 147.512 0.295195C149.14 0.945607 149.985 2.31764 149.985 3.69917C149.99 5.489 149.031 6.67589 148.005 7.0367C146.505 7.57317 145.247 6.40527 145.237 5.21838C145.209 4.98101 145.214 4.73888 145.309 4.49676C145.608 3.75614 146.439 3.39533 147.184 3.68968C147.925 3.97928 148.285 4.82434 147.991 5.56495C147.777 6.10143 147.269 6.42426 146.728 6.46224C147.896 6.85154 149.045 5.73587 149.102 4.05049C149.135 2.86361 148.846 0.570551 146.206 0.461358C144.568 0.394892 143.101 1.8049 143.101 4.05049C143.101 5.88851 143.936 6.84833 144.756 7.78967C145.619 8.78134 146.464 9.75251 146.296 11.7083H152.088Z"/>
</svg>
