<svg width="16" height="16" viewBox="0 0 16 16" fill="none" xmlns="http://www.w3.org/2000/svg">
<path fill-rule="evenodd" clip-rule="evenodd" d="M1.19949 2.66666C0.536751 2.66666 -0.00050743 3.20392 -0.00050743 3.86666C-0.00050743 4.52941 0.536751 5.06666 1.19949 5.06666C1.86223 5.06666 2.39949 4.52941 2.39949 3.86666C2.39949 3.20392 1.86223 2.66666 1.19949 2.66666ZM15.999 3.06673H3.99902V4.66673H15.999V3.06673ZM3.99902 7.20003H15.999V8.80003H3.99902V7.20003ZM1.19902 6.79997C0.536281 6.79997 -0.000976562 7.33722 -0.000976562 7.99997C-0.000976562 8.66271 0.536281 9.19997 1.19902 9.19997C1.86177 9.19997 2.39902 8.66271 2.39902 7.99997C2.39902 7.33722 1.86177 6.79997 1.19902 6.79997ZM-0.000976562 12.1333C-0.000976562 11.4705 0.536281 10.9333 1.19902 10.9333C1.86177 10.9333 2.39902 11.4705 2.39902 12.1333C2.39902 12.796 1.86177 13.3333 1.19902 13.3333C0.536281 13.3333 -0.000976562 12.796 -0.000976562 12.1333ZM15.999 11.3333H3.99902V12.9333H15.999V11.3333Z" fill="#4F5053"/>
</svg>
