<svg width="14" height="18" viewBox="0 0 14 18"  fill="#4F5053" xmlns="http://www.w3.org/2000/svg">
<g clip-path="url(#clip0)">
<path fill-rule="evenodd" clip-rule="evenodd" d="M2.60619 2.16453C3.54426 0.998158 4.89295 0.234803 6.3758 0.0309524C7.17334 -0.055698 7.98018 0.0267429 8.74372 0.272898C9.50725 0.519054 10.2103 0.923395 10.8071 1.45955C11.4038 1.99571 11.8809 2.65163 12.2071 3.38455C12.5332 4.11747 12.7013 4.91092 12.7002 5.71315C12.7002 9.68967 8.70827 13.1216 7.40332 14.1491C7.2852 14.2391 7.14081 14.2879 6.99231 14.2879C6.84381 14.2879 6.69942 14.2391 6.5813 14.1491C5.33286 13.2449 1.67488 10.2754 1.33066 6.30398C1.21177 4.81192 1.66813 3.3309 2.60619 2.16453ZM5.74669 7.57732C6.11844 7.82571 6.55549 7.95829 7.00259 7.95829C7.60212 7.95829 8.1771 7.72013 8.60104 7.29619C9.02497 6.87226 9.26314 6.29728 9.26314 5.69774C9.26314 5.25065 9.13056 4.81359 8.88217 4.44185C8.63377 4.0701 8.28072 3.78036 7.86766 3.60927C7.4546 3.43817 7.00008 3.3934 6.56158 3.48063C6.12307 3.56785 5.72028 3.78315 5.40414 4.09929C5.08799 4.41543 4.8727 4.81823 4.78547 5.25673C4.69825 5.69523 4.74301 6.14976 4.91411 6.56282C5.08521 6.97588 5.37495 7.32893 5.74669 7.57732ZM13.0393 12.4639L13.9743 16.6973C14.0081 16.8517 14.0068 17.0117 13.9706 17.1656C13.9345 17.3195 13.8643 17.4633 13.7652 17.5865C13.6662 17.7097 13.5408 17.8091 13.3983 17.8775C13.2558 17.9459 13.0997 17.9815 12.9417 17.9817H1.05323C0.895819 17.9815 0.740449 17.9461 0.598545 17.8779C0.456641 17.8098 0.331813 17.7107 0.23324 17.588C0.134666 17.4653 0.064855 17.322 0.02894 17.1688C-0.00697492 17.0155 -0.00808023 16.8561 0.0257054 16.7024L0.935063 12.469C0.986391 12.2342 1.1161 12.0239 1.30284 11.8726C1.48959 11.7214 1.72226 11.6382 1.96259 11.6367H2.20919C3.2439 12.9945 4.473 14.1924 5.8569 15.1919C6.20299 15.4405 6.62024 15.5703 7.04624 15.562C7.47224 15.5536 7.8841 15.4076 8.2202 15.1457C9.53419 14.135 10.7089 12.9551 11.7138 11.6367H12.0118C12.2514 11.6379 12.4835 11.7204 12.6701 11.8706C12.8568 12.0209 12.9869 12.23 13.0393 12.4639Z"/>
</g>
<defs>
<clipPath id="clip0">
<rect width="14" height="17.9817" fill="white"/>
</clipPath>
</defs>
</svg>
