<svg width="14" height="14" viewBox="0 0 14 14" fill="#4F5053" xmlns="http://www.w3.org/2000/svg">
<g clip-path="url(#clip0)">
<path fill-rule="evenodd" clip-rule="evenodd" d="M4.02909 1.68519C4.75944 0.777085 5.80949 0.182759 6.96399 0.0240464C7.58493 -0.0434172 8.21312 0.020769 8.80759 0.212419C9.40205 0.404068 9.94944 0.718877 10.4141 1.13631C10.8787 1.55375 11.2501 2.06443 11.504 2.63506C11.758 3.20569 11.8888 3.82345 11.888 4.44805C11.888 7.54405 8.77999 10.216 7.76399 11.016C7.67203 11.0861 7.55961 11.1241 7.44399 11.1241C7.32838 11.1241 7.21596 11.0861 7.12399 11.016C6.15199 10.312 3.30399 8.00005 3.03599 4.90805C2.94343 3.74637 3.29874 2.59329 4.02909 1.68519ZM6.47419 5.89943C6.76362 6.09282 7.1039 6.19605 7.45199 6.19605C7.91878 6.19605 8.36644 6.01062 8.6965 5.68055C9.02657 5.35049 9.21199 4.90283 9.21199 4.43605C9.21199 4.08795 9.10877 3.74767 8.91538 3.45824C8.72199 3.16881 8.44712 2.94323 8.12552 2.81002C7.80392 2.67681 7.45004 2.64195 7.10864 2.70986C6.76723 2.77777 6.45363 2.9454 6.20749 3.19154C5.96135 3.43768 5.79372 3.75128 5.72581 4.09269C5.6579 4.43409 5.69276 4.78797 5.82597 5.10957C5.95918 5.43117 6.18476 5.70604 6.47419 5.89943ZM12.152 9.70397L12.88 13C12.9063 13.1202 12.9053 13.2448 12.8771 13.3646C12.849 13.4844 12.7943 13.5964 12.7172 13.6923C12.6401 13.7882 12.5425 13.8656 12.4315 13.9189C12.3205 13.9721 12.1991 13.9998 12.076 14H2.82C2.69744 13.9998 2.57647 13.9722 2.46599 13.9192C2.35551 13.8661 2.25832 13.789 2.18158 13.6935C2.10483 13.5979 2.05048 13.4864 2.02251 13.3671C1.99455 13.2477 1.99369 13.1237 2.02 13.004L2.728 9.70796C2.76796 9.52517 2.86894 9.36142 3.01434 9.24365C3.15974 9.12588 3.34089 9.0611 3.528 9.05996H3.72C4.52559 10.1171 5.48253 11.0498 6.55999 11.828C6.82945 12.0215 7.15431 12.1225 7.48598 12.116C7.81766 12.1096 8.13831 11.9959 8.4 11.792C9.42303 11.0051 10.3376 10.0865 11.12 9.05996H11.352C11.5386 9.06089 11.7193 9.1251 11.8646 9.24209C12.0099 9.35907 12.1112 9.52191 12.152 9.70397Z" />
</g>
<defs>
<clipPath>
<rect width="14" height="14" fill="white"/>
</clipPath>
</defs>
</svg>
