<svg width="470" height="253" viewBox="0 0 470 253" fill="none" xmlns="http://www.w3.org/2000/svg">
<path fill-rule="evenodd" clip-rule="evenodd" d="M193.165 19.0486C204.219 11.6624 217.215 7.72002 230.51 7.72002C248.331 7.7412 265.417 14.8301 278.018 27.4317C290.62 40.0333 297.709 57.1187 297.73 74.94C297.73 88.2349 293.788 101.231 286.401 112.285C279.015 123.34 268.517 131.955 256.234 137.043C243.951 142.131 230.436 143.462 217.396 140.868C204.357 138.275 192.379 131.873 182.978 122.472C173.577 113.071 167.175 101.093 164.582 88.054C161.988 75.0146 163.319 61.4989 168.407 49.216C173.495 36.9332 182.11 26.4349 193.165 19.0486ZM188.867 137.264C201.194 145.498 215.686 149.892 230.51 149.89C250.382 149.874 269.436 141.972 283.487 127.92C297.537 113.867 305.437 94.8122 305.45 74.94C305.45 60.1159 301.054 45.6247 292.818 33.299C284.582 20.9733 272.876 11.3668 259.18 5.6943C245.484 0.0218023 230.414 -1.46187 215.874 1.4309C201.335 4.32367 187.98 11.463 177.499 21.9459C167.017 32.4289 159.88 45.7846 156.989 60.3241C154.098 74.8637 155.584 89.9339 161.258 103.629C166.933 117.324 176.541 129.029 188.867 137.264ZM72.3399 238.65H65.9999C62.2199 238.65 61.4999 237.65 57.6599 232.17C56.3999 230.36 54.0399 227.24 54.0399 227.24L59.1999 221.75C59.1999 221.75 67.1999 213.96 59.9699 214.12V213.3H72.8299V214.12C71.0799 214.18 66.6899 214.56 58.6199 223.94C64.7099 232.5 67.4599 235.36 67.4599 235.36C68.0194 236.129 68.7537 236.754 69.6021 237.183C70.4506 237.613 71.389 237.835 72.3399 237.83V238.65ZM54.9999 238.65H44.7399V237.83C46.8299 237.22 46.9399 235.58 46.9399 232.78V203.86C46.9399 201.94 46.4399 201.12 44.1899 200.52V199.69L52.7499 197.94V232.78C52.7499 235.78 53.0299 237.33 54.9999 237.83V238.65ZM86.7801 232.28C86.7707 232.801 86.866 233.318 87.0606 233.8C87.2551 234.283 87.5448 234.722 87.9124 235.091C88.28 235.459 88.7181 235.75 89.2004 235.946C89.6828 236.141 90.1996 236.238 90.7201 236.23C91.6407 236.22 92.5358 235.927 93.2837 235.39C94.0316 234.853 94.596 234.099 94.9001 233.23V225.43C89.0201 226.75 86.7801 229.22 86.7801 232.29V232.28ZM105.78 235.37C105.4 237.07 103.2 239.15 100.02 239.15C100.02 239.15 95.4601 239.21 95.0201 234.6C94.2501 237.12 91.0201 239.15 87.1701 239.15C87.1701 239.15 80.8601 239.15 80.8601 233.56C80.8601 228.072 85.0299 227.017 93.6104 224.845L93.6309 224.84C94.0659 224.73 94.5124 224.617 94.9701 224.5V221.2C94.9701 215.55 91.9701 212.53 87.8901 214.51C85.9701 215.51 85.6901 216.51 86.0201 216.51C86.3901 216.553 86.7473 216.672 87.0691 216.859C87.3909 217.047 87.6705 217.299 87.8901 217.6C88.1129 217.905 88.2727 218.251 88.3602 218.618C88.4477 218.985 88.4611 219.366 88.3996 219.739C88.3382 220.111 88.2031 220.467 88.0023 220.787C87.8015 221.107 87.539 221.383 87.2301 221.6C86.7063 222.007 86.0574 222.219 85.3946 222.2C84.7318 222.181 84.0962 221.932 83.5965 221.496C83.0968 221.06 82.7641 220.464 82.6553 219.81C82.5465 219.156 82.6684 218.484 83.0001 217.91C83.9569 216.149 85.4586 214.746 87.2801 213.91C88.9041 213.134 90.6911 212.76 92.4901 212.82C99.0801 212.82 100.83 217.31 100.83 223.82V232.6C100.83 232.6 100.83 236.22 103.41 236.22C103.755 236.215 104.09 236.101 104.366 235.894C104.643 235.688 104.847 235.399 104.95 235.07L105.78 235.37ZM127.05 213.63C130.29 213.63 133.64 216.1 133.64 222.19V230.86C133.64 234.7 131.11 237.39 127.44 237.39C122.83 237.39 120.52 233.76 120.52 224.99C120.52 216.43 123.21 213.63 127.05 213.63ZM135.2 239.1L142.2 238L142.23 237.17C139.98 237 139.43 236.51 139.43 233.82V197.94L130.87 199.69V200.52C133.12 201.12 133.67 201.78 133.67 203.7V214.62C131.65 213.403 129.329 212.776 126.97 212.81C119.51 212.81 113.8 216.92 113.8 225.64C113.8 233.76 118.63 239.14 125.44 239.14C128.07 239.14 131.91 237.92 133.67 234.92V238.1C133.67 238.1 133.67 239.32 135.2 239.1ZM168.32 224.66C168.32 217.19 165.41 213.66 162.61 213.66C159.43 213.66 156.61 218.6 156.61 224.66H168.32ZM173.15 232.07C172.43 234.75 169.25 239.14 162.34 239.14C155.43 239.14 150.43 233 150.43 226.14C150.43 218.24 155.64 212.81 162.83 212.81C170.02 212.81 174 216.87 174 225.48H156.58C156.91 231.85 159.92 234.75 163.87 235.36C167.06 235.85 171.17 234.31 172.38 231.68L173.15 232.07ZM213 238.65H223.24L223.29 237.83C221.32 237.33 221.05 235.78 221.05 232.78V221.37C221.05 214.72 218.36 212.81 213.97 212.81C212.191 212.866 210.471 213.456 209.031 214.503C207.592 215.549 206.501 217.005 205.9 218.68C205.19 214.56 202.83 212.81 198.99 212.81C197.248 212.89 195.564 213.464 194.135 214.464C192.706 215.464 191.591 216.85 190.92 218.46V212.81L182.36 214.67V215.5C184.61 216.43 185.11 217.36 185.11 219.28V232.83C185.11 235.63 185.05 237.22 182.97 237.83V238.65H193.17V237.83C191.25 237.28 190.92 235.83 190.92 232.83V220.76C191.14 218.84 193.34 216.15 195.75 216.15C198.71 216.15 200.2 218.02 200.2 221.53V232.78C200.2 235.58 200.09 237.22 198 237.83V238.65H208.23V237.83C206.26 237.33 205.98 235.78 205.98 232.78L205.93 221.59V220.87C206.062 219.655 206.608 218.523 207.477 217.663C208.346 216.804 209.484 216.269 210.7 216.15C213.66 216.15 215.2 218.02 215.2 221.53V232.78C215.2 235.58 215.09 237.22 213 237.83V238.65ZM233.35 205.07C233.345 204.642 233.424 204.216 233.584 203.819C233.744 203.421 233.98 203.059 234.281 202.753C234.581 202.447 234.938 202.204 235.333 202.037C235.728 201.87 236.151 201.783 236.58 201.78C237.458 201.78 238.301 202.125 238.928 202.74C239.554 203.355 239.914 204.192 239.93 205.07C239.912 205.943 239.549 206.773 238.922 207.38C238.294 207.986 237.453 208.321 236.58 208.31C236.154 208.313 235.732 208.231 235.338 208.069C234.945 207.907 234.587 207.668 234.287 207.366C233.986 207.065 233.748 206.707 233.588 206.312C233.427 205.918 233.346 205.496 233.35 205.07ZM242.29 238.65H232.08V237.83C234.17 237.17 234.28 235.58 234.28 232.78V219.06C234.28 217.19 233.73 216.43 231.48 215.5V214.67L240.04 212.81V232.81C240.04 235.81 240.31 237.31 242.29 237.86V238.65ZM258.378 233.813C258.18 233.327 258.082 232.805 258.09 232.28L258.14 232.29C258.14 229.22 260.39 226.75 266.26 225.43V233.23C265.96 234.1 265.398 234.855 264.652 235.392C263.905 235.93 263.01 236.222 262.09 236.23C261.565 236.245 261.042 236.153 260.553 235.961C260.065 235.768 259.62 235.479 259.246 235.109C258.872 234.74 258.577 234.299 258.378 233.813ZM271.38 239.15C274.56 239.15 276.75 237.07 277.14 235.37L276.32 235.08C276.217 235.409 276.013 235.698 275.736 235.904C275.46 236.111 275.125 236.225 274.78 236.23C272.2 236.23 272.2 232.61 272.2 232.61V223.83C272.2 217.32 270.44 212.83 263.86 212.83C262.061 212.77 260.274 213.144 258.65 213.92C256.826 214.752 255.323 216.156 254.37 217.92C254.069 218.488 253.968 219.14 254.084 219.772C254.199 220.404 254.523 220.978 255.005 221.403C255.486 221.828 256.097 222.079 256.738 222.114C257.38 222.15 258.014 221.969 258.54 221.6C258.849 221.383 259.111 221.107 259.312 220.787C259.513 220.467 259.648 220.111 259.709 219.739C259.771 219.366 259.757 218.985 259.67 218.618C259.583 218.251 259.423 217.905 259.2 217.6C258.98 217.299 258.701 217.047 258.379 216.859C258.057 216.672 257.7 216.553 257.33 216.51C257 216.51 257.28 215.51 259.2 214.51C263.27 212.53 266.27 215.55 266.27 221.2V224.5C265.804 224.619 265.349 224.734 264.907 224.846C256.338 227.017 252.17 228.073 252.17 233.56C252.17 239.15 258.48 239.15 258.48 239.15C262.33 239.15 265.56 237.12 266.33 234.6C266.82 239.21 271.38 239.15 271.38 239.15ZM302.78 226.44V206.74C302.78 203.23 301.08 201.97 298.66 201.97V201.15H314.25V202C311.89 202 309.47 202.71 309.47 206.83V226.91C309.47 233.55 313.53 237.44 319.13 237.44C324.01 237.44 328.57 233.71 328.57 226.74V211.13C328.57 208.5 328.57 201.91 321.57 201.97V201.15H337V202C329.365 201.941 329.368 208.353 329.37 211.051L329.37 211.16V226.74C329.43 237.55 321.74 240.3 315.93 240.3C308.69 240.3 302.76 235.41 302.76 226.47L302.78 226.44ZM364.724 217.5C364.724 216.563 364.352 215.664 363.69 215V215.03C363.168 214.603 362.554 214.302 361.897 214.149C361.24 213.997 360.557 213.997 359.9 214.15C358.15 214.59 355.46 215.74 352.99 219.86V213.93L344.37 215.79V216.62C346.62 217.44 347.12 218.26 347.12 220.13V233.9C347.12 236.75 347.01 238.34 344.92 239V239.75H355.24V238.93C353.26 238.38 352.99 236.9 352.99 233.83V221.26C354.85 217.81 357.82 216.87 357.71 217.64C357.693 218.085 357.767 218.53 357.927 218.946C358.087 219.362 358.329 219.741 358.64 220.06C359.324 220.71 360.234 221.067 361.177 221.056C362.121 221.045 363.022 220.666 363.69 220C364.352 219.336 364.724 218.437 364.724 217.5ZM386 214.75C381.94 214.75 380 217.17 380 227.1C380 237.03 381.92 239.44 386 239.44C390.08 239.44 392 237.03 392 227.1C392 217.17 390.13 214.75 386 214.75ZM386 240.27C377.66 240.27 373.16 234.27 373.16 227.1C373.16 219.93 377.66 213.93 386 213.93C394.34 213.93 398.89 219.86 398.89 227.1C398.89 234.34 394.36 240.27 386 240.27ZM421.58 214.75C424.82 214.75 428.17 217.22 428.17 223.31V231.98C428.17 235.82 425.64 238.51 421.97 238.51C417.36 238.51 415.05 234.89 415.05 226.11C415.05 217.55 417.74 214.75 421.58 214.75ZM429.73 240.21L436.73 239.12L436.76 238.29C434.51 238.13 433.96 237.63 433.96 234.94V199.06L425.4 200.82V201.64C427.65 202.24 428.2 202.9 428.2 204.82V215.7C426.18 214.483 423.859 213.856 421.5 213.89C414.04 213.89 408.33 218.01 408.33 226.73C408.33 234.85 413.16 240.23 419.97 240.23C422.6 240.23 426.44 239 428.2 236V239.21C428.2 239.21 428.2 240.43 429.73 240.21ZM469.87 214.42V215.19C468.34 215.19 466.14 215.52 462.79 223.86L454.34 246.52C453.652 248.715 452.339 250.661 450.56 252.12C450.03 252.509 449.41 252.757 448.758 252.843C448.106 252.929 447.443 252.849 446.83 252.61C446.021 252.241 445.389 251.569 445.071 250.738C444.753 249.907 444.774 248.985 445.13 248.17C445.309 247.766 445.566 247.401 445.886 247.097C446.206 246.792 446.584 246.554 446.996 246.396C447.409 246.238 447.849 246.163 448.291 246.176C448.732 246.189 449.167 246.289 449.57 246.47C449.98 246.655 450.341 246.932 450.627 247.278C450.914 247.625 451.116 248.033 451.22 248.47C451.43 249.19 452.7 248.64 453.52 246.47L455.83 240.16C450.83 229.02 445.51 217.72 445.51 217.72C445.225 216.98 444.718 216.346 444.06 215.904C443.401 215.462 442.623 215.234 441.83 215.25V214.48H454V215.25C450.82 215.25 452.46 218.93 452.46 218.93L458.77 232.42L462 223.7C462 223.7 465.52 215.14 459.15 215.19V214.42H469.87ZM19 200C29.1 224.22 32.78 233.6 32.78 233.6V233.54C34.4569 237.607 35.6616 237.675 37.0066 237.75C37.1134 237.756 37.2211 237.762 37.33 237.77V238.59H23.23V237.77C26.85 237.77 25.15 233.31 24.49 231.77L22.73 227.38L22.4 226.56L15.6 209.44L12.68 217.35H11.78L18.29 200H19ZM0 238.72C0 238.72 6.58 240.87 10.48 235.49C10.48 235.49 12.23 233.38 13.48 228.49C14.73 223.6 16.48 222.86 18.04 222.95V222.29C18.04 222.29 13.9 221.19 10.54 223.11C7.18 225.03 5.76 229.2 5.76 229.2C5.76 229.2 3.59 235.97 2.86 236.74C2.53205 237.192 2.10228 237.561 1.60543 237.816C1.10859 238.072 0.55862 238.207 0 238.21V238.72ZM258 97.11C258 97.11 250.83 78.82 231.16 31.67H229.77L217.1 65.48H218.85L224.54 50.06L237.8 83.42L238.44 85.03L241.86 93.58C243.15 96.58 246.46 105.34 239.4 105.34V107H266.88V105.39C266.666 105.374 266.454 105.363 266.243 105.352C263.628 105.21 261.277 105.083 258.01 97.16L258 97.11ZM214.57 100.79C206.95 111.27 194.13 107.08 194.13 107.08V106.09C196.83 106.09 198.23 104.81 199.64 103.31C201.05 101.81 205.29 88.61 205.29 88.61C205.29 88.61 208.03 80.48 214.59 76.74C221.15 73 229.21 75.14 229.21 75.14V76.42C226.14 76.22 222.7 77.76 220.33 87.22C217.96 96.68 214.57 100.79 214.57 100.79Z" fill="white"/>
</svg>
