<svg width="870" height="150" viewBox="0 0 870 150" fill="none" xmlns="http://www.w3.org/2000/svg">
<path fill-rule="evenodd" clip-rule="evenodd" d="M37.5946 19.0486C48.6489 11.6624 61.6452 7.72002 74.94 7.72002C92.7614 7.7412 109.847 14.8301 122.448 27.4317C135.05 40.0333 142.139 57.1187 142.16 74.94C142.16 88.2349 138.218 101.231 130.831 112.285C123.445 123.34 112.947 131.955 100.664 137.043C88.3811 142.131 74.8655 143.462 61.826 140.868C48.7866 138.275 36.8092 131.873 27.4083 122.472C18.0074 113.071 11.6053 101.093 9.01164 88.054C6.41794 75.0146 7.74912 61.4989 12.8368 49.216C17.9246 36.9332 26.5403 26.4349 37.5946 19.0486ZM33.3 137.259C45.6255 145.494 60.1163 149.89 74.94 149.89C94.8139 149.877 113.87 141.976 127.923 127.923C141.976 113.87 149.877 94.8139 149.89 74.94C149.89 60.1163 145.494 45.6255 137.259 33.3C129.023 20.9746 117.317 11.368 103.622 5.69525C89.9268 0.0224648 74.8569 -1.4618 60.318 1.43017C45.7791 4.32213 32.4243 11.4604 21.9424 21.9424C11.4604 32.4243 4.32213 45.7791 1.43017 60.318C-1.4618 74.8569 0.0224648 89.9268 5.69525 103.622C11.368 117.317 20.9746 129.023 33.3 137.259ZM296.57 94H287.48C282.03 94 281 92.58 275.48 84.67C273.66 82.06 270.26 77.56 270.26 77.56L277.69 69.66C277.69 69.66 289.23 58.43 278.8 58.66V57.5H297.29V58.68C294.76 58.76 288.44 59.32 276.82 72.83C285.59 85.16 289.54 89.27 289.54 89.27C290.344 90.3717 291.398 91.2677 292.614 91.8846C293.831 92.5016 295.176 92.8221 296.54 92.82L296.57 94ZM271.57 94H256.82V92.82C259.82 91.95 259.97 89.58 259.97 85.55V43.9C259.97 41.14 259.26 39.95 255.97 39.08V37.9L268.3 35.37V85.55C268.3 89.9 268.7 92.11 271.54 92.82L271.57 94ZM317.36 84.84C317.36 85.9501 318.07 90.5301 323.04 90.5301C324.366 90.5148 325.654 90.0894 326.729 89.3123C327.803 88.5352 328.61 87.4445 329.04 86.1901V75.0001C320.59 76.9001 317.35 80.4601 317.35 84.8801L317.36 84.84ZM344.69 89.3101C344.14 91.76 340.98 94.7601 336.39 94.7601C336.39 94.7601 329.83 94.84 329.12 88.2001C328.01 91.83 323.35 94.7601 317.82 94.7601C317.82 94.7601 308.73 94.76 308.73 86.7001C308.73 78.783 314.771 77.2713 327.193 74.1632L327.199 74.1615L327.251 74.1485C327.834 74.0028 328.43 73.8536 329.04 73.7001V68.8801C329.04 60.7401 324.77 56.3901 318.85 59.2401C316.08 60.6601 315.69 62.0801 316.16 62.1601C316.694 62.2205 317.209 62.3924 317.673 62.6646C318.136 62.9367 318.537 63.3031 318.85 63.7401C319.162 64.1756 319.386 64.6686 319.507 65.1907C319.628 65.7128 319.645 66.2537 319.557 66.7824C319.469 67.3111 319.277 67.8172 318.993 68.2715C318.708 68.7259 318.337 69.1196 317.9 69.4301C317.143 69.9542 316.233 70.2098 315.314 70.1561C314.395 70.1023 313.52 69.7423 312.829 69.1335C312.139 68.5247 311.672 67.7021 311.504 66.797C311.335 65.892 311.475 64.9566 311.9 64.1401L311.95 64.051C312.676 62.7684 313.898 60.6074 318.07 58.3701C320.407 57.2488 322.979 56.7069 325.57 56.7901C335.06 56.7901 337.57 63.2701 337.57 72.59V85.2401C337.57 85.2401 337.57 90.4501 341.28 90.4501C341.776 90.4423 342.258 90.2775 342.655 89.9793C343.052 89.6811 343.344 89.2648 343.49 88.7901L344.69 89.3101ZM375.37 57.97C380.03 57.97 384.85 61.53 384.85 70.3V82.79C384.85 88.32 381.22 92.19 375.92 92.19C369.28 92.19 365.97 86.97 365.97 74.33C365.97 61.97 369.84 57.97 375.37 57.97ZM387.07 94.64L397.18 93.06L397.21 91.87C394 91.64 393.21 90.93 393.21 87.05V35.37L380.88 37.9V39.08C384.09 39.95 384.88 40.9 384.88 43.67V59.4C381.975 57.6432 378.634 56.7387 375.24 56.79C364.46 56.79 356.24 62.71 356.24 75.28C356.24 86.97 363.2 94.72 373 94.72C376.79 94.72 382.32 92.98 384.85 88.63V93.22C384.85 93.22 384.85 94.95 387.07 94.64ZM434.81 73.86C434.81 63.1101 430.62 57.9701 426.59 57.9701C422 57.9701 417.89 65.08 417.89 73.86H434.81ZM441.76 84.53C440.76 88.4 436.15 94.72 426.19 94.72C416.23 94.72 409 85.87 409 76C409 64.62 416.51 56.8 426.86 56.8C437.21 56.8 443 62.6301 443 75H417.89C418.37 84.1701 422.71 88.3601 428.4 89.2301C432.99 89.9401 438.91 87.73 440.65 83.9301L441.76 84.53ZM499.14 94H513.92L513.87 92.82C511.02 92.11 510.63 89.9 510.63 85.55V69.12C510.63 59.55 506.76 56.79 500.43 56.79C497.87 56.8708 495.394 57.7199 493.324 59.2269C491.253 60.7339 489.684 62.8291 488.82 65.24C487.75 59.32 484.35 56.79 478.82 56.79C473.84 56.79 469.2 60.34 467.2 64.93V56.79L454.87 59.47V60.66C458.16 62 458.87 63.34 458.87 66.11V85.63C458.87 89.66 458.79 91.95 455.79 92.82V94H470.49V92.82C467.73 92.03 467.25 89.98 467.25 85.63V68.24C467.61 65.48 470.77 61.61 474.25 61.61C478.51 61.61 480.65 64.29 480.65 69.35V85.55C480.65 89.58 480.49 91.95 477.49 92.82V94H492.24V92.82C489.39 92.11 489 89.9 489 85.55L488.95 69.4V68.4C488.95 65.4 492.34 61.61 495.82 61.61C500.09 61.61 502.3 64.29 502.3 69.35V85.55C502.3 89.58 502.14 91.95 499.14 92.82V94ZM528.47 45.64C528.462 45.0221 528.577 44.4087 528.807 43.8353C529.037 43.2618 529.379 42.7397 529.812 42.299C530.246 41.8583 530.762 41.5078 531.331 41.2677C531.901 41.0276 532.512 40.9026 533.13 40.9C534.403 40.8867 535.63 41.3776 536.543 42.2657C537.455 43.1538 537.979 44.3669 538 45.64C537.976 46.8973 537.456 48.0941 536.553 48.969C535.65 49.844 534.437 50.3261 533.18 50.31C532.566 50.3154 531.957 50.1982 531.388 49.9653C530.82 49.7324 530.303 49.3884 529.869 48.9536C529.436 48.5187 529.093 48.0017 528.861 47.4327C528.629 46.8638 528.513 46.2543 528.52 45.64H528.47ZM541.35 94H526.65V92.82C529.65 91.87 529.81 89.58 529.81 85.55V65.8C529.81 63.1101 529.02 62 525.81 60.66V59.47L538.14 56.79V85.55C538.14 89.9 538.53 92.03 541.38 92.82L541.35 94ZM569.8 90.53C564.82 90.53 564.11 85.95 564.11 84.84L564.1 84.8801C564.1 80.46 567.34 76.9 575.8 75V86.19C575.37 87.4445 574.563 88.5352 573.489 89.3123C572.414 90.0894 571.126 90.5148 569.8 90.53ZM583.15 94.7601C587.73 94.7601 590.89 91.76 591.45 89.31L590.26 88.7901C590.114 89.2647 589.822 89.6811 589.425 89.9793C589.028 90.2775 588.547 90.4423 588.05 90.45C584.33 90.45 584.33 85.2401 584.33 85.2401V72.59C584.33 63.27 581.82 56.7901 572.33 56.7901C569.736 56.7072 567.161 57.2491 564.82 58.37C560.622 60.6264 559.406 62.8052 558.692 64.0835L558.66 64.14C558.235 64.9566 558.095 65.892 558.264 66.797C558.432 67.7021 558.899 68.5247 559.589 69.1335C560.28 69.7423 561.155 70.1023 562.074 70.1561C562.993 70.2098 563.903 69.9542 564.66 69.4301C565.096 69.1188 565.467 68.7246 565.75 68.2699C566.034 67.8151 566.224 67.3089 566.312 66.7803C566.399 66.2516 566.381 65.7109 566.259 65.1892C566.137 64.6675 565.913 64.175 565.6 63.7401C565.288 63.3043 564.889 62.9386 564.427 62.6665C563.966 62.3944 563.452 62.2219 562.92 62.16C562.44 62.08 562.84 60.66 565.6 59.2401C571.53 56.3901 575.8 60.74 575.8 68.8801V73.7C575.169 73.8588 574.553 74.0129 573.953 74.1632C561.531 77.2713 555.49 78.783 555.49 86.7C555.49 94.76 564.58 94.7601 564.58 94.7601C570.11 94.7601 574.77 91.83 575.88 88.2C576.59 94.84 583.15 94.7601 583.15 94.7601ZM628.47 76.42V48.05C628.47 42.99 626.03 41.18 622.55 41.18V40H645V41.19C641.61 41.19 638.13 42.19 638.13 48.19V77.06C638.13 86.62 643.97 92.23 652.04 92.23C659.04 92.23 665.63 86.85 665.63 76.82V54.37C665.63 50.58 665.63 41.1 655.63 41.18V40H677.84V41.19C666.834 41.111 666.838 50.3629 666.84 54.2405V54.38V76.82C666.92 92.39 655.84 96.34 647.48 96.34C637.05 96.34 628.48 89.34 628.48 76.42H628.47ZM717.689 63.595C717.689 62.2487 717.157 60.9568 716.21 60C715.463 59.3923 714.589 58.9614 713.652 58.7398C712.715 58.5181 711.74 58.5113 710.8 58.72C708.22 59.36 704.35 61.02 700.8 66.94V58.4L688.34 61.09V62.28C691.63 63.46 692.34 64.65 692.34 67.34V87.09C692.34 91.2 692.18 93.44 689.18 94.44V95.63H704.04V94.44C701.19 93.65 700.8 91.52 700.8 87.09V69.01C703.48 64.03 707.75 62.68 707.59 63.79C707.569 64.4302 707.677 65.068 707.908 65.6658C708.138 66.2635 708.485 66.809 708.93 67.27C709.915 68.2074 711.227 68.7236 712.586 68.7086C713.946 68.6937 715.246 68.1489 716.21 67.19C717.157 66.2332 717.689 64.9413 717.689 63.595ZM748.3 59.59C742.45 59.59 739.68 63.07 739.68 77.37C739.68 91.67 742.45 95.15 748.3 95.15C754.15 95.15 756.91 91.68 756.91 77.37C756.91 63.06 754.22 59.59 748.3 59.59ZM748.3 96.34C736.3 96.34 729.8 87.73 729.8 77.34C729.8 66.95 736.28 58.34 748.3 58.34C760.32 58.34 766.87 66.87 766.87 77.34C766.87 87.81 760.39 96.34 748.3 96.34ZM799.59 59.59C804.25 59.59 809.07 63.15 809.07 71.92L809.11 84.41C809.11 89.94 805.48 93.81 800.19 93.81C793.51 93.81 790.19 88.59 790.19 75.95C790.19 63.59 794.06 59.59 799.59 59.59ZM811.29 96.26L821.4 94.68L821.37 93.49C818.16 93.26 817.37 92.55 817.37 88.67V37L805.07 39.52V40.7C808.29 41.57 809.07 42.52 809.07 45.29V61C806.172 59.2541 802.843 58.3567 799.46 58.41C788.69 58.41 780.46 64.33 780.46 76.9C780.46 88.59 787.42 96.34 797.22 96.34C801.01 96.34 806.55 94.6 809.07 90.25V94.84C809.07 94.84 809.07 96.57 811.29 96.26ZM869.14 59.12V60.22C866.93 60.22 863.77 60.7 858.95 72.71L846.78 105.35C844.88 110.35 842.67 112.35 841.33 113.41C840.565 113.971 839.671 114.33 838.731 114.455C837.79 114.579 836.834 114.464 835.95 114.12C834.786 113.585 833.878 112.616 833.42 111.42C832.962 110.223 832.991 108.895 833.5 107.72C833.757 107.138 834.128 106.612 834.59 106.173C835.051 105.734 835.595 105.391 836.19 105.163C836.785 104.936 837.419 104.828 838.056 104.846C838.692 104.864 839.319 105.008 839.9 105.27C840.487 105.533 841.006 105.927 841.418 106.421C841.831 106.914 842.125 107.496 842.28 108.12C842.59 109.12 844.41 108.35 845.59 105.19L848.91 96.1C841.72 80.1 834.05 63.78 834.05 63.78C833.643 62.7131 832.917 61.7982 831.97 61.1608C831.022 60.5234 829.901 60.1948 828.76 60.22V59.12H846.22V60.22C841.64 60.22 844.01 65.52 844.01 65.52L853.1 85L857.84 72.51C857.84 72.51 862.9 60.18 853.73 60.26V59.16L869.14 59.12ZM219.74 38.37C234.28 73.22 239.58 86.74 239.58 86.74C242 92.6006 243.733 92.6912 245.678 92.7931C245.831 92.801 245.985 92.8091 246.14 92.82V94H225.83V92.85C231.04 92.85 228.59 86.37 227.65 84.16L225.12 77.84L224.64 76.65L214.84 52L210.66 63.37H209.36L218.74 38.37H219.74ZM192.37 94.11C192.37 94.11 201.84 97.21 207.47 89.46C207.47 89.46 209.98 86.46 211.73 79.46C213.48 72.46 216.03 71.36 218.29 71.46V70.46C218.29 70.46 212.34 68.88 207.49 71.64C202.64 74.4 200.62 80.41 200.62 80.41C200.62 80.41 197.48 90.17 196.44 91.28C195.966 91.9122 195.351 92.4261 194.645 92.7817C193.939 93.1374 193.161 93.325 192.37 93.33V94.11ZM102.44 97.11C102.44 97.11 95.28 78.82 75.6 31.67H74.21L61.53 65.48H63.29L69 50.06L82.23 83.42L82.87 85L86.3 93.55C87.58 96.55 90.89 105.31 83.84 105.31V107H111.32V105.39C111.105 105.374 110.892 105.363 110.682 105.352C108.058 105.21 105.707 105.083 102.44 97.16V97.11ZM59 100.79C51.3801 111.27 38.57 107.08 38.57 107.08L38.55 106.09C41.25 106.09 42.6301 104.81 44.05 103.31C45.47 101.81 49.7001 88.61 49.7001 88.61C49.7001 88.61 52.41 80.48 59 76.74C65.59 73 73.64 75.14 73.64 75.14V76.42C70.58 76.22 67.14 77.76 64.7701 87.22C62.4 96.68 59 100.79 59 100.79Z" fill="#6A6B6E"/>
</svg>
