<svg width="16" height="16" viewBox="0 0 16 16" fill="#4F5053" xmlns="http://www.w3.org/2000/svg">
<g clip-path="url(#clip0)">
<path fill-rule="evenodd" clip-rule="evenodd" d="M10.5279 0.00352653C11.9546 0.0760372 13.3035 0.675948 14.3129 1.68686C15.3449 2.72623 15.9424 4.11965 15.9839 5.5838C16.0253 7.04796 15.5076 8.47294 14.536 9.56903C13.5643 10.6651 12.2118 11.35 10.7532 11.4845C9.29465 11.619 7.83962 11.193 6.68395 10.293L5.67445 11.3025L5.84039 11.4639C5.88292 11.5077 5.90669 11.5664 5.90669 11.6275C5.90669 11.6886 5.88292 11.7473 5.84039 11.7911L2.09277 15.5388C2.04992 15.582 1.99893 15.6163 1.94276 15.6397C1.88659 15.6631 1.82634 15.6751 1.76548 15.6751C1.70463 15.6751 1.64438 15.6631 1.58821 15.6397C1.53204 15.6163 1.48105 15.582 1.4382 15.5388L0.133678 14.2342C0.0478236 14.1479 -0.000366211 14.0311 -0.000366211 13.9093C-0.000366211 13.7875 0.0478236 13.6707 0.133678 13.5843L3.8813 9.83667C3.90273 9.81507 3.92822 9.79792 3.95631 9.78622C3.98439 9.77452 4.01452 9.76849 4.04494 9.76849C4.07537 9.76849 4.10549 9.77452 4.13358 9.78622C4.16167 9.79792 4.18716 9.81507 4.20858 9.83667L4.37453 9.99801L5.43013 8.93779C4.64182 7.74644 4.32416 6.30473 4.5388 4.89239C4.75343 3.48005 5.48507 2.1978 6.59173 1.29444C7.69839 0.391076 9.10117 -0.0689842 10.5279 0.00352653ZM11.7373 9.47958C12.2211 9.25367 12.6537 8.93126 13.0084 8.53215C13.4075 8.17745 13.7299 7.74491 13.9558 7.2611C14.1817 6.77729 14.3063 6.25241 14.322 5.71869C14.3378 5.18496 14.2442 4.65366 14.0472 4.1574C13.8501 3.66114 13.5537 3.21039 13.1761 2.83283C12.7986 2.45526 12.3478 2.15886 11.8516 1.9618C11.3553 1.76475 10.824 1.6712 10.2903 1.68691C9.75654 1.70263 9.23166 1.82726 8.74785 2.05316C8.26404 2.27907 7.83151 2.60148 7.47681 3.0006C7.07769 3.3553 6.75528 3.78783 6.52937 4.27164C6.30347 4.75545 6.17883 5.28033 6.16312 5.81406C6.14741 6.34778 6.24096 6.87908 6.43801 7.37534C6.63507 7.87161 6.93147 8.32236 7.30904 8.69992C7.6866 9.07748 8.13735 9.37389 8.63361 9.57094C9.12987 9.768 9.66117 9.86154 10.1949 9.84583C10.7286 9.83012 11.2535 9.70548 11.7373 9.47958ZM11.5665 3.03185C11.9597 3.19567 12.3166 3.43572 12.6165 3.73815C12.7227 3.84742 12.7821 3.99376 12.7821 4.14611C12.7821 4.29845 12.7227 4.44479 12.6165 4.55406C12.507 4.66178 12.3599 4.7229 12.2063 4.72461C12.0538 4.72367 11.908 4.66234 11.8006 4.55406C11.6074 4.35949 11.3776 4.20508 11.1244 4.09971C10.8713 3.99433 10.5998 3.94009 10.3256 3.94009C10.0513 3.94009 9.77984 3.99433 9.52668 4.09971C9.27353 4.20508 9.04371 4.35949 8.85048 4.55406C8.74229 4.66225 8.59554 4.72304 8.44253 4.72304C8.28952 4.72304 8.14278 4.66225 8.03458 4.55406C7.92638 4.44586 7.8656 4.29912 7.8656 4.14611C7.8656 3.99309 7.92638 3.84635 8.03458 3.73815C8.33455 3.43572 8.69143 3.19567 9.08463 3.03185C9.47784 2.86803 9.89959 2.78369 10.3256 2.78369C10.7515 2.78369 11.1733 2.86803 11.5665 3.03185Z" />
</g>
<defs>
<clipPath id="clip0">
<rect width="16" height="15.6773" fill="white"/>
</clipPath>
</defs>
</svg>
