<svg width="14" height="14" viewBox="0 0 14 14" fill="#4F5053" xmlns="http://www.w3.org/2000/svg">
<g clip-path="url(#clip0)">
<path fill-rule="evenodd" clip-rule="evenodd" d="M9.21185 0.00259743C10.4602 0.0660443 11.6405 0.590966 12.5237 1.47551C13.4268 2.38496 13.9496 3.6042 13.9858 4.88534C14.0221 6.16647 13.5691 7.41333 12.7189 8.37241C11.8688 9.33148 10.6852 9.93078 9.40901 10.0485C8.13277 10.1661 6.85962 9.79335 5.84841 9.00591L4.96509 9.88922L5.1103 10.0304C5.1475 10.0688 5.16831 10.1201 5.16831 10.1736C5.16831 10.227 5.1475 10.2784 5.1103 10.3168L1.83113 13.5959C1.79363 13.6337 1.74902 13.6637 1.69987 13.6842C1.65072 13.7047 1.598 13.7152 1.54475 13.7152C1.49151 13.7152 1.43879 13.7047 1.38964 13.6842C1.34049 13.6637 1.29588 13.6337 1.25838 13.5959L0.116923 12.4545C0.0417999 12.3789 -0.000366211 12.2767 -0.000366211 12.1701C-0.000366211 12.0636 0.0417999 11.9613 0.116923 11.8858L3.39609 8.6066C3.41484 8.58769 3.43715 8.57269 3.46172 8.56245C3.4863 8.55221 3.51266 8.54694 3.53928 8.54694C3.5659 8.54694 3.59226 8.55221 3.61684 8.56245C3.64141 8.57269 3.66372 8.58769 3.68247 8.6066L3.82767 8.74777L4.75132 7.82008C4.06154 6.77765 3.78359 5.51615 3.9714 4.28035C4.15921 3.04456 4.79939 1.92259 5.76772 1.13215C6.73605 0.341703 7.96348 -0.0608494 9.21185 0.00259743ZM10.2701 8.29414C10.6934 8.09647 11.0719 7.81437 11.3823 7.46514C11.7315 7.15478 12.0136 6.77631 12.2113 6.35297C12.4089 5.92964 12.518 5.47037 12.5317 5.00336C12.5455 4.53636 12.4636 4.07147 12.2912 3.63724C12.1188 3.20301 11.8594 2.8086 11.5291 2.47823C11.1987 2.14787 10.8043 1.88851 10.3701 1.71609C9.93583 1.54366 9.47094 1.46181 9.00394 1.47556C8.53693 1.48931 8.07766 1.59836 7.65433 1.79603C7.23099 1.9937 6.85252 2.27581 6.54216 2.62503C6.19293 2.9354 5.91082 3.31386 5.71316 3.7372C5.51549 4.16053 5.40643 4.6198 5.39269 5.08681C5.37894 5.55382 5.46079 6.01871 5.63321 6.45294C5.80564 6.88717 6.06499 7.28157 6.39536 7.61194C6.72573 7.94231 7.12013 8.20166 7.55436 8.37409C7.98859 8.54651 8.45348 8.62836 8.92049 8.61461C9.3875 8.60086 9.84677 8.49181 10.2701 8.29414ZM10.1207 2.65287C10.4647 2.79621 10.777 3.00625 11.0395 3.27089C11.1324 3.36649 11.1843 3.49454 11.1843 3.62784C11.1843 3.76114 11.1324 3.8892 11.0395 3.9848C10.9436 4.07906 10.8149 4.13254 10.6805 4.13404C10.5471 4.13321 10.4195 4.07954 10.3256 3.9848C10.1565 3.81456 9.9554 3.67944 9.73388 3.58724C9.51237 3.49504 9.2748 3.44758 9.03487 3.44758C8.79493 3.44758 8.55736 3.49504 8.33585 3.58724C8.11434 3.67944 7.91325 3.81456 7.74417 3.9848C7.6495 4.07947 7.5211 4.13266 7.38722 4.13266C7.25333 4.13266 7.12493 4.07947 7.03026 3.9848C6.93559 3.89013 6.8824 3.76173 6.8824 3.62784C6.8824 3.49396 6.93559 3.36556 7.03026 3.27089C7.29273 3.00625 7.605 2.79621 7.94906 2.65287C8.29311 2.50953 8.66215 2.43573 9.03487 2.43573C9.40759 2.43573 9.77662 2.50953 10.1207 2.65287Z" />
</g>
<defs>
<clipPath>
<rect width="14" height="14" fill="white"/>
</clipPath>
</defs>
</svg>
