<svg width="14" height="10" viewBox="0 0 14 10" fill="#4F5053" xmlns="http://www.w3.org/2000/svg">
<g clip-path="url(#clip0)">
<path fill-rule="evenodd" clip-rule="evenodd" d="M1.32622 9.82366e-06H12.6699C12.7092 -0.000387868 12.7476 0.011298 12.7799 0.0334804C12.8123 0.0556628 12.837 0.0872667 12.8508 0.124C12.8646 0.160734 12.8667 0.200817 12.8569 0.238807C12.8471 0.276796 12.8259 0.310851 12.7961 0.336346L7.24651 5.09856C7.17728 5.15778 7.08917 5.19032 6.99808 5.19032C6.90698 5.19032 6.81888 5.15778 6.74965 5.09856L1.20392 0.336346C1.17435 0.311063 1.1532 0.277356 1.1433 0.239732C1.1334 0.202107 1.13522 0.162357 1.14851 0.125794C1.16181 0.0892304 1.18595 0.0575964 1.2177 0.0351195C1.24946 0.0126426 1.28732 0.000393671 1.32622 9.82366e-06ZM0.317234 0.833184L4.85013 4.72781C4.87111 4.74575 4.88795 4.76802 4.8995 4.79309C4.91105 4.81816 4.91703 4.84544 4.91703 4.87304C4.91703 4.90065 4.91105 4.92792 4.8995 4.95299C4.88795 4.97807 4.87111 5.00034 4.85013 5.01828L0.317234 8.9129C0.289521 8.93725 0.255354 8.95306 0.218857 8.95841C0.182359 8.96377 0.14509 8.95845 0.111549 8.9431C0.0780086 8.92774 0.0496291 8.903 0.0298364 8.87187C0.0100437 8.84074 -0.0003161 8.80455 7.34894e-06 8.76766V0.97842C-0.0003161 0.941533 0.0100437 0.90534 0.0298364 0.874211C0.0496291 0.843081 0.0780086 0.818345 0.111549 0.802989C0.14509 0.787633 0.182359 0.782313 0.218857 0.787671C0.255354 0.793029 0.289521 0.808836 0.317234 0.833184ZM8.24598 5.56481C8.29153 5.56481 8.33558 5.58108 8.3702 5.61069L12.7961 9.40976C12.8259 9.43526 12.8471 9.46931 12.8569 9.5073C12.8667 9.54529 12.8646 9.58537 12.8508 9.62211C12.837 9.65884 12.8123 9.69044 12.7799 9.71263C12.7476 9.73481 12.7092 9.7465 12.67 9.7461H1.32624C1.28734 9.74571 1.24948 9.73346 1.21772 9.71099C1.18597 9.68851 1.16183 9.65688 1.14853 9.62031C1.13524 9.58375 1.13342 9.544 1.14332 9.50638C1.15322 9.46875 1.17437 9.43504 1.20394 9.40976L5.62982 5.61069C5.66443 5.58108 5.70849 5.56481 5.75403 5.56481C5.79958 5.56481 5.84364 5.58108 5.87825 5.61069L6.50124 6.14577C6.63996 6.26522 6.81694 6.33092 7.00001 6.33092C7.18307 6.33092 7.36006 6.26522 7.49878 6.14577L8.12177 5.61069C8.15638 5.58108 8.20043 5.56481 8.24598 5.56481ZM9.14606 4.72781L13.6828 0.833184C13.7105 0.808836 13.7447 0.793029 13.7812 0.787671C13.8177 0.782313 13.8549 0.787633 13.8885 0.802989C13.922 0.818345 13.9504 0.843081 13.9702 0.874211C13.99 0.90534 14.0003 0.941533 14 0.97842V8.76766C14.0003 8.80455 13.99 8.84074 13.9702 8.87187C13.9504 8.903 13.922 8.92774 13.8885 8.9431C13.8549 8.95845 13.8177 8.96377 13.7812 8.95841C13.7447 8.95306 13.7105 8.93725 13.6828 8.9129L9.14606 5.01828C9.12508 5.00034 9.10824 4.97807 9.09669 4.95299C9.08514 4.92792 9.07916 4.90065 9.07916 4.87304C9.07916 4.84544 9.08514 4.81816 9.09669 4.79309C9.10824 4.76802 9.12508 4.74575 9.14606 4.72781Z"/>
</g>
<defs>
<clipPath id="clip0">
<rect width="14" height="9.74611" fill="white"/>
</clipPath>
</defs>
</svg>
