<svg width="14" height="14" viewBox="0 0 14 14" fill="#4F5053" xmlns="http://www.w3.org/2000/svg">
<g clip-path="url(#clip0)">
<path fill-rule="evenodd" clip-rule="evenodd" d="M1.32622 2.00001H12.6699C12.7092 1.99961 12.7476 2.0113 12.7799 2.03348C12.8123 2.05566 12.837 2.08727 12.8508 2.124C12.8646 2.16073 12.8667 2.20082 12.8569 2.23881C12.8471 2.2768 12.8259 2.31085 12.7961 2.33635L7.24651 7.09856C7.17728 7.15778 7.08917 7.19032 6.99808 7.19032C6.90698 7.19032 6.81888 7.15778 6.74965 7.09856L1.20392 2.33635C1.17435 2.31106 1.1532 2.27736 1.1433 2.23973C1.1334 2.20211 1.13522 2.16236 1.14851 2.12579C1.16181 2.08923 1.18595 2.0576 1.2177 2.03512C1.24946 2.01264 1.28732 2.00039 1.32622 2.00001ZM0.317234 2.83318L4.85013 6.72781C4.87111 6.74575 4.88795 6.76802 4.8995 6.79309C4.91105 6.81816 4.91703 6.84544 4.91703 6.87304C4.91703 6.90065 4.91105 6.92792 4.8995 6.95299C4.88795 6.97807 4.87111 7.00034 4.85013 7.01828L0.317234 10.9129C0.289521 10.9372 0.255354 10.9531 0.218857 10.9584C0.182359 10.9638 0.14509 10.9585 0.111549 10.9431C0.0780086 10.9277 0.0496291 10.903 0.0298364 10.8719C0.0100437 10.8407 -0.0003161 10.8046 7.34894e-06 10.7677V2.97842C-0.0003161 2.94153 0.0100437 2.90534 0.0298364 2.87421C0.0496291 2.84308 0.0780086 2.81835 0.111549 2.80299C0.14509 2.78763 0.182359 2.78231 0.218857 2.78767C0.255354 2.79303 0.289521 2.80884 0.317234 2.83318ZM8.24598 7.56481C8.29153 7.56481 8.33558 7.58108 8.3702 7.61069L12.7961 11.4098C12.8259 11.4353 12.8471 11.4693 12.8569 11.5073C12.8667 11.5453 12.8646 11.5854 12.8508 11.6221C12.837 11.6588 12.8123 11.6904 12.7799 11.7126C12.7476 11.7348 12.7092 11.7465 12.67 11.7461H1.32624C1.28734 11.7457 1.24948 11.7335 1.21772 11.711C1.18597 11.6885 1.16183 11.6569 1.14853 11.6203C1.13524 11.5838 1.13342 11.544 1.14332 11.5064C1.15322 11.4688 1.17437 11.435 1.20394 11.4098L5.62982 7.61069C5.66443 7.58108 5.70849 7.56481 5.75403 7.56481C5.79958 7.56481 5.84364 7.58108 5.87825 7.61069L6.50124 8.14577C6.63996 8.26522 6.81694 8.33092 7.00001 8.33092C7.18307 8.33092 7.36006 8.26522 7.49878 8.14577L8.12177 7.61069C8.15638 7.58108 8.20043 7.56481 8.24598 7.56481ZM9.14606 6.72781L13.6828 2.83318C13.7105 2.80884 13.7447 2.79303 13.7812 2.78767C13.8177 2.78231 13.8549 2.78763 13.8885 2.80299C13.922 2.81835 13.9504 2.84308 13.9702 2.87421C13.99 2.90534 14.0003 2.94153 14 2.97842V10.7677C14.0003 10.8046 13.99 10.8407 13.9702 10.8719C13.9504 10.903 13.922 10.9277 13.8885 10.9431C13.8549 10.9585 13.8177 10.9638 13.7812 10.9584C13.7447 10.9531 13.7105 10.9372 13.6828 10.9129L9.14606 7.01828C9.12508 7.00034 9.10824 6.97807 9.09669 6.95299C9.08514 6.92792 9.07916 6.90065 9.07916 6.87304C9.07916 6.84544 9.08514 6.81816 9.09669 6.79309C9.10824 6.76802 9.12508 6.74575 9.14606 6.72781Z" />
</g>
<defs>
<clipPath>
<rect width="14" height="14" fill="white"/>
</clipPath>
</defs>
</svg>
