<svg width="327" height="96" viewBox="0 0 327 96" fill="none" xmlns="http://www.w3.org/2000/svg">
<path d="M226.811 86.3041C226.821 85.2806 226.577 84.2707 226.102 83.3656C225.627 82.4605 224.935 81.6884 224.09 81.1191C222.31 79.9548 220.224 79.3542 218.101 79.3949C215.978 79.4356 213.916 80.1156 212.182 81.3472C211.458 81.9514 210.874 82.7073 210.471 83.5622C210.067 84.417 209.855 85.3502 209.847 86.2964C209.84 87.2425 210.038 88.1789 210.428 89.04C210.818 89.9011 211.39 90.6662 212.105 91.2817C213.651 92.5364 215.759 93.1534 218.337 93.1534C220.914 93.1534 222.919 92.5364 224.476 91.2817C225.227 90.6907 225.83 89.9305 226.236 89.0623C226.641 88.1941 226.838 87.2422 226.811 86.2833V86.3041ZM229.904 86.2833C229.92 87.6996 229.596 89.0988 228.959 90.3624C228.323 91.626 227.394 92.7167 226.249 93.5423C223.888 95.1348 221.105 95.9782 218.262 95.9634C215.419 95.9486 212.646 95.0763 210.3 93.4594C209.162 92.6497 208.24 91.5694 207.617 90.3147C206.993 89.06 206.688 87.6698 206.728 86.2678C206.728 83.3642 207.888 81.0206 210.383 79.1436C212.68 77.4469 215.472 76.5659 218.321 76.6393C221.189 76.5553 223.999 77.4509 226.296 79.1799C228.708 81.0569 229.951 83.4005 229.951 86.3041L229.904 86.2833ZM201.62 95.4556H197.893L184.114 80.5124V95.4556H181.083V77.2252H184.81L198.666 92.1631V77.2252H201.62V95.4556ZM171.052 88.6632L166.464 79.8954L161.861 88.6632H171.052ZM177.892 95.4556H174.634L172.521 91.375H160.392L158.299 95.4556H155.025L164.593 77.2252H168.33L177.892 95.4556ZM152.928 95.4556H136.046V77.2252H139.004V92.7179H152.922L152.928 95.4556ZM130.215 95.4556H127.174V77.2252H130.215V95.4556ZM121.189 95.4556H118.158V80.585H118.081L108.663 92.3964L99.3846 80.585H99.3124V95.4556H96.2711V77.2252H100.008L108.766 88.2536L117.478 77.2252H121.215L121.189 95.4556ZM327 41.6199C327 48.0389 323.969 53.2031 317.721 57.1074C311.417 61.2554 303.025 63.3657 292.463 63.3657C281.968 63.3657 273.483 61.2606 267.096 57.1074C260.886 53.1288 257.778 47.9663 257.771 41.6199V0H267.962V39.1259C267.962 43.9687 270.055 47.6448 274.184 50.1544C278.39 52.7469 284.53 53.9861 292.463 53.9861C300.479 53.9861 306.541 52.7261 310.664 50.1544C314.866 47.6448 316.891 43.9687 316.891 39.1259V0H326.995L327 41.6199ZM217.796 52.1869C226.193 52.1869 230.476 49.444 230.476 43.8909C230.476 37.9385 226.739 34.9675 219.424 34.9675H179.135V52.1817L217.796 52.1869ZM218.574 25.7435C221.373 25.7435 223.729 24.9605 225.579 23.3169C226.483 22.6166 227.214 21.7152 227.714 20.6834C228.214 19.6516 228.469 18.5175 228.461 17.3697C228.499 16.2478 228.288 15.1315 227.842 14.1025C227.396 13.0735 226.727 12.1578 225.883 11.4225C224.182 10.0174 221.919 9.23446 218.961 9.23446H179.135V25.7383L218.574 25.7435ZM230.43 29.8137C237.348 32.1573 240.843 37.4045 240.843 45.3686C240.843 56.0756 233.141 61.4784 217.744 61.4784H169.026V0H218.419C224.559 0 229.466 1.5555 232.961 4.61982C236.545 7.66514 238.334 11.7336 238.327 16.8253C238.327 22.3732 235.683 26.7597 230.404 29.7877L230.43 29.8137ZM153.706 61.4939H89.843V0H151.448V9.23446H99.9568V24.9553H135.736V34.2209H99.9568V52.2128H153.706V61.4939ZM69.3836 61.4939H56.7956L10.1137 11.0285V61.4939H0V0H12.5262L59.2802 50.4603V0H69.3836V61.4939Z" fill="#EFEFEF"/>
</svg>
