<svg width="14" height="14" viewBox="0 0 14 14" fill="#4F5053" xmlns="http://www.w3.org/2000/svg">
<g clip-path="url(#clip0)">
<path fill-rule="evenodd" clip-rule="evenodd" d="M11.5038 9.07631L13.2873 10.0429C14.0678 10.4377 14.1313 10.9914 13.8545 11.8173C13.4688 12.9518 11.8396 14.0637 11.0591 14.0092C8.78094 13.8458 6.04901 12.7249 3.67559 10.3334C1.30217 7.94179 0.163111 5.21894 -0.000260334 2.94989C-0.0547174 2.17388 1.04804 0.531093 2.18256 0.145355C3.00849 -0.131468 3.56214 -0.0452442 3.95695 0.712616L4.92356 2.48701C5.15047 2.92266 4.98256 3.25848 4.46976 3.63061C3.33977 4.46108 3.11287 4.86043 3.67559 5.86788C4.21731 6.781 4.89006 7.60971 5.67235 8.32753C6.38946 9.10748 7.21654 9.77862 8.12745 10.3197C9.13491 10.8915 9.53426 10.6601 10.3557 9.53012C10.7323 9.01278 11.05 8.84033 11.5038 9.07631ZM7.46941 3.37595C7.59707 3.24829 7.77021 3.17657 7.95074 3.17657C8.71052 3.18121 9.43843 3.48247 9.97927 4.01612C10.2501 4.28485 10.464 4.60537 10.6082 4.95857C10.7525 5.31176 10.8241 5.69039 10.8188 6.07187C10.8176 6.25162 10.7454 6.4236 10.6178 6.55028C10.4903 6.67696 10.3179 6.74805 10.1381 6.74805C10.0487 6.74745 9.96031 6.72926 9.87795 6.6945C9.79559 6.65974 9.72088 6.6091 9.65809 6.54547C9.5953 6.48183 9.54566 6.40646 9.512 6.32364C9.47834 6.24082 9.46133 6.15219 9.46193 6.0628C9.46495 5.86287 9.42803 5.66435 9.35333 5.47888C9.27863 5.29341 9.16765 5.12472 9.02689 4.9827C8.88614 4.84068 8.71846 4.72819 8.53366 4.65183C8.34887 4.57547 8.15069 4.53677 7.95074 4.538C7.77021 4.538 7.59707 4.46628 7.46941 4.33862C7.34175 4.21096 7.27003 4.03782 7.27003 3.85729C7.27003 3.67675 7.34175 3.50361 7.46941 3.37595ZM10.1642 0.760013C10.8647 1.04831 11.5007 1.47335 12.035 2.01028L12.0123 2.00575C12.5409 2.5404 12.958 3.1748 13.2392 3.87206C13.5205 4.56933 13.6603 5.31555 13.6506 6.06733C13.6494 6.24708 13.5771 6.41906 13.4496 6.54574C13.3221 6.67242 13.1496 6.74351 12.9699 6.74351C12.8805 6.74291 12.7921 6.72472 12.7097 6.68996C12.6274 6.6552 12.5526 6.60456 12.4899 6.54093C12.4271 6.4773 12.3774 6.40192 12.3438 6.3191C12.3101 6.23629 12.2931 6.14765 12.2937 6.05826C12.2955 5.4856 12.1842 4.91821 11.9663 4.38863C11.7484 3.85904 11.4281 3.37767 11.0238 2.97211C10.6195 2.56654 10.1392 2.24475 9.61027 2.02519C9.08137 1.80563 8.51433 1.69262 7.94167 1.69262C7.76192 1.69262 7.58946 1.62153 7.46193 1.49485C7.3344 1.36817 7.26215 1.19619 7.26095 1.01644C7.26095 0.925686 7.27897 0.835831 7.31397 0.752096C7.34897 0.66836 7.40026 0.592412 7.46486 0.52866C7.52945 0.464909 7.60607 0.414624 7.69026 0.380726C7.77445 0.346827 7.86453 0.32999 7.95528 0.331192C8.71277 0.325931 9.4637 0.471712 10.1642 0.760013Z"/>
</g>
<defs>
<clipPath id="clip0">
<rect width="14" height="14" fill="white"/>
</clipPath>
</defs>
</svg>
