<svg width="140" height="142" viewBox="0 0 140 142" fill="none" xmlns="http://www.w3.org/2000/svg">
<g clip-path="url(#clip0)">
<path d="M129.847 95.6706V34.0985C129.847 33.5243 129.622 32.9737 129.221 32.5676C128.821 32.1616 128.277 31.9335 127.71 31.9335H116.446V59.3855H108.559V12.4487C108.559 11.8745 108.334 11.3238 107.933 10.9178C107.532 10.5118 106.988 10.2837 106.421 10.2837H45.5481L51.8107 17.4281C53.8999 19.8154 55.0487 22.8979 55.0382 26.0881V55.7484C55.0382 56.8967 55.4886 57.9981 56.2903 58.8101C57.092 59.6221 58.1793 60.0783 59.313 60.0783H80.6871V81.7282C80.6871 82.8765 81.1374 83.9779 81.9391 84.7899C82.7408 85.6019 83.8281 86.0581 84.9619 86.0581H114.287C117.439 86.0534 120.483 87.2249 122.837 89.3489L138.418 103.378L129.847 95.6706Z" fill="white" fill-opacity="0.2"/>
<path d="M30.9497 58.0865C35.6092 53.3669 30.9497 47.7812 24.5374 41.3945C19.0016 35.8088 14.0855 31.4789 9.81074 33.6872C10.9652 32.2319 12.1922 30.8373 13.4871 29.5087C11.2197 31.798 9.17937 34.3069 7.39547 36.9996L29.6672 59.4505C30.0805 59.003 30.5079 58.5484 30.9497 58.0865Z" fill="white" fill-opacity="0.2"/>
<path d="M40.1405 101.148C16.6291 77.3332 5.25809 56.571 6.62603 38.5151C6.92526 38.0171 7.18175 37.4975 7.50236 36.9996C-5.32206 56.7442 3.01382 80.5374 31.7405 109.656C60.4673 138.775 83.9787 147.219 103.493 134.229C103.002 134.575 102.489 134.814 101.976 135.117C84.1711 136.394 63.7375 125.049 40.1405 101.148Z" fill="white" fill-opacity="0.2"/>
<path d="M99.1329 116.909C92.8489 110.544 87.313 105.803 82.6748 110.414L81.3069 111.713L103.493 134.229C106.154 132.435 108.626 130.367 110.867 128.059C109.571 129.387 108.194 130.631 106.742 131.783C109.008 127.431 104.733 122.451 99.1329 116.909Z" fill="white" fill-opacity="0.2"/>
<path d="M84.5345 141.806C68.8887 141.806 51.0842 131.522 30.6078 110.803C0.940657 80.7314 -7.05323 56.2887 6.1773 36.0894C6.30778 35.8887 6.48119 35.7202 6.68469 35.5965C6.88819 35.4728 7.11656 35.3971 7.35287 35.375C7.58841 35.349 7.82668 35.3785 8.04912 35.4611C8.27157 35.5437 8.47217 35.6773 8.63532 35.8513L31.933 59.428C32.155 59.6577 32.3057 59.9482 32.3665 60.2637C32.4272 60.5792 32.3954 60.9059 32.275 61.2033C28.1926 71.1405 36.0368 80.1252 48.4552 92.7254C60.8735 105.326 69.8292 113.249 79.5758 109.114C79.8714 108.995 80.1951 108.966 80.5067 109.032C80.8182 109.097 81.104 109.254 81.3284 109.482L104.733 133.059C104.904 133.229 105.034 133.436 105.112 133.666C105.19 133.895 105.214 134.139 105.182 134.38C105.159 134.619 105.083 134.849 104.961 135.055C104.839 135.261 104.674 135.437 104.477 135.57C98.6019 139.638 91.6505 141.811 84.5345 141.806ZM7.6776 37.0314C-5.87079 56.4508 2.63219 79.9346 31.6131 109.289C61.9315 139.999 85.355 146.773 102.968 134.128L80.3873 110.644C68.2896 114.974 57.9997 104.651 47.4195 93.9346C36.8608 83.2396 26.606 72.899 30.7099 60.5153L7.6776 37.0314Z" fill="white"/>
<path d="M31.7638 60.3784C31.5527 60.3832 31.3429 60.3434 31.1478 60.2614C30.9527 60.1793 30.7767 60.057 30.631 59.9021L7.67768 36.5798C7.41851 36.3108 5.99285 37.5264 5.95785 37.1522C5.92285 36.778 6.01539 36.403 6.22008 36.0894C8.04625 33.3128 10.1366 30.7241 12.4613 28.3605C13.6545 27.0771 15.2489 26.2511 16.9746 26.0222C18.7002 25.7934 20.4509 26.1758 21.93 27.1048C25.3837 29.1652 28.5049 31.7499 31.185 34.7688C34.1654 37.4834 36.7172 40.6449 38.7514 44.1432C39.6725 45.6401 40.0524 47.4144 39.8263 49.1634C39.6003 50.9124 38.7822 52.5277 37.5117 53.7341C35.8607 55.3505 34.4238 57.1772 33.2369 59.1682C32.8596 59.8242 32.5241 60.5039 32.2323 61.2033C32.1295 61.4504 31.9687 61.6683 31.7638 61.8381C31.559 62.0079 31.3162 62.1244 31.0567 62.1775L31.7638 60.3784ZM9.5758 36.8039L31.6132 59.1682C31.6132 59.1682 32.0067 58.3463 32.0648 58.2572C33.3781 56.0221 34.2927 54.2041 36.1293 52.3862C36.9181 51.6565 38.2694 49.3972 38.3873 48.3217C38.5053 47.2463 37.6439 45.5962 37.0325 44.7088C35.1355 41.5347 32.9815 38.6099 30.2583 36.1282C27.8082 33.3699 24.3598 30.3722 21.2261 28.4508C20.35 27.8315 18.6749 27.4281 17.6132 27.5475C16.5514 27.667 14.7207 28.1034 14.0003 28.9024C12.1187 30.8045 9.676 33.8996 8.12929 36.0894L9.5758 36.8039Z" fill="white"/>
<path d="M103.493 135.83C103.282 135.835 103.072 135.795 102.877 135.713C102.682 135.631 103.639 133.831 103.493 133.677L80.839 110.305C80.6527 110.114 78.6291 110.868 78.6817 111.097C78.6036 110.841 78.5877 110.569 78.6353 110.305C78.6877 110.042 78.8027 109.796 78.9704 109.589C79.138 109.381 79.3532 109.218 79.5971 109.114C80.2872 108.826 80.9583 108.494 81.6063 108.118C83.5708 106.915 85.374 105.459 86.9712 103.788C93.191 97.4884 100.715 105.131 105.716 110.175C108.697 112.914 111.248 116.097 113.283 119.615C114.208 121.11 114.59 122.885 114.364 124.636C114.138 126.386 113.317 128.001 112.043 129.205C109.716 131.58 107.16 133.713 104.412 135.57C104.138 135.746 103.818 135.836 103.493 135.83ZM81.7422 110.193L104.412 133.225C106.581 131.419 109.673 128.796 111.549 126.902C114.883 123.525 111.316 118.454 104.412 111.548C97.5086 104.641 93.4841 100.709 88.968 104.773C86.7099 106.58 85.0909 108.266 82.8916 109.589L81.7422 110.193Z" fill="white"/>
<path d="M134.122 21.649L117.42 21.5904V23.3619H134.122C134.831 23.3619 136.789 24.3303 137.291 24.8379C137.792 25.3454 138.194 26.8298 138.194 27.5475V102.515L122.839 88.9669C120.173 86.5642 117.826 85.7864 114.258 85.8056H84.9619C84.2533 85.8056 83.1464 85.4099 82.6454 84.9024C82.1443 84.3949 80.8389 82.4588 80.8389 81.7411V60.5153L79.0841 60.0775V81.7273C79.0841 83.3063 79.7033 84.8207 80.8057 85.9372C81.908 87.0537 83.403 87.681 84.9619 87.681H114.287C117.069 87.6546 119.759 88.6816 121.832 90.5604L137.414 104.59C137.706 104.859 138.088 105.006 138.483 105.001C138.71 105.002 138.935 104.958 139.145 104.871C139.426 104.739 139.664 104.528 139.831 104.263C139.997 103.999 140.086 103.691 140.086 103.377V27.6027C140.086 26.8135 139.931 26.0322 139.63 25.3042C139.329 24.5761 138.889 23.9159 138.334 23.3619C137.779 22.8079 137.121 22.3712 136.398 22.0771C135.675 21.7831 134.901 21.6375 134.122 21.649Z" fill="white"/>
<path d="M112.748 61.7012H59.3133C57.7544 61.7012 56.2594 61.0739 55.157 59.9574C54.0547 58.8409 53.4355 57.3265 53.4355 55.7475V25.979C53.4323 23.1929 52.4209 20.5048 50.5927 18.4232L36.7423 2.7054C36.5314 2.47257 36.3942 2.18104 36.3485 1.86844C36.3028 1.55584 36.3506 1.23654 36.4858 0.951766C36.6082 0.665381 36.8115 0.422095 37.0702 0.252573C37.3288 0.0830505 37.6312 -0.00512068 37.9393 -0.00082688H112.748C114.307 -0.00082688 115.802 0.626437 116.905 1.74297C118.007 2.85951 118.626 4.37386 118.626 5.95288V55.7475C118.626 57.3265 118.007 58.8409 116.905 59.9574C115.802 61.0739 114.307 61.7012 112.748 61.7012ZM37.9357 1.354L51.0324 16.2572C53.3525 18.9188 55.1343 22.4285 55.157 25.979V55.7475C55.157 56.4652 55.0969 57.4603 56.4518 58.7088C57.8066 59.9574 58.6047 59.9574 59.3133 59.9574H112.748C113.457 59.9574 114.71 59.6121 115.613 58.7088C116.516 57.8056 116.905 56.4652 116.905 55.7475V6.32174C116.905 5.604 116.905 4.06368 116.065 3.16045C115.225 2.25723 114.064 1.80561 113.355 1.80561L37.9357 1.354Z" fill="white"/>
<path d="M69.862 17.9992H92.7569V19.7229H69.862V17.9992Z" fill="white"/>
<path d="M100.862 17.9992H113.757V19.7229H100.862V17.9992Z" fill="white"/>
<path d="M90.862 25.7229H105.757V27.4466H90.862V25.7229Z" fill="white"/>
<path d="M69.862 25.7229H82.7569V27.4466H69.862V25.7229Z" fill="white"/>
<path d="M69.862 33.4466H89.7569V35.1703H69.862V33.4466Z" fill="white"/>
<path d="M69.862 47.9992H92.7569V49.7229H69.862V47.9992Z" fill="white"/>
<path d="M97.862 33.4466H112.757V35.1703H97.862V33.4466Z" fill="white"/>
<path d="M100.862 47.9992H115.757V49.7229H100.862V47.9992Z" fill="white"/>
<path d="M87.862 41.1703H99.7569V42.894H87.862V41.1703Z" fill="white"/>
<path d="M87.862 54.9991H104.757V56.7229H87.862V54.9991Z" fill="white"/>
<path d="M69.862 41.1703H79.7569V42.894H69.862V41.1703Z" fill="white"/>
<path d="M69.862 54.9991H80.7569V56.7229H69.862V54.9991Z" fill="white"/>
<path d="M59.8353 86.5223L66.5273 79.8303L67.7462 81.0491L61.0542 87.7412L59.8353 86.5223Z" fill="white"/>
<path d="M66.6894 87.9072L59.6927 80.9104L60.9115 79.6916L67.9082 86.6883L66.6894 87.9072Z" fill="white"/>
<path d="M1.11951 118.806L7.81153 112.114L9.03039 113.333L2.33836 120.025L1.11951 118.806Z" fill="white"/>
<path d="M7.97357 120.191L0.976833 113.195L2.19569 111.976L9.19243 118.972L7.97357 120.191Z" fill="white"/>
</g>
<defs>
<clipPath id="clip0">
<rect width="140" height="141.806" fill="white"/>
</clipPath>
</defs>
</svg>
