<svg width="177" height="397" viewBox="0 0 177 397" fill="none" xmlns="http://www.w3.org/2000/svg">
<g opacity="0.1">
<path fill-rule="evenodd" clip-rule="evenodd" d="M70.3139 34.9831C62.9779 42.2745 54.2999 45.4057 50.9002 41.9613C47.5006 38.517 50.6319 29.8837 57.9679 22.5924C65.304 15.3011 73.982 12.1698 77.4263 15.5695C80.8707 18.9691 77.65 27.7813 70.3139 34.9831ZM82.0298 122.523C82.0298 123.318 81.714 124.08 81.152 124.642C80.5899 125.204 79.8276 125.52 79.0327 125.52H58.9033C58.5118 125.52 58.1242 125.442 57.7631 125.291C57.402 125.14 57.0745 124.919 56.7998 124.64C56.525 124.361 56.3085 124.03 56.1628 123.667C56.0171 123.303 55.9451 122.915 55.951 122.523C55.9451 122.132 56.0171 121.743 56.1628 121.38C56.3085 121.016 56.525 120.685 56.7998 120.407C57.0745 120.128 57.402 119.906 57.7631 119.755C58.1242 119.604 58.5118 119.526 58.9033 119.526H79.0327C79.8276 119.526 80.5899 119.842 81.152 120.404C81.714 120.966 82.0298 121.728 82.0298 122.523ZM86.399 159.714C87.1695 158.952 87.6083 157.917 87.6201 156.833C87.6201 155.742 87.1865 154.695 86.4147 153.923C85.6429 153.151 84.5962 152.718 83.5047 152.718H79.0315C77.9478 152.73 76.9125 153.168 76.1504 153.939C75.3883 154.709 74.9608 155.749 74.9609 156.833C74.9609 157.913 75.3898 158.948 76.1531 159.711C76.9165 160.475 77.9519 160.904 79.0315 160.904H83.5047C84.5885 160.904 85.6285 160.476 86.399 159.714ZM55.9505 305.925C55.9387 306.914 55.5377 307.858 54.8343 308.553C54.1309 309.248 53.1819 309.638 52.193 309.638C51.2083 309.638 50.264 309.247 49.5677 308.55C48.8714 307.854 48.4803 306.91 48.4803 305.925V251.486C48.4803 250.501 48.8714 249.557 49.5677 248.861C50.264 248.165 51.2083 247.773 52.193 247.773C53.1819 247.773 54.1309 248.163 54.8343 248.858C55.5377 249.553 55.9387 250.497 55.9505 251.486V305.925ZM47.4517 199.687H47.8096C48.2555 199.675 48.6993 199.753 49.1143 199.916C49.5293 200.08 49.9069 200.326 50.2244 200.639C50.542 200.953 50.7929 201.327 50.9621 201.74C51.1314 202.153 51.2154 202.595 51.2092 203.042C51.2178 203.537 51.1106 204.027 50.8961 204.473C49.6928 207.284 47.979 209.847 45.8414 212.033C39.3272 220.743 31.1468 228.072 21.7755 233.593L24.37 256.317C24.2855 257.114 23.9189 257.854 23.3364 258.403C22.7539 258.953 21.994 259.276 21.194 259.314C20.4245 259.309 19.68 259.04 19.0855 258.551C18.4909 258.063 18.0825 257.384 17.9286 256.63L12.0687 226.794C11.9177 226.088 12.0021 225.351 12.309 224.697C12.6159 224.042 13.1285 223.507 13.7685 223.171C13.7685 223.161 13.9729 223.087 14.349 222.951C17.4915 221.814 32.6176 216.342 40.6077 207.873C42.2115 205.553 43.4853 203.636 44.2646 202.464C44.7025 201.805 44.9844 201.381 45.0809 201.252V200.984C45.335 200.67 45.6369 200.398 45.9756 200.179C46.423 199.903 46.9282 199.734 47.4517 199.687Z" fill="white"/>
<path fill-rule="evenodd" clip-rule="evenodd" d="M120.002 16.6109C111.19 8.96984 99.9138 4.7711 88.2506 4.78846V4.87787C76.533 4.86808 65.2104 9.11357 56.3877 16.8249C47.5651 24.5363 41.8428 35.189 40.2844 46.8025C38.7261 58.4161 41.4379 70.2005 47.9156 79.9648C54.3933 89.7292 64.1962 96.8093 75.502 99.8888L78.2087 111.028H99.6154L101.67 99.6204C112.88 96.401 122.549 89.2383 128.895 79.4524C135.24 69.6664 137.835 57.9166 136.201 46.3684C134.567 34.8203 128.814 24.2519 120.002 16.6109ZM71.7445 103.199L73.6537 111.028H50.5851C49.9279 111.027 49.2786 111.171 48.6833 111.449C48.088 111.727 47.5613 112.133 47.1407 112.638C46.7255 113.144 46.4261 113.734 46.2638 114.368C46.1015 115.002 46.0802 115.663 46.2014 116.306C47.4881 123.263 48.4221 129.868 49.0032 136.118L33.3174 127.981C32.6382 127.629 31.8801 127.457 31.1155 127.482C30.351 127.506 29.6056 127.726 28.9504 128.121C28.2953 128.516 27.7523 129.073 27.3735 129.737C26.9946 130.402 26.7925 131.152 26.7865 131.917V194.139C26.7829 194.884 26.9651 195.617 27.3166 196.273C27.6681 196.929 28.1778 197.488 28.7994 197.897C29.5419 198.349 30.3908 198.595 31.2597 198.612C31.8926 198.61 32.5177 198.472 33.0937 198.21L37.0402 196.411C36.7876 196.731 36.5311 197.048 36.2709 197.361C32.4305 201.973 27.6519 205.715 22.2529 208.338C16.8539 210.96 10.9583 212.403 4.95845 212.57H4.51113C3.86847 212.564 3.23216 212.697 2.6455 212.959C2.05885 213.222 1.53564 213.608 1.1115 214.09C0.690186 214.595 0.377421 215.182 0.192713 215.813C0.00800401 216.444 -0.0446891 217.106 0.0379258 217.758L28.398 393.242C28.5695 394.301 29.1155 395.262 29.9365 395.952C30.7576 396.642 31.7991 397.013 32.8712 397H143.851C144.924 397.013 145.965 396.642 146.786 395.952C147.607 395.262 148.153 394.301 148.325 393.242L176.55 217.937C176.597 217.596 176.597 217.25 176.55 216.909C176.55 215.722 176.079 214.584 175.24 213.745C174.401 212.907 173.264 212.435 172.077 212.435H171.585C165.585 212.271 159.688 210.83 154.289 208.208C149.095 205.685 144.476 202.125 140.715 197.749L143.448 198.926C143.999 199.161 144.593 199.282 145.192 199.284C146.379 199.284 147.516 198.812 148.355 197.973C149.194 197.134 149.665 195.997 149.665 194.81V129.859C149.665 128.673 149.194 127.535 148.355 126.696C147.524 125.865 146.398 125.394 145.223 125.386L145.237 125.386H145.192L145.223 125.386C144.527 125.393 143.843 125.561 143.224 125.878L127.751 133.79C128.335 128.194 129.198 122.32 130.342 116.172C130.462 115.521 130.435 114.852 130.264 114.212C130.093 113.573 129.783 112.979 129.355 112.474C128.927 111.969 128.392 111.566 127.79 111.292C127.187 111.019 126.531 110.883 125.869 110.894L125.914 111.028H104.218L105.696 102.886C117.605 98.8685 127.692 90.7372 134.145 79.9519C140.597 69.1665 142.994 56.434 140.903 44.0408C138.812 31.6476 132.372 20.4058 122.738 12.3343C113.104 4.2627 100.908 -0.109801 88.3401 0.00209561L88.2506 0.315253C75.7913 0.467163 63.7859 5.01447 54.3524 13.155C44.9188 21.2954 38.6634 32.506 36.6896 44.8089C34.7158 57.1119 37.1504 69.7167 43.564 80.3996C49.9776 91.0825 59.958 99.1571 71.7445 103.199ZM44.6889 192.923C31.3853 215.997 8.3744 216.909 4.77952 216.909H4.28747L32.6028 392.392H143.851L172.167 216.909H171.719C168.195 216.909 146.055 216.032 132.661 194.282L94.5034 177.857H81.6753C80.5794 177.857 79.4947 177.748 78.4356 177.537L44.6889 192.923ZM125.914 115.501C124.543 122.931 123.604 129.817 123.04 136.198L102.557 146.672C100.196 145.425 97.5456 144.755 94.8265 144.755H81.6753C78.1239 144.755 74.6902 145.897 71.8646 147.977L53.687 138.547C53.1519 131.477 52.1442 123.769 50.5851 115.367H125.914V115.501ZM145.237 194.81V129.859V129.815L106.551 149.624C109.641 152.726 111.377 156.927 111.377 161.306C111.377 165.696 109.634 169.906 106.53 173.01C105.218 174.321 103.71 175.389 102.073 176.186L145.237 194.81ZM65.1245 161.306C65.1245 157.653 66.3325 154.124 68.5273 151.253L31.2597 131.917V194.095L72.666 175.19C71.7014 174.564 70.7977 173.835 69.9721 173.01C66.8682 169.906 65.1245 165.696 65.1245 161.306ZM94.8265 149.229C98.0297 149.229 101.102 150.501 103.367 152.766C105.632 155.031 106.904 158.103 106.904 161.306C106.904 164.509 105.632 167.582 103.367 169.847C101.102 172.112 98.0297 173.384 94.8265 173.384H81.6753C78.4721 173.384 75.4001 172.112 73.1351 169.847C70.8701 167.582 69.5977 164.509 69.5977 161.306C69.5977 158.103 70.8701 155.031 73.1351 152.766C75.4001 150.501 78.4721 149.229 81.6753 149.229H94.8265ZM128.962 237.343C124.298 232.679 117.972 230.059 111.376 230.059H65.0779C58.4817 230.059 52.1557 232.679 47.4914 237.343C42.8272 242.008 40.2069 248.334 40.2069 254.93V343.365C40.2069 349.961 42.8272 356.287 47.4914 360.951C52.1557 365.616 58.4817 368.236 65.0779 368.236H111.376C117.972 368.236 124.298 365.616 128.962 360.951C133.626 356.287 136.247 349.961 136.247 343.365V254.93C136.247 248.334 133.626 242.008 128.962 237.343ZM65.0779 225.585H111.376C119.158 225.585 126.622 228.677 132.125 234.18C137.628 239.683 140.72 247.147 140.72 254.93V343.365C140.72 351.148 137.628 358.611 132.125 364.114C126.622 369.617 119.158 372.709 111.376 372.709H65.0779C57.299 372.697 49.842 369.602 44.3415 364.101C38.8409 358.601 35.7455 351.144 35.7337 343.365V254.93C35.7455 247.151 38.8409 239.694 44.3415 234.193C49.842 228.693 57.299 225.597 65.0779 225.585Z" fill="#4F5053"/>
<path opacity="0.2" fill-rule="evenodd" clip-rule="evenodd" d="M109.856 6.39856C114.999 11.1106 119.106 16.8405 121.917 23.2243C124.727 29.608 126.18 36.5063 126.183 43.4814C126.137 54.2078 122.705 64.6457 116.375 73.3053C110.045 81.9649 101.141 88.4036 90.9343 91.7026L87.195 113.13H100.826C100.823 113.265 100.807 113.399 100.78 113.532C98.631 125.848 97.519 137.089 97.4408 147.233C98.3128 147.395 99.1656 147.637 99.9885 147.955C101.088 149.991 101.667 152.273 101.666 154.597C101.666 158.393 100.158 162.034 97.4738 164.718C94.7894 167.403 91.1485 168.911 87.3521 168.911H74.2009C72.6723 168.884 71.1595 168.597 69.7277 168.061C70.9925 170.145 72.7717 171.869 74.8945 173.067C77.0172 174.266 79.4124 174.898 81.8501 174.905H95.0013C98.3597 174.845 101.59 173.607 104.128 171.406C106.665 169.205 108.347 166.181 108.881 162.865C109.414 159.549 108.764 156.15 107.044 153.265C106.029 151.562 104.68 150.102 103.093 148.963L125.012 137.744C125.537 130.199 126.599 122.126 128.2 113.532C128.258 113.209 128.244 112.877 128.159 112.561C128.074 112.244 127.92 111.949 127.708 111.698C127.505 111.444 127.246 111.239 126.951 111.1C126.657 110.96 126.334 110.89 126.009 110.893H102.688L104.533 100.649C114.284 97.554 122.866 91.5731 129.145 83.4969C135.425 75.4206 139.106 65.629 139.702 55.4162C140.298 45.2034 137.781 35.0502 132.484 26.2981C127.187 17.546 119.359 10.6071 110.035 6.39856H109.856ZM146.714 127.623C147.138 127.61 147.557 127.719 147.922 127.936C148.254 128.137 148.53 128.419 148.726 128.755C148.921 129.091 149.029 129.471 149.04 129.859V194.631C149.04 195.001 148.951 195.365 148.779 195.692C148.608 196.019 148.36 196.3 148.056 196.51C147.679 196.742 147.246 196.865 146.803 196.868C146.523 196.931 146.233 196.931 145.953 196.868L96.3909 175.535C99.6116 175.181 102.634 173.741 104.947 171.428C106.077 170.298 106.999 168.999 107.687 167.59L136.157 176.917C136.451 176.984 136.757 176.984 137.052 176.917C137.479 176.909 137.896 176.785 138.259 176.559C138.569 176.352 138.824 176.073 139.003 175.746C139.182 175.419 139.28 175.053 139.288 174.681V131.156L145.73 127.846C146.04 127.709 146.374 127.633 146.714 127.623ZM68.7763 167.514L30.5 182.196V194.318C30.5454 194.668 30.6697 195.002 30.8634 195.297C31.0572 195.591 31.3153 195.838 31.6183 196.018C31.9783 196.25 32.3975 196.375 32.8261 196.376C33.1511 196.365 33.4706 196.289 33.7654 196.152L79.2579 175.415C76.3583 174.918 73.6607 173.536 71.5528 171.428C70.4027 170.278 69.4685 168.952 68.7763 167.514ZM121.662 229.836C123.425 233.476 124.342 237.467 124.346 241.511V329.946C124.334 337.132 121.474 344.02 116.393 349.101C111.312 354.182 104.424 357.042 97.2384 357.054H50.9407C47.4093 357.051 43.913 356.352 40.6524 354.996C42.852 359.615 46.3116 363.518 50.6327 366.256C54.9537 368.995 59.9604 370.456 65.076 370.473H111.374C118.559 370.462 125.447 367.602 130.529 362.521C135.61 357.44 138.469 350.552 138.481 343.366V254.931C138.478 249.552 136.878 244.296 133.884 239.828C130.889 235.36 126.636 231.883 121.662 229.836ZM171.814 212.435C172.515 212.438 173.188 212.71 173.693 213.195C174.056 213.733 174.199 214.389 174.095 215.029L145.78 390.513C145.694 391.042 145.421 391.523 145.011 391.868C144.6 392.213 144.08 392.399 143.544 392.392H115.452C115.97 392.385 116.468 392.191 116.855 391.846C117.241 391.501 117.489 391.027 117.554 390.513L120.881 368.759C131.164 364.909 138.484 354.992 138.484 343.365V254.93C138.484 254.557 138.476 254.185 138.461 253.816L144.393 215.029C144.41 214.694 144.359 214.359 144.244 214.044C144.129 213.729 143.951 213.44 143.722 213.195C143.493 212.951 143.216 212.758 142.908 212.627C142.6 212.496 142.268 212.431 141.933 212.435C135.852 212.257 129.888 210.728 124.471 207.958C119.055 205.188 114.324 201.247 110.621 196.421C106.716 191.444 103.677 185.5 101.506 178.608L136.441 193.645C137.124 194.601 137.836 195.527 138.578 196.421C142.661 201.3 147.737 205.252 153.468 208.014C159.2 210.775 165.454 212.283 171.814 212.435Z" fill="#4F5053"/>
</g>
</svg>
