<svg width="11" height="8" viewBox="0 0 11 8" fill="none" xmlns="http://www.w3.org/2000/svg">
<path d="M4.32345 0.245274L0.267478 3.93191C0.182349 4.00937 0.114913 4.10125 0.0690196 4.2023C0.0231262 4.30334 -0.00032554 4.41158 3.39881e-06 4.52083C0.000332338 4.63008 0.0244355 4.7382 0.0709368 4.83902C0.117438 4.93984 0.185427 5.03139 0.271021 5.10843C0.356615 5.18547 0.458138 5.2465 0.569794 5.28803C0.681451 5.32956 0.801053 5.35079 0.921772 5.35049C1.04249 5.35019 1.16196 5.32838 1.27337 5.2863C1.38477 5.24421 1.48593 5.18268 1.57106 5.10522L5.00003 1.98761L8.42901 5.10682C8.60094 5.26433 8.83496 5.35357 9.07959 5.35493C9.32423 5.35628 9.55944 5.26963 9.73347 5.11404C9.90751 4.95845 10.0061 4.74666 10.0076 4.52527C10.0091 4.30388 9.91337 4.09102 9.74144 3.93351L5.68725 0.246877C5.59873 0.166271 5.49282 0.103037 5.37611 0.0611182C5.25939 0.0191998 5.13439 -0.000503408 5.00889 0.00323818C4.88232 -0.00180309 4.75597 0.0171202 4.63795 0.0587972C4.51992 0.100474 4.4128 0.163987 4.32345 0.245274Z" fill="#065F75"/>
<path d="M4.99999 4.48489C4.87438 4.48146 4.74933 4.50146 4.63262 4.54365C4.51592 4.58584 4.41006 4.64932 4.32164 4.73014L2.30251 6.58307C2.13105 6.73994 2.03548 6.95202 2.0368 7.17266C2.03813 7.3933 2.13626 7.60442 2.30959 7.75959C2.48293 7.91475 2.71727 8.00125 2.96108 8.00005C3.20488 7.99885 3.43817 7.91004 3.60963 7.75318L5.00708 6.47087L6.4063 7.75318C6.57776 7.91004 6.81105 7.99885 7.05485 8.00005C7.29865 8.00125 7.533 7.91475 7.70634 7.75959C7.87967 7.60442 7.9778 7.3933 7.97912 7.17266C7.98045 6.95202 7.88488 6.73994 7.71342 6.58307L5.68012 4.73014C5.59143 4.6492 5.48527 4.58565 5.36826 4.54346C5.25125 4.50127 5.12589 4.48133 4.99999 4.48489Z" fill="#065F75"/>
</svg>
