<svg width="219" height="51" viewBox="0 0 219 51" fill="none" xmlns="http://www.w3.org/2000/svg">
<g clip-path="url(#clip0)">
<path d="M7.45111 30.2594C7.34523 30.4123 6.73345 31.0751 5.62363 32.2202C4.00007 33.9888 2.35298 34.6398 0 34.6085V35.4399H12.0159V34.6555C10.5845 34.6555 9.57272 34.381 9.17664 33.8202C9.00194 33.647 8.8664 33.4384 8.77914 33.2084C8.69187 32.9784 8.65491 32.7323 8.67074 32.4869C8.67074 31.5692 9.08252 30.6751 10.1374 29.4672L16.3454 22.122L15.2944 20.7141L7.45111 30.2594ZM214.223 15.0081C213.706 15.6748 211.914 16.0238 210.027 16.0238H206.647L207.345 18.4317H210.027C211.91 18.4317 213.663 18.7847 214.2 19.4513C214.737 20.118 215.157 21.4945 215.467 23.569H216.529V10.8747H215.463C215.149 12.9532 214.714 14.3375 214.208 15.0081H214.223ZM185.384 14.9846C184.854 15.6473 183.082 16.0003 181.176 15.9964H177.788L178.529 18.4082H181.18C183.066 18.4082 184.839 18.765 185.352 19.4317C185.866 20.0984 186.29 21.4749 186.619 23.5455H187.69V10.8473H186.623C186.301 12.9388 185.888 14.3179 185.384 14.9846V14.9846ZM63.0717 10.7414C62.7619 12.8198 62.3266 14.2042 61.8207 14.8748C61.3148 15.5454 59.5187 15.8905 57.6363 15.8866H54.2559L54.9539 18.2984H57.6481C59.5109 18.2984 61.2952 18.6513 61.8011 19.318C62.307 19.9847 62.758 21.3612 63.0796 23.4357H64.1423V10.7414H63.0717ZM195.298 1.17649C196.933 1.31375 197.976 1.6863 198.458 2.27847C198.941 2.87064 199.168 4.10988 199.168 6.02364L199.149 29.2319C199.149 31.5535 198.941 32.9771 198.517 33.5182C198.094 34.0594 197.011 34.4594 195.27 34.6947V35.6673H207.647V34.6947C205.981 34.5353 204.894 34.181 204.384 33.632C203.89 33.079 203.655 31.8202 203.659 29.8515L203.682 4.36086C203.636 3.8676 203.717 3.37068 203.917 2.9177C204.102 2.67064 204.49 2.52554 205.063 2.52554H211.125C213.604 2.52554 215.239 2.85887 216.098 3.51771C216.957 4.17655 217.486 5.41578 217.784 7.86289H219.024L218.827 0.223533H195.298V1.17649ZM166.442 1.17649C168.078 1.30983 169.132 1.68238 169.627 2.27847C170.121 2.87456 170.321 4.10596 170.321 6.01972L170.301 29.228C170.301 31.5535 170.074 32.9731 169.662 33.5182C169.25 34.0634 168.168 34.4555 166.411 34.6947V35.6712H178.784V34.6673C177.105 34.5104 176.038 34.1536 175.533 33.6045C175.027 33.0555 174.803 31.7966 174.803 29.828L174.827 4.33733C174.782 3.84374 174.864 3.3469 175.066 2.89417C175.227 2.65103 175.615 2.50201 176.195 2.50201H182.254C184.752 2.50201 186.384 2.83927 187.235 3.4981C188.086 4.15694 188.631 5.39618 188.929 7.84328H190.156L189.988 0.196082H166.458L166.442 1.17649ZM76.0798 0.129414H72.515L72.5503 0.988253C74.1856 1.12943 75.4523 1.80788 75.9269 2.38828L85.4055 2.47455C87.3663 2.47455 88.8918 2.77652 90.0526 3.38437C92.2566 4.53341 93.3428 6.34129 93.3389 9.45115C93.3389 12.6787 92.4722 14.9022 89.4487 16.1179C87.2133 17.0395 82.0446 17.0356 82.3897 17.0356L83.0093 18.6788C83.2051 18.6867 83.4002 18.7064 83.5937 18.7376C86.0564 19.2082 88.2996 20.8396 89.8408 24.6514C92.0605 30.2162 96.3311 35.1457 99.1586 35.6006H104.472V34.3771C100.794 34.3771 97.5272 30.7613 94.637 24.2044C92.4683 19.2435 89.6212 18.4003 89.6212 18.4003C91.8747 18.072 93.9754 17.0668 95.6449 15.5179C96.4872 14.7543 97.1632 13.8254 97.6308 12.789C98.0984 11.7527 98.3475 10.6311 98.3626 9.49429C98.4331 6.29423 96.6959 2.80005 93.335 1.31375C91.5507 0.529421 89.3467 0.137257 86.6878 0.137257L76.0798 0.125492V0.129414ZM108.316 1.1059C110.049 1.21179 111.21 1.54513 111.747 2.09808C112.284 2.65103 112.586 3.94909 112.582 5.95305L112.551 30.6986C112.308 40.5027 111.194 44.0322 109.331 46.3851C108.073 48.2362 105.516 49.1303 103.888 49.7931C104.005 49.9167 104.114 50.0477 104.214 50.1852H106.276C106.462 50.1382 106.65 50.0833 106.841 50.0205C111.394 48.4793 114.292 45.8361 115.649 42.7459C117.218 39.1144 117.292 32.8124 117.292 32.8124V5.96481C117.292 4.10596 117.539 2.8628 118.077 2.23926C118.614 1.61572 119.767 1.24316 121.571 1.11767V0.137257L108.316 0.125492V1.1059ZM43.2831 1.04708C44.9302 1.18434 45.9734 1.55689 46.4597 2.14514C46.9459 2.73338 47.1656 3.97654 47.1616 5.89422V29.1025C47.1616 31.4241 46.9499 32.8476 46.5185 33.3888C46.0871 33.93 45.0243 34.33 43.2714 34.5653V35.5418L70.064 35.5653L72.0954 26.5456H70.8483C69.6718 29.577 68.3267 31.1888 66.8326 31.9967C65.3384 32.8045 63.0207 33.1731 59.9187 33.1731H51.5931C51.248 32.5261 51.0793 31.3888 51.0793 29.7417L51.1029 4.25106C51.0606 3.75884 51.1429 3.26391 51.3421 2.81182C51.5029 2.56475 51.8872 2.41965 52.4794 2.41965H61.6717C64.3619 2.41965 66.1149 2.77652 66.8875 3.47849C67.66 4.18047 68.2365 5.38833 68.6287 7.76092H69.8052L69.613 0.0901977L43.2831 0.0666679V1.04708ZM26.7338 0.862761C28.028 0.925507 29.0397 1.1412 29.4045 1.58826C29.5705 1.74728 29.6936 1.94577 29.7621 2.16522C29.8307 2.38467 29.8426 2.61792 29.7966 2.84319C29.6672 3.62752 28.8476 4.29812 27.7064 5.73736L21.6043 12.8983L22.6357 14.2748C22.6357 14.2748 30.5888 4.94127 31.8986 3.56869C33.0516 2.25886 33.6555 1.8667 34.5261 1.4863C35.3709 1.14419 36.2641 0.936446 37.1732 0.870604V0.0627462L26.7377 0.0549029L26.7338 0.862761ZM131.442 4.19223C127.706 7.64327 125.834 12.2185 125.826 17.918C125.826 23.3494 127.567 27.8123 131.073 31.2711C133.307 33.5124 136.123 35.0852 139.202 35.8124V34.5732C137.45 33.813 135.889 32.6716 134.634 31.2319C132.061 28.3456 130.763 23.9063 130.771 17.9219C130.779 11.9375 132.081 7.47464 134.665 4.61577C135.921 3.1844 137.475 2.0453 139.218 1.27845V0.0352948C136.304 0.724924 133.618 2.15701 131.422 4.19223H131.442ZM0.321574 0.74119C1.55314 0.820802 2.75487 1.15462 3.85105 1.7216C4.88636 2.29416 6.17658 3.29025 7.69426 5.35304L26.4397 30.3378C27.9025 32.3535 27.5887 33.2477 27.224 33.7575C26.8593 34.2673 25.7377 34.6085 24.4593 34.6124V35.4634H40.538V34.53H39.7537C39.0175 34.5761 38.2785 34.5419 37.5497 34.4281C36.5751 34.2065 35.6608 33.7741 34.8712 33.1614C33.5548 32.2439 32.3993 31.1149 31.4515 29.8201L13.412 5.83932C12.4865 4.57263 12.0237 3.77262 12.0237 2.9177C12.0311 2.63993 12.0963 2.36674 12.2152 2.11557C12.334 1.86439 12.5039 1.64073 12.714 1.45885C13.1689 1.03139 14.063 0.870604 15.3728 0.807858V0.0235298L0.321574 0.0313731V0.74119ZM148.83 1.23532C150.589 1.97335 152.172 3.07606 153.473 4.47067C156.117 7.24719 157.419 11.7257 157.395 17.9415C157.395 24.0854 156.088 28.5574 153.473 31.3574C152.162 32.7851 150.557 33.9105 148.767 34.6555V35.8595C151.659 35.1742 154.333 33.7776 156.548 31.7966C160.434 28.3613 162.356 23.7612 162.356 17.9493C162.356 12.2473 160.502 7.67203 156.795 4.22361C154.557 2.14121 151.81 0.68456 148.83 0V1.23532Z" fill="#D1B381"/>
</g>
<defs>
<clipPath id="clip0">
<rect width="219" height="50.1774" fill="white"/>
</clipPath>
</defs>
</svg>
