<svg width="161" height="25" viewBox="0 0 161 25" fill="none" xmlns="http://www.w3.org/2000/svg">
<path d="M114.487 6.27235C103.003 2.96806 90.0186 2.66422 80.9935 12.9047V12.672L84.7013 8.47046L80.4998 1.86664L76.2935 8.47521L80.0013 12.6768V12.9094C70.981 2.66897 57.9964 2.96806 46.5074 6.2771C34.9756 9.59562 23.2872 12.7575 17.0869 12.653C26.7149 15.9858 37.3019 12.2542 47.2195 9.77128C55.0862 7.80106 70.0125 4.62496 80.0013 13.0139V15.155C75.3867 14.7609 75.2965 19.0337 70.7199 19.0337C68.009 19.0337 66.2951 17.2582 66.3711 15.2689C66.504 12.0643 69.2813 11.7178 70.7199 11.7558C72.7708 11.8222 74.1143 13.2133 73.6396 14.628C73.6064 13.9681 73.2028 13.3557 72.5524 13.1041C71.6599 12.748 70.6344 13.1848 70.2783 14.0773C69.9223 14.9793 70.3543 15.9906 71.2611 16.3514C71.5507 16.4606 71.845 16.4748 72.1346 16.4368C73.5731 16.4321 75.0021 14.9034 74.347 13.0851C73.9054 11.8412 72.4669 10.6781 70.2973 10.6828C68.6214 10.6828 66.9551 11.7083 66.1717 13.6833C64.9421 16.7834 67.0737 19.6604 70.2071 19.8313C75.5766 20.1447 75.2632 15.3734 80.0013 15.2167V15.2642H80.9935V15.2167C85.7221 15.3686 85.4277 20.1447 90.7877 19.8313C93.9163 19.6604 96.048 16.7834 94.8278 13.6833C94.0397 11.7083 92.3686 10.6828 90.6975 10.6828C88.5326 10.6781 87.0894 11.8412 86.6478 13.0851C86.0069 14.9081 87.4264 16.4321 88.8649 16.4368C89.1498 16.4796 89.4441 16.4653 89.7385 16.3514C90.6405 15.9953 91.0678 14.9841 90.7165 14.0773C90.3652 13.1848 89.3397 12.748 88.4472 13.1041C87.7872 13.3604 87.3837 13.9681 87.36 14.6185C86.8947 13.2085 88.2288 11.8175 90.2845 11.751C91.7135 11.713 94.4908 12.0596 94.619 15.2642C94.6997 17.2534 92.9858 19.029 90.275 19.029C85.6983 19.029 85.5986 14.7562 80.9935 15.1503V13.0091C90.9823 4.62021 105.909 7.79631 113.775 9.76654C123.693 12.2495 134.275 15.9858 143.908 12.6483C137.708 12.7527 126.019 9.59088 114.487 6.27235Z" fill="#065F75"/>
<path d="M14.7886 12.5203V11.7038H14.7506C14.874 7.80129 18.8145 8.04341 18.5581 3.6187C18.4157 1.03129 16.0419 -0.720548 13.4878 0.290677C11.8546 0.94109 11.0143 2.31313 11.0143 3.69467C11.0095 5.48449 11.9685 6.67137 12.994 7.03218C14.499 7.56865 15.7523 6.39126 15.7618 5.20438C15.7903 4.97175 15.7856 4.72963 15.6906 4.49225C15.3963 3.75163 14.5654 3.39082 13.8153 3.68517C13.0747 3.97477 12.7187 4.81508 13.0083 5.56045C13.2219 6.09692 13.7204 6.4245 14.2616 6.45298C13.0985 6.84228 11.9543 5.74085 11.8973 4.04124C11.8641 2.86385 12.1584 0.575535 14.7933 0.461594C16.436 0.395129 17.8982 1.80514 17.8982 4.05073C17.8982 7.82502 14.3755 7.90573 14.7031 11.7085H8.91113L5.44543 8.64634L0 12.112L5.44543 15.5778L8.91113 12.5156H14.7031C14.3755 16.3184 17.8982 16.3896 17.8982 20.1734C17.8982 22.4095 16.4312 23.829 14.7933 23.7625C12.1537 23.6533 11.8641 21.3602 11.8973 20.1734C11.9543 18.488 13.1032 17.3723 14.2711 17.7616C13.7299 17.7901 13.2219 18.1224 13.0083 18.6589C12.7139 19.39 13.0747 20.2351 13.8153 20.5342C14.5607 20.8285 15.3915 20.4677 15.6906 19.7271C15.7856 19.485 15.7903 19.2429 15.7618 19.0055C15.7523 17.8186 14.4942 16.6412 12.994 17.1777C11.9685 17.5385 11.0095 18.7349 11.0143 20.5247C11.0143 21.8967 11.8594 23.2688 13.4878 23.9192C16.0419 24.9399 18.4157 23.1786 18.5581 20.5912C18.8192 16.1664 14.8788 16.4181 14.7506 12.5156H14.7886V12.5203Z" fill="#065F75"/>
<path d="M155.554 8.64617L152.088 11.7083H146.296C146.624 7.89606 143.101 7.82484 143.101 4.05055C143.101 1.80497 144.568 0.394953 146.206 0.461419C148.846 0.570612 149.135 2.86367 149.102 4.05055C149.045 5.73593 147.896 6.8516 146.728 6.46231C147.269 6.42433 147.777 6.10149 147.991 5.56502C148.285 4.8244 147.925 3.97934 147.184 3.68974C146.439 3.39539 145.608 3.7562 145.309 4.49682C145.214 4.73894 145.209 4.98107 145.237 5.21845C145.247 6.40533 146.505 7.57323 148.005 7.03676C149.031 6.67595 149.99 5.48906 149.985 3.69924C149.985 2.3177 149.14 0.945668 147.512 0.295256C144.957 -0.71597 142.584 1.03586 142.441 3.62327C142.18 8.05747 146.12 7.79636 146.249 11.7083H146.211V12.5249H146.249C146.125 16.4274 142.185 16.1805 142.441 20.6005C142.584 23.1879 144.957 24.9492 147.512 23.9285C149.145 23.2781 149.985 21.906 149.985 20.534C149.99 18.7442 149.031 17.5478 148.005 17.187C146.5 16.66 145.247 17.8279 145.237 19.0148C145.209 19.2569 145.214 19.499 145.309 19.7364C145.603 20.477 146.434 20.8284 147.184 20.5435C147.925 20.2492 148.281 19.4041 147.991 18.6682C147.777 18.1318 147.279 17.7947 146.738 17.7709C147.901 17.3911 149.045 18.4926 149.102 20.1827C149.135 21.3696 148.841 23.6579 146.206 23.7623C144.563 23.8383 143.101 22.4188 143.101 20.1827C143.101 16.3989 146.624 16.3277 146.296 12.5249H152.088L155.554 15.5871L160.999 12.1214L155.554 8.64617Z" fill="#065F75"/>
</svg>
